<?xml version="1.0" encoding="UTF-8"?>
<svg width="22px" height="22px" viewBox="0 0 22 22" version="1.1" xmlns="http://www.w3.org/2000/svg" xmlns:xlink="http://www.w3.org/1999/xlink">
    <!-- Generator: Sketch 47 (45396) - http://www.bohemiancoding.com/sketch -->
    <title>CatProfilePic</title>
    <desc>Created with Sketch.</desc>
    <defs>
    </defs>
    <rect x="0" y="0" width="100%" height="100%" fill="transparent"></rect>
    <g transform="matrix(1 0 0 1 11 11)" id="35c25a58-a2f4-4807-9fb6-8b5132a5f3a9"  >
        <rect style="stroke: none; stroke-width: 1; stroke-dasharray: none; stroke-linecap: butt; stroke-dashoffset: 0; stroke-linejoin: miter; stroke-miterlimit: 4; fill: rgb(255,170,0); fill-rule: nonzero; opacity: 1;" vector-effect="non-scaling-stroke"  x="-11" y="-11" rx="0" ry="0" width="22" height="22" />
    </g>
    <g transform="matrix(Infinity NaN NaN Infinity 0 0)" id="0c676c75-65e7-4423-915d-e4ef36233ec0"  >
    </g>
    <g transform="matrix(0.38 0 0 0.32 11 11)" id="Shape"  >
        <path style="stroke: rgb(0,0,0); stroke-width: 0; stroke-dasharray: none; stroke-linecap: butt; stroke-dashoffset: 0; stroke-linejoin: miter; stroke-miterlimit: 4; fill: rgb(0,0,0); fill-rule: nonzero; opacity: 1;" vector-effect="non-scaling-stroke"  transform=" translate(-16.97, -27.47)" d="M 17.45 17.07 L 6.35 27.310000000000002 L 0.34999999999999964 13.660000000000002 L 9.75 11.100000000000001 z M 0 17.78 L 5.08 29.4 C 5.20992944 29.6977279 5.47638017 29.913793 5.79452774 29.979410899999998 C 6.11267531 30.0450289 6.44287206 29.952022399999997 6.680000000000001 29.729999999999997 L 14.68 22.319999999999997 L 0 47.31999999999999 z M 18.5 15.340000000000002 L 11.79 10.130000000000003 L 22.22 4.130000000000003 z M 1.6700000000000017 0.5600000000000023 L 8.320000000000002 9.420000000000002 L 0.19000000000000128 11.640000000000002 z M 0.7500000000000017 50 L 19.31 18.45 L 31.71 27.31 L 20 50 z M 20 54.38 L 32.29 30.550000000000004 L 33.94 50.27 z" stroke-linecap="round" />
    </g>
</svg>
