<?xml version="1.0" encoding="UTF-8"?>
<svg width="100px" height="100px" viewBox="0 0 100 100" version="1.1" xmlns="http://www.w3.org/2000/svg" xmlns:xlink="http://www.w3.org/1999/xlink">
    <!-- Generator: Sketch 47 (45396) - http://www.bohemiancoding.com/sketch -->
    <title>ebay</title>
    <desc>Created with Sketch.</desc>
    <defs></defs>
    <g id="Design" stroke="none" stroke-width="1" fill="none" fill-rule="evenodd">
        <g id="ebay">
            <g id="Group-12" transform="translate(4.000000, 16.000000)">
                <path d="M58.3190104,6 L58.3190104,4.91536458 C58.3190104,4.52191644 58.5242384,4.15612148 58.9347005,3.81796875 C59.0495448,3.7201384 59.234569,3.5978523 59.4897786,3.45110677 C59.7449883,3.30436125 59.9321392,3.18101178 60.051237,3.08105469 C60.1597011,2.98535108 60.2139323,2.8449879 60.2139323,2.65996094 C60.2139323,2.49620144 60.1682079,2.37178862 60.0767578,2.28671875 C59.9853077,2.20164888 59.8566415,2.15911458 59.6907552,2.15911458 C59.6397133,2.15911458 59.5892038,2.16815312 59.5392253,2.18623047 C59.4892467,2.20430782 59.4355472,2.23620854 59.378125,2.28193359 C59.3207028,2.32765865 59.2733834,2.40049863 59.2361654,2.50045573 C59.1989473,2.60041283 59.1792752,2.72163557 59.1771484,2.8641276 L58.3253906,2.8641276 C58.3253906,2.74715653 58.3381509,2.62433875 58.3636719,2.49567057 C58.3891928,2.36700239 58.4354489,2.23089264 58.5024414,2.08733724 C58.5694339,1.94378183 58.6523758,1.81564726 58.7512695,1.70292969 C58.8501633,1.59021211 58.9809562,1.49663666 59.1436523,1.42220052 C59.3063485,1.34776438 59.4887143,1.31054688 59.6907552,1.31054688 C60.0969638,1.31054688 60.4287314,1.43495969 60.6860677,1.68378906 C60.9434041,1.93261843 61.0720703,2.25587909 61.0720703,2.65358073 C61.0720703,3.09381731 60.9168201,3.44685197 60.6063151,3.71269531 C60.489344,3.80839892 60.2963447,3.93653349 60.0273112,4.09710286 C59.7582777,4.25767224 59.5620883,4.38899689 59.438737,4.49108073 C59.2600903,4.63144601 59.1707682,4.78350613 59.1707682,4.94726563 L59.1707682,5.15143229 L61.0720703,5.15143229 L61.0720703,6 L58.3190104,6 Z M61.8293802,4.621875 L62.6779479,4.621875 C62.6779479,4.79839498 62.7268624,4.93928984 62.8246927,5.0445638 C62.9225231,5.14983777 63.0543794,5.20247396 63.2202656,5.20247396 C63.3733914,5.20247396 63.5041844,5.15728127 63.6126484,5.06689453 C63.7211125,4.97650779 63.7753437,4.85369001 63.7753437,4.6984375 L63.7753437,4.30924479 C63.7753437,4.16462601 63.728556,4.04233991 63.6349792,3.94238281 C63.5414023,3.84242572 63.4074193,3.79244792 63.233026,3.79244792 L61.9984557,3.79244792 L61.9984557,3.14485677 L62.12925,1.34882813 L64.4165547,1.34882813 L64.4165547,2.19739583 L62.9203958,2.19739583 L62.8693542,2.95026042 L63.2489766,2.95026042 C63.4914257,2.95026042 63.7168575,3.00502332 63.9252786,3.11455078 C64.1336998,3.22407824 64.3027737,3.38251849 64.4325052,3.5898763 C64.5622368,3.79723411 64.6271016,4.03170442 64.6271016,4.29329427 L64.6271016,4.6984375 C64.6271016,4.95577386 64.5627684,5.18864913 64.4341003,5.39707031 C64.3054321,5.60549149 64.1342315,5.76659014 63.9204935,5.88037109 C63.7067554,5.99415204 63.4733485,6.05104167 63.2202656,6.05104167 C62.8331977,6.05104167 62.5046203,5.91705863 62.2345234,5.64908854 C61.9644266,5.38111845 61.8293802,5.03871736 61.8293802,4.621875 Z" id="25" fill="#DBB691"></path>
                <path d="M15.3796224,52.8037109 L15.3796224,52.1050781 L16.3972656,49.3488281 L17.2809245,49.3488281 L16.3207031,51.9551432 L17.2330729,51.9551432 L17.2330729,50.3792318 L18.0975911,50.3792318 L18.0975911,54 L17.2330729,54 L17.2330729,52.8037109 L15.3796224,52.8037109 Z M19.0227865,52.7399089 L19.0227865,50.6089193 C19.0227865,50.5132157 19.0328884,50.4137917 19.0530924,50.3106445 C19.0732965,50.2074973 19.1137041,50.0942497 19.1743164,49.9708984 C19.2349287,49.8475471 19.3120221,49.738553 19.405599,49.6439128 C19.4991758,49.5492725 19.6273104,49.4700524 19.7900065,49.40625 C19.9527026,49.3424476 20.1371951,49.3105469 20.3434896,49.3105469 C20.549784,49.3105469 20.7337449,49.3424476 20.8953776,49.40625 C21.0570104,49.4700524 21.1830182,49.5492725 21.2734049,49.6439128 C21.3637917,49.738553 21.4382267,49.8480788 21.4967122,49.9724935 C21.5551978,50.0969082 21.5940103,50.2106874 21.613151,50.3138346 C21.6322918,50.4169819 21.641862,50.5174691 21.641862,50.6152995 L21.641862,52.7462891 C21.641862,52.8441194 21.6317601,52.9446067 21.611556,53.0477539 C21.5913519,53.1509011 21.551476,53.2646804 21.4919271,53.3890951 C21.4323782,53.5135097 21.3558164,53.6230356 21.2622396,53.7176758 C21.1686627,53.812316 21.0399965,53.8915361 20.876237,53.9553385 C20.7124775,54.0191409 20.5253266,54.0510417 20.3147786,54.0510417 C20.110611,54.0510417 19.9293085,54.0186093 19.7708659,53.9537435 C19.6124233,53.8888777 19.4874788,53.8091259 19.3960286,53.7144857 C19.3045785,53.6198454 19.2296118,53.5103196 19.1711263,53.3859049 C19.1126408,53.2614903 19.0732965,53.1471793 19.0530924,53.0429688 C19.0328884,52.9387582 19.0227865,52.8377392 19.0227865,52.7399089 Z M19.8713542,52.7335286 C19.8713542,52.8292322 19.8873045,52.9100474 19.9192057,52.9759766 C19.9511069,53.0419057 19.9931095,53.0902885 20.0452148,53.1211263 C20.0973201,53.1519641 20.1467663,53.1732313 20.1935547,53.1849284 C20.2403431,53.1966255 20.2881942,53.202474 20.3371094,53.202474 C20.3860246,53.202474 20.433344,53.1966255 20.479069,53.1849284 C20.5247941,53.1732313 20.5731768,53.1519641 20.6242187,53.1211263 C20.6752607,53.0902885 20.7161999,53.0419057 20.7470378,52.9759766 C20.7778756,52.9100474 20.7932943,52.8292322 20.7932943,52.7335286 L20.7932943,50.6216797 C20.7932943,50.5259761 20.7778756,50.4446292 20.7470378,50.3776367 C20.7161999,50.3106442 20.6752607,50.2627931 20.6242187,50.234082 C20.5731768,50.205371 20.5253257,50.1856988 20.4806641,50.1750651 C20.4360024,50.1644314 20.3881513,50.1591146 20.3371094,50.1591146 C20.2860675,50.1591146 20.2382164,50.1644314 20.1935547,50.1750651 C20.148893,50.1856988 20.0999786,50.205371 20.0468099,50.234082 C19.9936412,50.2627931 19.9511069,50.3106442 19.9192057,50.3776367 C19.8873045,50.4446292 19.8713542,50.5259761 19.8713542,50.6216797 L19.8713542,52.7335286 Z" id="40" fill="#DBB691"></path>
                <path d="M72.3190104,24 L72.3190104,22.9153646 C72.3190104,22.5219164 72.5242384,22.1561215 72.9347005,21.8179688 C73.0495448,21.7201384 73.234569,21.5978523 73.4897786,21.4511068 C73.7449883,21.3043612 73.9321392,21.1810118 74.051237,21.0810547 C74.1597011,20.9853511 74.2139323,20.8449879 74.2139323,20.6599609 C74.2139323,20.4962014 74.1682079,20.3717886 74.0767578,20.2867188 C73.9853077,20.2016489 73.8566415,20.1591146 73.6907552,20.1591146 C73.6397133,20.1591146 73.5892038,20.1681531 73.5392253,20.1862305 C73.4892467,20.2043078 73.4355472,20.2362085 73.378125,20.2819336 C73.3207028,20.3276586 73.2733834,20.4004986 73.2361654,20.5004557 C73.1989473,20.6004128 73.1792752,20.7216356 73.1771484,20.8641276 L72.3253906,20.8641276 C72.3253906,20.7471565 72.3381509,20.6243388 72.3636719,20.4956706 C72.3891928,20.3670024 72.4354489,20.2308926 72.5024414,20.0873372 C72.5694339,19.9437818 72.6523758,19.8156473 72.7512695,19.7029297 C72.8501633,19.5902121 72.9809562,19.4966367 73.1436523,19.4222005 C73.3063485,19.3477644 73.4887143,19.3105469 73.6907552,19.3105469 C74.0969638,19.3105469 74.4287314,19.4349597 74.6860677,19.6837891 C74.9434041,19.9326184 75.0720703,20.2558791 75.0720703,20.6535807 C75.0720703,21.0938173 74.9168201,21.446852 74.6063151,21.7126953 C74.489344,21.8083989 74.2963447,21.9365335 74.0273112,22.0971029 C73.7582777,22.2576722 73.5620883,22.3889969 73.438737,22.4910807 C73.2600903,22.631446 73.1707682,22.7835061 73.1707682,22.9472656 L73.1707682,23.1514323 L75.0720703,23.1514323 L75.0720703,24 L72.3190104,24 Z M75.9984557,24 L75.9984557,23.1514323 L76.8438333,23.1514323 L76.8438333,20.203776 L76.2281432,20.2548177 L76.2281432,19.4253906 L77.692401,19.3009766 L77.692401,23.1514323 L78.5537292,23.1514323 L78.5537292,24 L75.9984557,24 Z" id="21" fill="#DBB691"></path>
                <polygon id="Stroke-59" stroke="#DBB691" stroke-linejoin="bevel" points="39 9 51.5 35.000208 26.9996928 48 2 35.000208"></polygon>
                <polygon id="Stroke-60" stroke="#DBB691" stroke-linejoin="bevel" points="64 9 89 21.999792 64 48"></polygon>
                <polyline id="Stroke-62" stroke="#DBB691" stroke-linejoin="bevel" points="64 9 52 35.000208 52 48 64 48"></polyline>
                <polygon id="Stroke-61" stroke="#51E5A9" stroke-linejoin="bevel" points="64 9 39 9 51.5 35 64 35"></polygon>
                <polyline id="Stroke-63" stroke="#D9B48F" opacity="0.61223181" stroke-linejoin="bevel" points="89 22 63.8002477 34.999792 51.1997523 48.000208 38.5998761 61 26 48.000208"></polyline>
                <path d="M51,48 L26,48" id="Stroke-64" stroke="#DBB691" stroke-linejoin="bevel"></path>
                <polygon id="Fill-65" fill="#51E5A9" points="41 9 38.9992387 7 37 9 38.9992387 11"></polygon>
                <polygon id="Fill-66" fill="#51E5A9" points="66 9 63.9992387 7 62 9 63.9992387 11"></polygon>
                <polygon id="Fill-67" fill="#DBB691" points="91 22 88.9992387 20 87 22 88.9992387 24"></polygon>
                <polygon id="Fill-68" fill="#51E5A9" points="66 35 63.9992387 33 62 35 63.9992387 37"></polygon>
                <polygon id="Fill-69" fill="#51E5A9" points="54 35 51.9992387 33 50 35 51.9992387 37"></polygon>
                <polygon id="Fill-70" fill="#DBB691" points="54 48 51.9992387 46 50 48 51.9992387 50"></polygon>
                <polygon id="Fill-71" fill="#DBB691" points="66 48 63.9992387 46 62 48 63.9992387 50"></polygon>
                <polygon id="Fill-72" fill="#DBB691" points="28 48 25.9992387 46 24 48 25.9992387 50"></polygon>
                <polygon id="Fill-73" fill="#DBB691" points="41 61 38.9992387 59 37 61 38.9992387 63"></polygon>
                <polygon id="Fill-74" fill="#DBB691" points="0 35.0007613 2.00076132 37 4 35.0007613 2.00076132 33"></polygon>
            </g>
        </g>
    </g>
</svg>