<?xml version="1.0" encoding="utf-8"?>
<!-- Generator: Adobe Illustrator 15.0.0, SVG Export Plug-In . SVG Version: 6.00 Build 0)  -->
<!DOCTYPE svg PUBLIC "-//W3C//DTD SVG 1.1//EN" "http://www.w3.org/Graphics/SVG/1.1/DTD/svg11.dtd">
<svg version="1.1" id="gamepad" xmlns="http://www.w3.org/2000/svg" xmlns:xlink="http://www.w3.org/1999/xlink" x="0px" y="0px"
	 width="228.042px" height="90.75px" viewBox="0 0 228.042 90.75" enable-background="new 0 0 228.042 90.75" xml:space="preserve">
<g>
	<g>
		<circle fill="#E18A48" cx="50.597" cy="56.999" r="6.659"/>
	</g>
</g>
<g>
	<g>
		<path fill="#E18A48" d="M71.163,38.887c-0.195,0-0.729-0.067-0.888-0.192c-0.204-0.166-0.665-0.414-0.665-0.676v-2.144
			c0-0.263,0.461-0.511,0.665-0.676c0.204-0.164,0.644-0.228,0.897-0.173l5.09,1.071c0.398,0.086,0.729,0.44,0.729,0.849
			c0,0.41-0.264,0.764-0.664,0.85l-4.992,1.071C71.272,38.88,71.222,38.887,71.163,38.887z"/>
	</g>
</g>
<g>
	<g>
		<path fill="#E18A48" d="M31.581,36.715l-1.395-2.013c-0.162-0.225-0.425-0.446-0.702-0.446h-5.185
			c-0.479,0-0.689,0.563-0.689,1.043v3.905c0,0.48,0.21,1.052,0.689,1.052h5.185c0.282,0,0.546-0.229,0.709-0.459l1.395-2.027
			C31.801,37.467,31.798,37.016,31.581,36.715z"/>
		<path fill="#E18A48" d="M42.523,34.256h-5.027c-0.278,0-0.539,0.221-0.703,0.446l-1.395,1.968
			c-0.218,0.303-0.221,0.729-0.007,1.032l1.396,2.084c0.163,0.23,0.427,0.47,0.709,0.47h5.027c0.48,0,1.086-0.572,1.086-1.052
			v-3.905C43.609,34.819,43.003,34.256,42.523,34.256z"/>
		<path fill="#E18A48" d="M36.32,40.203l-2.291-1.395c-0.27-0.159-0.571-0.161-0.842-0.005l-2.279,1.396
			c-0.269,0.156-0.299,0.442-0.299,0.752v5.196c0,0.479,0.153,1.109,0.632,1.109h4.773c0.48,0,0.595-0.63,0.595-1.109v-5.195
			C36.609,40.644,36.584,40.36,36.32,40.203z"/>
	</g>
</g>
<path fill="#E18A48" d="M36.016,27.055h-4.773c-0.479,0-0.868,0.388-0.868,0.867v5.056c0,0.308,0.162,0.592,0.427,0.747l2.358,1.396
	c0.136,0.08,0.289,0.121,0.442,0.121c0.15,0,0.3-0.039,0.434-0.117l2.414-1.395c0.269-0.155,0.434-0.441,0.434-0.752v-5.056
	C36.882,27.443,36.494,27.055,36.016,27.055z"/>
<g>
	<g>
		<path fill="#E18A48" d="M92.66,41.853c-2.597,0-4.709-2.112-4.709-4.71c0-2.597,2.112-4.71,4.709-4.71
			c2.598,0,4.711,2.113,4.711,4.71C97.372,39.74,95.257,41.853,92.66,41.853z M92.66,34.169c-1.639,0-2.974,1.333-2.974,2.974
			s1.335,2.975,2.974,2.975c1.641,0,2.975-1.334,2.975-2.975C95.634,35.502,94.3,34.169,92.66,34.169z"/>
	</g>
</g>
<g>
	<g>
		<path fill="#E18A48" d="M101.595,32.56c-2.598,0-4.711-2.113-4.711-4.709s2.113-4.71,4.711-4.71c2.598,0,4.709,2.113,4.709,4.71
			S104.193,32.56,101.595,32.56z M101.595,24.876c-1.641,0-2.975,1.334-2.975,2.975s1.334,2.975,2.975,2.975
			c1.641,0,2.975-1.334,2.975-2.975S103.236,24.876,101.595,24.876z"/>
	</g>
</g>
<g>
	<g>
		<path fill="#E18A48" d="M110.888,41.495c-2.598,0-4.711-2.112-4.711-4.71c0-2.597,2.113-4.71,4.711-4.71
			c2.598,0,4.709,2.114,4.709,4.71C115.597,39.383,113.486,41.495,110.888,41.495z M110.888,33.812
			c-1.641,0-2.975,1.334-2.975,2.974c0,1.641,1.334,2.975,2.975,2.975c1.641,0,2.975-1.334,2.975-2.975
			C113.863,35.146,112.529,33.812,110.888,33.812z"/>
	</g>
</g>
<g>
	<g>
		<path fill="#E18A48" d="M101.595,50.788c-2.598,0-4.711-2.113-4.711-4.71c0-2.598,2.113-4.71,4.711-4.71
			c2.598,0,4.709,2.112,4.709,4.71C106.304,48.675,104.193,50.788,101.595,50.788z M101.595,43.104
			c-1.641,0-2.975,1.334-2.975,2.975c0,1.64,1.334,2.974,2.975,2.974c1.641,0,2.975-1.334,2.975-2.974
			C104.57,44.438,103.236,43.104,101.595,43.104z"/>
	</g>
</g>
<g>
	<g>
		<circle fill="#E18A48" cx="84.55" cy="56.999" r="6.659"/>
	</g>
</g>
<g opacity="0.2">
	<g>
		<path fill="#E18A48" d="M117.052,87.242c-7.354,0-18.977-15.516-22.744-21.2c-2.422,2.675-5.875,4.026-9.758,4.026
			c-5.678,0-10.197-4.75-12.066-8.75l-9.277-0.063c-1.869,4-6.545,8.75-12.223,8.75c-3.883,0-7.516-1.95-9.938-4.625
			c-3.769,5.685-15.463,21.924-22.815,21.924c-7.475,0-13.555-6.11-13.555-13.587c0-6.322,5.852-28.94,9.184-40.137
			c-1.296,1.601-2.349,3.398-3.095,5.356c-0.016,0.041-0.035,0.073-0.049,0.116c-0.002,0.007-0.005,0.014-0.007,0.021
			c-0.246,0.658-0.457,1.332-0.631,2.021C6.875,51.614,2.812,69.34,2.448,75.869c-0.496,8.896,5.731,13.886,12.738,13.886
			s21.612-15.382,25.276-21.188c2.567,2.604,5.535,4.033,9.004,4.482c5.569,0.725,10.332-1.972,14.831-8.044l6.648-0.063
			c2.712,4.72,7.469,7.319,10.74,7.941c5.424,1.029,9.523-1.348,11.842-3.338c0.01,0.038,13.012,15.557,17.749,17.956
			c3.843,1.948,10.67,1.757,12.718-2.183C121.962,86.542,119.587,87.242,117.052,87.242z"/>
	</g>
</g>
<path fill="#E18A48" d="M121.033,32.262c-0.174-0.679-0.383-1.345-0.623-1.996c-0.006-0.02-0.012-0.041-0.02-0.061
	c-0.084-0.26-0.184-0.499-0.291-0.726c-1.656-3.978-4.529-7.326-8.15-9.582l-0.32-2.776c-0.422-3.061-2.139-5.381-4.541-6.408
	c-0.855-0.908-2.029-1.451-3.418-1.451h-3.482c-1.316,0-2.512,0.532-3.373,1.394c-2.658,1.065-4.547,3.642-4.572,6.655l-0.223,1.607
	c-0.215,0.105-0.428,0.212-0.637,0.325H43.901c-0.208-0.113-0.42-0.22-0.634-0.325l-0.223-1.607
	c-0.025-3.013-1.914-5.59-4.572-6.655c-0.863-0.86-2.055-1.392-3.373-1.392h-3.484c-1.388,0-2.561,0.543-3.419,1.452
	c-2.402,1.027-4.118,3.351-4.543,6.426l-0.32,2.758c-3.625,2.259-6.498,5.612-8.154,9.596c-0.105,0.223-0.204,0.456-0.286,0.71
	c-0.006,0.021-0.013,0.042-0.02,0.063c-0.24,0.649-0.447,1.313-0.621,1.991c-3.239,10.639-9.577,34.848-9.577,41.428
	c0,7.479,6.081,13.561,13.555,13.561c7.353,0,18.976-15.52,22.745-21.201c2.421,2.676,5.918,4.355,9.801,4.355
	c5.678,0,10.529-3.598,12.398-8.633h8.935c1.869,5.035,6.721,8.633,12.398,8.633c3.883,0,7.379-1.685,9.801-4.355
	c3.77,5.688,15.393,21.201,22.744,21.201c7.477,0,13.557-6.081,13.557-13.561C130.609,67.107,124.273,42.902,121.033,32.262z
	 M118.929,31.3l-0.014-0.003c0.139,0.438,0.283,0.91,0.438,1.412c0.381,1.49,0.584,3.05,0.584,4.657
	c0,10.385-8.449,18.833-18.834,18.833c-1.177,0-2.325-0.113-3.438-0.32c-0.656-6.684-6.308-11.92-13.156-11.92
	c-0.344,0-0.686,0.018-1.021,0.043c-0.781-2.065-1.216-4.3-1.216-6.636c0-10.386,8.448-18.834,18.834-18.834
	C109.367,18.532,116.4,23.883,118.929,31.3z M71.288,57.18c0,0.229,0.006,0.457,0.018,0.685h-7.322
	c0.012-0.228,0.018-0.455,0.018-0.685c0-6.337-4.482-11.645-10.442-12.924c0.771-2.155,1.194-4.473,1.194-6.89
	c0-5.512-2.184-10.521-5.725-14.217H86.26c-3.543,3.697-5.727,8.705-5.727,14.217c0,2.417,0.426,4.734,1.193,6.89
	C75.77,45.535,71.288,50.843,71.288,57.18z M93.966,17.493l0.009-0.119c0-3.036,2.489-5.507,5.548-5.507h4.682
	c3.004,0,5.243,2.156,5.702,5.475l0.177,1.521c-2.715-1.322-5.762-2.066-8.979-2.066c-2.541,0-4.975,0.466-7.223,1.312
	L93.966,17.493z M88.688,20.98c-0.538,0.408-1.054,0.843-1.55,1.302H48.146c-0.495-0.459-1.012-0.894-1.549-1.302H88.688z
	 M25.375,17.36c0.461-3.337,2.701-5.493,5.706-5.493h4.681c3.06,0,5.548,2.471,5.548,5.507l0.1,0.737
	c-2.25-0.848-4.686-1.315-7.229-1.315c-3.217,0-6.264,0.744-8.979,2.067L25.375,17.36z M34.18,18.532
	c10.386,0,18.834,8.449,18.834,18.834c0,2.336-0.435,4.57-1.216,6.636c-0.338-0.025-0.678-0.043-1.021-0.043
	c-6.85,0-12.499,5.234-13.156,11.917c-1.117,0.208-2.266,0.323-3.441,0.323c-10.385,0-18.834-8.448-18.834-18.833
	c0-1.608,0.204-3.17,0.584-4.661c0.208-0.679,0.401-1.301,0.58-1.858C19.169,23.665,26.086,18.532,34.18,18.532z M18.231,85.508
	c-6.518,0-11.82-5.303-11.82-11.82c0-5.196,4.111-21.852,7.383-33.605c1.333,10.061,9.963,17.854,20.385,17.854
	c1.155,0,2.286-0.104,3.389-0.289c0.089,2.572,0.915,4.961,2.275,6.957C35.018,72.12,24.085,85.508,18.231,85.508z M50.777,68.665
	c-6.333,0-11.485-5.151-11.485-11.485c0-6.332,5.152-11.485,11.485-11.485s11.485,5.153,11.485,11.485
	C62.262,63.514,57.11,68.665,50.777,68.665z M63.686,60.031c0.094-0.426,0.167-0.859,0.219-1.301h7.477
	c0.054,0.438,0.125,0.875,0.222,1.301H63.686z M84.507,68.665c-6.334,0-11.485-5.151-11.485-11.485
	c0-6.332,5.151-11.485,11.485-11.485c6.332,0,11.482,5.153,11.482,11.485C95.989,63.514,90.839,68.665,84.507,68.665z
	 M117.052,85.508c-5.854,0-16.785-13.388-21.611-20.904c1.359-1.996,2.186-4.385,2.275-6.957c1.104,0.188,2.23,0.289,3.388,0.289
	c10.423,0,19.054-7.793,20.386-17.854c3.27,11.758,7.383,28.409,7.383,33.605C128.875,80.205,123.572,85.508,117.052,85.508z"/>
<path fill="#E18A48" d="M64.718,35.277h-5.206c-0.479,0-0.868,0.389-0.868,0.868v1.604c0,0.479,0.389,0.867,0.868,0.867h5.206
	c0.48,0,0.869-0.388,0.869-0.867v-1.603C65.588,35.666,65.199,35.277,64.718,35.277z"/>
<g>
	<g>
		<g>
			<path fill="#E18A48" d="M190.88,70.479c-19.154,0-34.738-15.586-34.738-34.743c0-19.156,15.584-34.741,34.738-34.741
				c19.156,0,34.742,15.585,34.742,34.741C225.625,54.893,210.039,70.479,190.88,70.479z M190.88,2.912
				c-18.101,0-32.822,14.725-32.822,32.824c0,18.099,14.725,32.825,32.822,32.825c18.102,0,32.824-14.726,32.824-32.825
				C223.707,17.636,208.982,2.912,190.88,2.912z M190.962,48.114c-6.781,0-12.301-5.52-12.301-12.299
				c0-6.782,5.52-12.299,12.301-12.299s12.299,5.518,12.299,12.299C203.259,42.597,197.744,48.114,190.962,48.114z M190.962,25.433
				c-5.726,0-10.383,4.657-10.383,10.382s4.657,10.382,10.383,10.382c5.725,0,10.383-4.657,10.383-10.382
				C201.343,30.091,196.687,25.433,190.962,25.433z"/>
		</g>
	</g>
	<g>
		<path fill="#E18A48" d="M190.723,66.085c-16.646,0-30.188-13.543-30.188-30.188c0-16.647,13.543-30.19,30.188-30.19
			s30.188,13.543,30.188,30.19C220.912,52.542,207.369,66.085,190.723,66.085z M190.723,6.186
			c-16.384,0-29.711,13.327-29.711,29.709c0,16.382,13.327,29.71,29.711,29.71c16.382,0,29.71-13.328,29.71-29.71
			C220.433,19.513,207.105,6.186,190.723,6.186z"/>
	</g>
	<g>
		<path fill="#E18A48" d="M190.982,52.35c-9.215,0-16.711-7.497-16.711-16.712c0-9.214,7.496-16.71,16.711-16.71
			s16.711,7.496,16.711,16.71C207.691,44.853,200.195,52.35,190.982,52.35z M190.982,19.885c-8.688,0-15.752,7.066-15.752,15.753
			c0,8.685,7.064,15.75,15.752,15.75c8.686,0,15.752-7.065,15.752-15.75C206.734,26.952,199.667,19.885,190.982,19.885z"/>
	</g>
	<g>

			<rect x="165.889" y="16.228" transform="matrix(-0.6523 -0.758 0.758 -0.6523 275.9232 159.9944)" fill="#E18A48" width="17.542" height="0.957"/>
	</g>
	<g>

			<rect x="198.14" y="54.401" transform="matrix(-0.6523 -0.758 0.758 -0.6523 300.2724 247.5139)" fill="#E18A48" width="17.541" height="0.961"/>
	</g>
	<g>

			<rect x="206.834" y="38.974" transform="matrix(-0.9921 -0.1258 0.1258 -0.9921 424.692 105.7245)" fill="#E18A48" width="17.7" height="0.959"/>
	</g>
	<g opacity="0.19">
		<path fill="#E18A48" d="M190.962,25.433c-3.137,0-5.951,1.399-7.855,3.605c1.338-0.556,2.805-0.862,4.342-0.862
			c6.266,0,11.342,5.077,11.342,11.342c0,1.33-0.229,2.604-0.65,3.791c1.977-1.893,3.208-4.551,3.208-7.494
			C201.343,30.091,196.687,25.433,190.962,25.433z"/>
	</g>
	<g opacity="0.2">
		<path fill="#E18A48" d="M190.88,70.479c-19.154,0-34.738-15.586-34.738-34.743c0-6.018,1.538-11.683,4.24-16.621
			c-4.266,5.655-6.799,12.693-6.799,20.324c0,18.659,15.125,33.781,33.783,33.781c8.268,0,15.836-2.975,21.707-7.901
			C203.781,68.585,197.548,70.479,190.88,70.479z"/>
	</g>
</g>
<g opacity="0.2">
	<path fill="#E18A48" d="M175.994,86.585c-19.156,0-34.74-15.586-34.74-34.742c0-6.017,1.539-11.682,4.24-16.621
		c-4.266,5.655-6.797,12.693-6.797,20.324c0,18.658,15.125,33.78,33.783,33.78c8.268,0,15.836-2.975,21.707-7.901
		C188.892,84.693,182.66,86.585,175.994,86.585z"/>
</g>
<path fill="#E18A48" d="M205.47,66.24c-1.949,3.972-4.67,7.498-7.977,10.371l-6.129-7.121c-0.408,0.023-0.814,0.041-1.222,0.052
	l6.62,7.694c-5.661,4.641-12.896,7.431-20.771,7.431c-18.099,0-32.824-14.726-32.824-32.824c0-1.375,0.096-2.729,0.26-4.061
	L159.5,49.82c-0.072,0.634-0.119,1.271-0.119,1.923c0,9.218,7.496,16.714,16.711,16.714c1.346,0,2.648-0.17,3.9-0.475
	c-0.543-0.201-1.078-0.426-1.604-0.672c-0.751,0.109-1.515,0.188-2.296,0.188c-8.687,0-15.752-7.066-15.752-15.752
	c0-0.801,0.08-1.578,0.195-2.348c-0.244-0.476-0.479-0.95-0.693-1.428c-0.068,0.299-0.143,0.596-0.195,0.901l-16.096-2.041
	c1.195-7.768,5.127-14.64,10.771-19.613l3.125,3.631c0.06-0.416,0.125-0.829,0.197-1.241l-2.599-3.019
	c1.301-1.08,2.688-2.057,4.146-2.929c0.32-0.938,0.672-1.862,1.051-2.77c-11.26,5.753-18.99,17.462-18.99,30.95
	c0,19.156,15.584,34.742,34.738,34.742c14.432,0,26.832-8.848,32.074-21.398C207.216,65.557,206.348,65.904,205.47,66.24z"/>
<g>
	<path fill="#E18A48" d="M202.07,38.082l0.178-0.676c-3.049-5.494-7.758-9.942-13.447-12.66l-0.694,0.209
		C194.076,27.676,198.998,32.313,202.07,38.082z"/>
	<path fill="#E18A48" d="M200.861,67.982c-5.285,8.248-14.523,13.73-25.025,13.73c-16.385,0-29.711-13.328-29.711-29.711
		c0-9.951,4.924-18.769,12.457-24.163l0.244-0.76c-7.951,5.443-13.18,14.583-13.18,24.925c0,16.646,13.543,30.188,30.188,30.188
		c10.832,0,20.346-5.736,25.672-14.33L200.861,67.982z"/>
</g>
<path fill="#E18A48" d="M180.082,35.791v0.99c5.156,1.303,9.306,5.146,11.027,10.126l0.994-0.071
	C190.302,41.359,185.748,37.134,180.082,35.791z"/>


</svg>
