<?xml version="1.0" encoding="utf-8"?>
<!-- Generator: Adobe Illustrator 15.0.0, SVG Export Plug-In . SVG Version: 6.00 Build 0)  -->
<!DOCTYPE svg PUBLIC "-//W3C//DTD SVG 1.1//EN" "http://www.w3.org/Graphics/SVG/1.1/DTD/svg11.dtd">
<svg version="1.1" id="blog" xmlns="http://www.w3.org/2000/svg" xmlns:xlink="http://www.w3.org/1999/xlink" x="0px" y="0px"
	 width="212.125px" height="127.666px" viewBox="0 0 212.125 127.666" enable-background="new 0 0 212.125 127.666"
	 xml:space="preserve">
<path fill="#E18A48" d="M166.721,16.474l-5.656,20.888v75.607v5.655v5.656h11.313v-5.656v-5.655V37.362L166.721,16.474z
	 M165.41,26.72h2.619l2.852,10.528c-0.502,0.604-0.797,0.684-0.914,0.677c-0.357-0.014-0.775-0.741-1.023-1.176l-0.381-0.664
	l-0.424,0.639c-0.334,0.505-0.959,1.451-1.521,1.412c-0.382-0.023-0.826-0.507-1.265-1.364l-0.36-0.718l-0.447,0.667
	c-0.534,0.796-1.039,1.211-1.412,1.161c-0.235-0.03-0.446-0.244-0.608-0.479L165.41,26.72z M170.963,114.384v2.827h-8.482v-2.827
	H170.963z M165.307,112.972V38.398c0.392,0.427,0.808,0.651,1.254,0.677c0.029,0.002,0.06,0.003,0.088,0.003
	c0.588,0,1.084-0.352,1.486-0.781v74.67L165.307,112.972L165.307,112.972z M162.479,38.64c0.158,0.087,0.334,0.152,0.527,0.177
	c0.445,0.059,0.898-0.102,1.354-0.47v74.625h-1.885V38.64H162.479z M170.963,122.868h-8.482v-4.242h8.482V122.868L170.963,122.868z
	 M169.076,112.972V38.51c0.244,0.203,0.525,0.345,0.855,0.356c0.34,0.015,0.68-0.107,1.026-0.375v74.479h-1.883L169.076,112.972
	L169.076,112.972z"/>
<g opacity="0.2">
	<polygon fill="#E18A48" points="161.064,124.282 161.064,37.362 165.287,21.767 164.363,18.359 158.709,39.245 158.709,126.166
		170.02,126.166 170.02,124.282 	"/>
</g>
<g opacity="0.2">
	<path fill="#E18A48" d="M185.818,124.767c0.44,0,0.709-0.301,0.709-0.74v-2.817l-3.467-6.854c-0.041-0.09-0.236-0.188-0.236-0.289
		c0,0-0.105-29.006-0.105-53.549c0-8.999-0.041-17.397-0.035-23.547c0.006-3.075-0.008-8.886-0.006-9.349
		c0.01-0.842,0.057-1.398,0.76-1.398c0.261,0,1.09,0,1.09-0.002v-5.781c0-1.507,0.937-2.732,2.293-3.185
		c-0.411-0.394-0.989-0.586-1.604-0.586h-0.166c-1.5,0-3.021,1.108-3.053,2.813l0.03,6.609c0,0.002-0.28,0.016-0.469,0.016
		c-1.031,0-1.031,0.968-1.031,0.968v86.056l3.462,7.475l0.538,0.002v3.422C184.527,124.917,185.377,124.767,185.818,124.767z"/>
</g>
<path fill="#E18A48" d="M193.289,26.897c0-0.386-0.229-0.699-0.615-0.699c-0.301,0-0.146,0-1.146,0.001v-5.762
	c0.021-2.313-1.631-3.771-3.518-3.771c0,0-3.484-0.125-3.484,3.771v5.776c0,0.001-0.836,0.002-1.096,0.002
	c-0.703,0-0.731,0.556-0.738,1.398c-0.006,0.463-0.02,1.144-0.022,2.017c-0.008,1.744-0.019,84.432-0.019,84.432
	c0,0.102,0.021,0.196,0.064,0.289l3.395,7.477c0.113,0.249,0.357,0.406,0.634,0.406l0.385,0.002v2.402
	c0,0.6,0.485,1.086,1.086,1.086c0.603,0,1.086-0.486,1.086-1.086v-2.396l0.433,0.001c0.289,0.001,0.531-0.178,0.639-0.445l3-7.574
	c0.031-0.082,0.041-0.172,0.041-0.259L193.289,26.897z M186.527,20.437c0-1.833,1.483-1.771,1.483-1.771
	c1,0,1.517,0.659,1.517,1.771v5.765c-1,0.001-0.885,0.003-1.65,0.004c-0.67,0.003-1.35,0.004-1.35,0.005V20.437L186.527,20.437z
	 M187.783,27.607c1.516-0.003,3.063-0.007,4.115-0.008l0.125,85.317h-5.496v-85.25c0-0.02-0.01-0.037-0.012-0.056
	C186.93,27.609,187.354,27.608,187.783,27.607z M184.068,27.615c0.412,0,0.92-0.002,1.469-0.003c-0.002,0.019-0.01,0.035-0.01,0.054
	v85.25h-1.478C184.049,103.31,184.049,29.622,184.068,27.615z M189.271,120.842l-2.066-0.005l-2.922-6.421h7.512L189.271,120.842z"
	/>
<path fill="#E18A48" d="M210.527,122.506V107.94c0-1.228-0.992-2.217-2.217-2.217h-5.566c-1.225,0-2.217,0.989-2.217,2.217v14.563
	c0,1.228,0.992,2.22,2.217,2.22h5.566C209.535,124.724,210.527,123.729,210.527,122.506z M203.266,107.724h4.521
	c0.407,0,0.737,0.332,0.737,0.738v11.262h-6v-11.262C202.527,108.056,202.859,107.724,203.266,107.724z M203.266,122.724
	c-0.406,0-0.738-0.33-0.738-0.738v-1.262h6v1.262c0,0.408-0.329,0.738-0.737,0.738H203.266z"/>
<g>
	<g opacity="0.2">
		<path fill="#E18A48" d="M200.527,122.076c0,1.224,0.942,2.157,2.166,2.157l6.195,0.058c0,1.021-0.738,1.433-1.427,1.433h-5.481
			c-1.672,0-2.453-1.726-2.453-2.539v-14.037c0-0.688,0-1.263,1-1.426V122.076L200.527,122.076z"/>
	</g>
</g>
<g opacity="0.2">
	<polygon fill="#E18A48" points="4.597,123.5 4.597,9.5 1.597,9.5 1.597,126.166 136.598,125.987 136.598,123.5 	"/>
</g>
<g>
	<path fill="#E18A48" d="M121.598,22.5h-103v-8h103V22.5z M19.597,21.5h101v-6h-101V21.5z"/>
</g>
<g>
	<path fill="#E18A48" d="M39.597,90.5h-21v-8h21V90.5z M19.597,89.5h19v-6h-19V89.5z"/>
</g>
<g>
	<path fill="#E18A48" d="M82.597,90.5h-37v-8h37V90.5z M46.597,89.5h35v-6h-35V89.5z"/>
</g>
<g>
	<path fill="#E18A48" d="M51.597,60.5h-31v-26h31V60.5z M21.597,59.5h29v-24h-29V59.5z"/>
</g>
<g>
	<rect x="61.597" y="34.5" fill="#E18A48" width="34" height="2"/>
</g>
<g>
	<rect x="19.597" y="99.5" fill="#E18A48" width="46" height="2"/>
</g>
<g>
	<rect x="74.597" y="99.5" fill="#E18A48" width="47" height="2"/>
</g>
<g>
	<rect x="74.597" y="104.5" fill="#E18A48" width="32" height="2"/>
</g>
<g>
	<rect x="19.597" y="104.5" fill="#E18A48" width="46" height="2"/>
</g>
<g>
	<rect x="61.597" y="39.5" fill="#E18A48" width="57" height="2"/>
</g>
<g>
	<rect x="61.597" y="44.5" fill="#E18A48" width="52" height="2"/>
</g>
<path fill="#E18A48" d="M153.756,25.5h-15.158v-24h-134v122h134v-0.478L153.756,25.5z M151.236,27.5l-12.639,81.417V27.5H151.236z
	 M136.598,120.5h-130v-48h130V120.5z M136.598,71.5h-130v-68h130V71.5z"/>
<g>
	<path fill="#E18A48" d="M29.452,45.815c-2.194,0-3.979-1.785-3.979-3.979c0-2.193,1.785-3.979,3.979-3.979
		c2.194,0,3.979,1.785,3.979,3.979C33.431,44.03,31.646,45.815,29.452,45.815z M29.452,38.937c-1.599,0-2.9,1.301-2.9,2.899
		c0,1.6,1.301,2.9,2.9,2.9c1.6,0,2.9-1.301,2.9-2.9S31.052,38.937,29.452,38.937z"/>
</g>
<g>
	<polygon fill="#E18A48" points="23.989,60.153 22.612,60.197 29.963,50.302 35.766,55.026 43.83,44.365 51.259,54.764
		50.798,55.977 43.806,46.187 35.952,56.569 30.156,51.852 	"/>
</g>

</svg>
