<?xml version="1.0" encoding="utf-8"?>
<!-- Generator: Adobe Illustrator 15.0.0, SVG Export Plug-In . SVG Version: 6.00 Build 0)  -->
<!DOCTYPE svg PUBLIC "-//W3C//DTD SVG 1.1//EN" "http://www.w3.org/Graphics/SVG/1.1/DTD/svg11.dtd">
<svg version="1.1" id="contacts" xmlns="http://www.w3.org/2000/svg" xmlns:xlink="http://www.w3.org/1999/xlink" x="0px" y="0px"
	 width="293.625px" height="88.625px" viewBox="0 0 293.625 88.625" enable-background="new 0 0 293.625 88.625"
	 xml:space="preserve">
<g>
	<g>
		<g>
			<path fill="#E18A48" d="M188.477,6.38v72.565c0,2.07-1.687,3.756-3.756,3.756H8.265c-2.07,0-3.755-1.686-3.755-3.756V6.381
				c0-2.07,1.685-3.756,3.755-3.756h176.456C186.791,2.626,188.477,4.31,188.477,6.38z M6.152,78.945
				c0,1.166,0.947,2.111,2.112,2.111h176.457c1.166,0,2.111-0.945,2.111-2.111V6.38c0-1.164-0.945-2.111-2.111-2.111L8.264,4.268
				c-1.165,0-2.112,0.949-2.112,2.113V78.945z"/>
		</g>
	</g>
</g>
<g>
	<g>
		<path fill="#E18A48" d="M119.488,68.309v8.664c0,0.441-0.358,0.801-0.801,0.801H59.926c-0.441,0-0.802-0.356-0.802-0.801v-8.664
			c0-0.439,0.359-0.802,0.802-0.802h58.763C119.13,67.507,119.488,67.866,119.488,68.309z M59.926,68.328l0.021,8.645l58.741-0.021
			l-0.021-8.623L59.926,68.328L59.926,68.328z"/>
	</g>
</g>
<g>
	<g>
		<path fill="#E18A48" d="M20.524,68.309v8.664c0,0.441-0.359,0.801-0.801,0.801H11.06c-0.441,0-0.801-0.356-0.801-0.801v-8.664
			c0-0.439,0.358-0.802,0.801-0.802h8.664C20.165,67.507,20.524,67.866,20.524,68.309z M11.06,68.328l0.02,8.645l8.646-0.021
			l-0.021-8.623L11.06,68.328L11.06,68.328z"/>
	</g>
</g>
<g>
	<g>
		<path fill="#E18A48" d="M35.718,56.809v8.668c0,0.439-0.359,0.799-0.801,0.799H11.06c-0.441,0-0.801-0.356-0.801-0.799v-8.668
			c0-0.438,0.358-0.801,0.801-0.801h23.856C35.358,56.008,35.718,56.368,35.718,56.809z M11.06,56.83l0.02,8.646l23.838-0.021
			l-0.02-8.623L11.06,56.83L11.06,56.83z"/>
	</g>
</g>
<g>
	<g>
		<path fill="#E18A48" d="M32.022,68.309v8.664c0,0.441-0.359,0.801-0.801,0.801h-8.664c-0.441,0-0.801-0.356-0.801-0.801v-8.664
			c0-0.439,0.359-0.802,0.801-0.802h8.664C31.663,67.507,32.022,67.866,32.022,68.309z M22.557,68.328l0.021,8.645l8.645-0.021
			l-0.021-8.623L22.557,68.328L22.557,68.328z"/>
	</g>
</g>
<g>
	<g>
		<path fill="#E18A48" d="M47.217,56.809v8.668c0,0.439-0.359,0.799-0.801,0.799h-8.665c-0.441,0-0.801-0.356-0.801-0.799v-8.668
			c0-0.438,0.359-0.801,0.801-0.801h8.665C46.856,56.008,47.217,56.368,47.217,56.809z M37.751,56.83l0.021,8.646l8.646-0.021
			l-0.021-8.623L37.751,56.83L37.751,56.83z"/>
	</g>
</g>
<g>
	<g>
		<path fill="#E18A48" d="M71.854,56.809v8.668c0,0.439-0.365,0.799-0.814,0.799h-9.048c-0.449,0-0.814-0.356-0.814-0.799v-8.668
			c0-0.438,0.365-0.801,0.814-0.801h9.048C71.489,56.008,71.854,56.368,71.854,56.809z M61.992,56.83l0.007,8.646l9.041-0.021
			l-0.007-8.623L61.992,56.83L61.992,56.83z"/>
	</g>
</g>
<g>
	<g>
		<path fill="#E18A48" d="M83.763,56.809v8.668c0,0.439-0.365,0.799-0.814,0.799H73.9c-0.448,0-0.814-0.356-0.814-0.799v-8.668
			c0-0.438,0.366-0.801,0.814-0.801h9.048C83.397,56.008,83.763,56.368,83.763,56.809z M73.9,56.83l0.007,8.646l9.041-0.021
			l-0.007-8.623L73.9,56.83L73.9,56.83z"/>
	</g>
</g>
<g>
	<g>
		<path fill="#E18A48" d="M95.672,56.809v8.668c0,0.439-0.364,0.799-0.814,0.799H85.81c-0.448,0-0.813-0.356-0.813-0.799v-8.668
			c0-0.438,0.365-0.801,0.813-0.801h9.048C95.307,56.008,95.672,56.368,95.672,56.809z M85.809,56.83l0.008,8.646l9.04-0.021
			l-0.007-8.623L85.809,56.83L85.809,56.83z"/>
	</g>
</g>
<g>
	<g>
		<path fill="#E18A48" d="M107.579,56.809v8.668c0,0.439-0.365,0.799-0.813,0.799h-9.049c-0.448,0-0.813-0.356-0.813-0.799v-8.668
			c0-0.438,0.365-0.801,0.813-0.801h9.049C107.214,56.008,107.579,56.368,107.579,56.809z M97.718,56.83l0.008,8.646l9.041-0.021
			l-0.008-8.623L97.718,56.83L97.718,56.83z"/>
	</g>
</g>
<g>
	<g>
		<path fill="#E18A48" d="M119.488,56.809v8.668c0,0.439-0.366,0.799-0.813,0.799h-9.049c-0.449,0-0.813-0.356-0.813-0.799v-8.668
			c0-0.438,0.364-0.801,0.813-0.801h9.049C119.122,56.008,119.488,56.368,119.488,56.809z M109.626,56.83l0.008,8.646l9.041-0.021
			l-0.008-8.623L109.626,56.83L109.626,56.83z"/>
	</g>
</g>
<g>
	<g>
		<path fill="#E18A48" d="M131.397,56.809v8.668c0,0.439-0.366,0.799-0.814,0.799h-9.049c-0.447,0-0.813-0.356-0.813-0.799v-8.668
			c0-0.438,0.363-0.801,0.813-0.801h9.049C131.031,56.008,131.397,56.368,131.397,56.809z M121.534,56.83l0.008,8.646l9.041-0.021
			l-0.008-8.623L121.534,56.83L121.534,56.83z"/>
	</g>
</g>
<g>
	<g>
		<path fill="#E18A48" d="M143.306,56.809v8.668c0,0.439-0.365,0.799-0.814,0.799h-9.049c-0.448,0-0.813-0.356-0.813-0.799v-8.668
			c0-0.438,0.363-0.801,0.813-0.801h9.049C142.94,56.008,143.306,56.368,143.306,56.809z M133.442,56.83l0.008,8.646l9.041-0.021
			l-0.008-8.623L133.442,56.83L133.442,56.83z"/>
	</g>
</g>
<g>
	<g>
		<path fill="#E18A48" d="M155.214,56.809v8.668c0,0.439-0.364,0.799-0.813,0.799h-9.046c-0.448,0-0.813-0.356-0.813-0.799v-8.668
			c0-0.438,0.365-0.801,0.813-0.801h9.046C154.85,56.008,155.214,56.368,155.214,56.809z M145.351,56.83l0.009,8.646l9.041-0.021
			l-0.008-8.623L145.351,56.83L145.351,56.83z"/>
	</g>
</g>
<g>
	<g>
		<path fill="#E18A48" d="M78.426,45.723v8.664c0,0.442-0.365,0.803-0.814,0.803h-9.049c-0.448,0-0.813-0.357-0.813-0.803v-8.664
			c0-0.439,0.365-0.801,0.813-0.801h9.049C78.059,44.922,78.426,45.281,78.426,45.723z M68.561,45.743l0.009,8.644l9.041-0.02
			l-0.009-8.624H68.561z"/>
	</g>
</g>
<g>
	<g>
		<path fill="#E18A48" d="M90.333,45.723v8.664c0,0.442-0.364,0.803-0.813,0.803h-9.049c-0.448,0-0.813-0.357-0.813-0.803v-8.664
			c0-0.439,0.365-0.801,0.813-0.801h9.049C89.969,44.922,90.333,45.281,90.333,45.723z M80.471,45.743l0.006,8.644l9.042-0.02
			l-0.007-8.624H80.471z"/>
	</g>
</g>
<g>
	<g>
		<path fill="#E18A48" d="M102.241,45.723v8.664c0,0.442-0.365,0.803-0.813,0.803H92.38c-0.448,0-0.813-0.357-0.813-0.803v-8.664
			c0-0.439,0.365-0.801,0.813-0.801h9.05C101.876,44.922,102.241,45.281,102.241,45.723z M92.379,45.743l0.009,8.644l9.041-0.02
			l-0.008-8.624H92.379z"/>
	</g>
</g>
<g>
	<g>
		<path fill="#E18A48" d="M114.15,45.723v8.664c0,0.442-0.366,0.803-0.813,0.803h-9.05c-0.448,0-0.813-0.357-0.813-0.803v-8.664
			c0-0.439,0.365-0.801,0.813-0.801h9.05C113.784,44.922,114.15,45.281,114.15,45.723z M104.287,45.743l0.009,8.644l9.041-0.02
			l-0.008-8.624H104.287z"/>
	</g>
</g>
<g>
	<g>
		<path fill="#E18A48" d="M126.058,45.723v8.664c0,0.442-0.364,0.803-0.813,0.803h-9.048c-0.449,0-0.814-0.357-0.814-0.803v-8.664
			c0-0.439,0.365-0.801,0.814-0.801h9.048C125.693,44.922,126.058,45.281,126.058,45.723z M116.196,45.743l0.008,8.644l9.04-0.02
			l-0.007-8.624H116.196z"/>
	</g>
</g>
<g>
	<g>
		<path fill="#E18A48" d="M137.968,45.723v8.664c0,0.442-0.367,0.803-0.813,0.803h-9.049c-0.449,0-0.813-0.357-0.813-0.803v-8.664
			c0-0.439,0.364-0.801,0.813-0.801h9.049C137.601,44.922,137.968,45.281,137.968,45.723z M128.104,45.743l0.008,8.644l9.041-0.02
			l-0.008-8.624H128.104z"/>
	</g>
</g>
<g>
	<g>
		<path fill="#E18A48" d="M149.876,45.723v8.664c0,0.442-0.364,0.803-0.813,0.803h-9.048c-0.447,0-0.813-0.357-0.813-0.803v-8.664
			c0-0.439,0.364-0.801,0.813-0.801h9.048C149.512,44.922,149.876,45.281,149.876,45.723z M140.013,45.743l0.008,8.644l9.04-0.02
			l-0.006-8.624H140.013z"/>
	</g>
</g>
<g>
	<g>
		<path fill="#E18A48" d="M161.783,45.723v8.664c0,0.442-0.364,0.803-0.813,0.803h-9.049c-0.447,0-0.813-0.357-0.813-0.803v-8.664
			c0-0.439,0.365-0.801,0.813-0.801h9.049C161.419,44.922,161.783,45.281,161.783,45.723z M151.923,45.743l0.009,8.644l9.039-0.02
			l-0.007-8.624H151.923z"/>
	</g>
</g>
<g>
	<g>
		<path fill="#E18A48" d="M182.314,45.723v8.664c0,0.442-0.364,0.803-0.813,0.803H163.83c-0.448,0-0.813-0.357-0.813-0.803v-8.664
			c0-0.439,0.363-0.801,0.813-0.801h17.671C181.95,44.922,182.314,45.281,182.314,45.723z M163.83,45.743l0.009,8.644l17.662-0.02
			l-0.007-8.624H163.83z"/>
	</g>
</g>
<g>
	<g>
		<path fill="#E18A48" d="M98.956,34.635V43.3c0,0.441-0.365,0.8-0.813,0.8h-9.05c-0.447,0-0.813-0.357-0.813-0.8v-8.665
			c0-0.441,0.365-0.801,0.813-0.801h9.05C98.591,33.834,98.956,34.193,98.956,34.635z M89.094,34.656l0.006,8.645l9.042-0.021
			l-0.008-8.623L89.094,34.656L89.094,34.656z"/>
	</g>
</g>
<g>
	<g>
		<path fill="#E18A48" d="M110.864,34.634V43.3c0,0.441-0.365,0.8-0.814,0.8h-9.047c-0.449,0-0.813-0.357-0.813-0.8v-8.665
			c0-0.441,0.364-0.801,0.813-0.801h9.047C110.499,33.833,110.864,34.193,110.864,34.634z M101.003,34.656l0.008,8.645l9.039-0.021
			l-0.006-8.623L101.003,34.656L101.003,34.656z"/>
	</g>
</g>
<g>
	<g>
		<path fill="#E18A48" d="M122.772,34.634V43.3c0,0.441-0.364,0.8-0.813,0.8h-9.05c-0.448,0-0.813-0.358-0.813-0.8v-8.666
			c0-0.441,0.365-0.801,0.813-0.801h9.049C122.408,33.833,122.772,34.193,122.772,34.634z M112.911,34.656l0.008,8.645l9.041-0.021
			l-0.008-8.623L112.911,34.656L112.911,34.656z"/>
	</g>
</g>
<g>
	<g>
		<path fill="#E18A48" d="M134.681,34.634V43.3c0,0.441-0.364,0.8-0.813,0.8h-9.049c-0.448,0-0.813-0.358-0.813-0.8v-8.666
			c0-0.441,0.364-0.801,0.813-0.801h9.049C134.316,33.833,134.681,34.193,134.681,34.634z M124.819,34.656l0.008,8.645l9.041-0.021
			l-0.008-8.623L124.819,34.656L124.819,34.656z"/>
	</g>
</g>
<g>
	<g>
		<path fill="#E18A48" d="M146.591,34.634V43.3c0,0.441-0.365,0.8-0.813,0.8h-9.049c-0.448,0-0.813-0.358-0.813-0.8v-8.666
			c0-0.441,0.364-0.801,0.813-0.801h9.049C146.226,33.833,146.591,34.193,146.591,34.634z M136.728,34.656l0.008,8.645l9.041-0.021
			l-0.008-8.623L136.728,34.656L136.728,34.656z"/>
	</g>
</g>
<g>
	<g>
		<path fill="#E18A48" d="M158.499,34.634V43.3c0,0.441-0.365,0.8-0.813,0.8h-9.049c-0.447,0-0.813-0.358-0.813-0.8v-8.666
			c0-0.441,0.364-0.801,0.813-0.801h9.049C158.134,33.833,158.499,34.193,158.499,34.634z M148.637,34.656l0.008,8.645l9.041-0.021
			l-0.008-8.623L148.637,34.656L148.637,34.656z"/>
	</g>
</g>
<g>
	<g>
		<path fill="#E18A48" d="M170.407,34.634V43.3c0,0.441-0.365,0.8-0.813,0.8h-9.051c-0.447,0-0.813-0.358-0.813-0.8v-8.666
			c0-0.441,0.365-0.801,0.813-0.801h9.051C170.042,33.833,170.407,34.193,170.407,34.634z M160.544,34.656l0.009,8.645l9.043-0.021
			l-0.009-8.623L160.544,34.656L160.544,34.656z"/>
	</g>
</g>
<g>
	<g>
		<path fill="#E18A48" d="M182.314,34.634V43.3c0,0.441-0.364,0.8-0.813,0.8h-9.047c-0.449,0-0.813-0.358-0.813-0.8v-8.666
			c0-0.441,0.364-0.801,0.813-0.801h9.047C181.95,33.833,182.314,34.193,182.314,34.634z M172.454,34.656l0.008,8.645l9.039-0.021
			l-0.007-8.623L172.454,34.656L172.454,34.656z"/>
	</g>
</g>
<g>
	<g>
		<path fill="#E18A48" d="M39.414,34.635V43.3c0,0.441-0.365,0.8-0.814,0.8h-9.048c-0.449,0-0.814-0.357-0.814-0.8v-8.665
			c0-0.441,0.365-0.801,0.814-0.801H38.6C39.049,33.834,39.414,34.193,39.414,34.635z M29.552,34.656l0.007,8.645L38.6,43.28
			l-0.007-8.623L29.552,34.656L29.552,34.656z"/>
	</g>
</g>
<g>
	<g>
		<path fill="#E18A48" d="M27.505,34.635V43.3c0,0.441-0.365,0.8-0.813,0.8H11.073c-0.449,0-0.814-0.357-0.814-0.799v-8.666
			c0-0.441,0.365-0.801,0.814-0.801h15.618C27.139,33.834,27.505,34.193,27.505,34.635z M11.073,34.656l0.006,8.644l15.612-0.021
			l-0.007-8.623H11.073z"/>
	</g>
</g>
<g>
	<g>
		<path fill="#E18A48" d="M29.968,45.723v8.664c0,0.442-0.364,0.803-0.813,0.803H11.073c-0.449,0-0.813-0.357-0.813-0.803v-8.664
			c0-0.439,0.365-0.801,0.814-0.801h18.082C29.604,44.922,29.968,45.281,29.968,45.723z M11.073,45.743l0.006,8.644l18.076-0.02
			l-0.008-8.624H11.073z"/>
	</g>
</g>
<g>
	<g>
		<path fill="#E18A48" d="M51.322,34.635V43.3c0,0.441-0.365,0.8-0.813,0.8H41.46c-0.449,0-0.814-0.357-0.814-0.8v-8.665
			c0-0.441,0.365-0.801,0.814-0.801h9.049C50.957,33.834,51.322,34.193,51.322,34.635z M41.46,34.656l0.008,8.645l9.042-0.021
			l-0.008-8.623L41.46,34.656L41.46,34.656z"/>
	</g>
</g>
<g>
	<g>
		<path fill="#E18A48" d="M63.231,34.635V43.3c0,0.441-0.366,0.8-0.813,0.8h-9.05c-0.448,0-0.813-0.357-0.813-0.8v-8.665
			c0-0.441,0.365-0.801,0.813-0.801h9.05C62.865,33.834,63.231,34.193,63.231,34.635z M53.368,34.656l0.009,8.645l9.041-0.021
			l-0.009-8.623L53.368,34.656L53.368,34.656z"/>
	</g>
</g>
<g>
	<g>
		<path fill="#E18A48" d="M42.699,45.723v8.664c0,0.442-0.366,0.803-0.815,0.803h-9.047c-0.449,0-0.814-0.357-0.814-0.803v-8.664
			c0-0.439,0.365-0.801,0.814-0.801h9.047C42.333,44.922,42.699,45.281,42.699,45.723z M32.837,45.743l0.007,8.644l9.04-0.02
			l-0.006-8.624H32.837z"/>
	</g>
</g>
<g>
	<g>
		<path fill="#E18A48" d="M54.607,45.723v8.664c0,0.442-0.365,0.803-0.814,0.803h-9.048c-0.448,0-0.813-0.357-0.813-0.803v-8.664
			c0-0.439,0.365-0.801,0.813-0.801h9.048C54.242,44.922,54.607,45.281,54.607,45.723z M44.745,45.743l0.009,8.644l9.039-0.02
			l-0.007-8.624H44.745z"/>
	</g>
</g>
<g>
	<g>
		<path fill="#E18A48" d="M66.516,45.723v8.664c0,0.442-0.364,0.803-0.813,0.803h-9.049c-0.448,0-0.813-0.357-0.813-0.803v-8.664
			c0-0.439,0.365-0.801,0.813-0.801h9.049C66.151,44.922,66.516,45.281,66.516,45.723z M56.653,45.743l0.008,8.644l9.041-0.02
			l-0.008-8.624H56.653z"/>
	</g>
</g>
<g>
	<g>
		<path fill="#E18A48" d="M75.139,34.635V43.3c0,0.441-0.364,0.8-0.813,0.8h-9.048c-0.449,0-0.814-0.357-0.814-0.8v-8.665
			c0-0.441,0.365-0.801,0.814-0.801h9.048C74.774,33.834,75.139,34.193,75.139,34.635z M65.277,34.656l0.007,8.644l9.041-0.021
			l-0.008-8.623H65.277z"/>
	</g>
</g>
<g>
	<g>
		<path fill="#E18A48" d="M87.049,34.635V43.3c0,0.441-0.365,0.8-0.814,0.8h-9.047c-0.449,0-0.815-0.357-0.815-0.8v-8.665
			c0-0.441,0.366-0.801,0.815-0.801h9.047C86.682,33.834,87.049,34.193,87.049,34.635z M77.186,34.656l0.007,8.645l9.041-0.021
			l-0.007-8.623L77.186,34.656L77.186,34.656z"/>
	</g>
</g>
<g>
	<g>
		<path fill="#E18A48" d="M80.067,23.547v8.666c0,0.441-0.365,0.801-0.813,0.801h-9.05c-0.448,0-0.813-0.358-0.813-0.801v-8.666
			c0-0.44,0.365-0.799,0.813-0.799h9.05C79.702,22.748,80.067,23.105,80.067,23.547z M70.204,23.568l0.009,8.645l9.041-0.021
			l-0.009-8.623L70.204,23.568L70.204,23.568z"/>
	</g>
</g>
<g>
	<g>
		<path fill="#E18A48" d="M91.975,23.547v8.666c0,0.441-0.364,0.801-0.813,0.801h-9.048c-0.449,0-0.814-0.358-0.814-0.801v-8.666
			c0-0.44,0.365-0.799,0.814-0.799h9.048C91.61,22.748,91.975,23.105,91.975,23.547z M82.113,23.568l0.007,8.645l9.041-0.021
			l-0.007-8.623L82.113,23.568L82.113,23.568z"/>
	</g>
</g>
<g>
	<g>
		<path fill="#E18A48" d="M103.884,23.547v8.666c0,0.441-0.365,0.801-0.813,0.801h-9.048c-0.448,0-0.813-0.358-0.813-0.801v-8.666
			c0-0.44,0.365-0.799,0.813-0.799h9.048C103.519,22.748,103.884,23.105,103.884,23.547z M94.021,23.568l0.008,8.645l9.04-0.021
			l-0.006-8.623L94.021,23.568L94.021,23.568z"/>
	</g>
</g>
<g>
	<g>
		<path fill="#E18A48" d="M115.792,23.547v8.666c0,0.441-0.365,0.801-0.813,0.801h-9.048c-0.448,0-0.813-0.358-0.813-0.801v-8.666
			c0-0.44,0.365-0.799,0.813-0.799h9.048C115.427,22.748,115.792,23.105,115.792,23.547z M105.931,23.568l0.008,8.644l9.039-0.021
			l-0.008-8.623H105.931L105.931,23.568z"/>
	</g>
</g>
<g>
	<g>
		<path fill="#E18A48" d="M127.7,23.547v8.666c0,0.441-0.363,0.801-0.813,0.801h-9.049c-0.449,0-0.813-0.358-0.813-0.801v-8.666
			c0-0.44,0.363-0.799,0.813-0.799h9.049C127.337,22.748,127.7,23.105,127.7,23.547z M117.839,23.568l0.008,8.644l9.041-0.021
			l-0.008-8.623H117.839L117.839,23.568z"/>
	</g>
</g>
<g>
	<g>
		<path fill="#E18A48" d="M139.609,23.547v8.666c0,0.441-0.365,0.801-0.813,0.801h-9.049c-0.447,0-0.813-0.358-0.813-0.801v-8.666
			c0-0.44,0.365-0.799,0.813-0.799h9.049C139.244,22.748,139.609,23.105,139.609,23.547z M129.747,23.568l0.008,8.644l9.041-0.021
			l-0.008-8.623H129.747L129.747,23.568z"/>
	</g>
</g>
<g>
	<g>
		<path fill="#E18A48" d="M151.52,23.546v8.666c0,0.441-0.367,0.801-0.813,0.801h-9.049c-0.448,0-0.813-0.358-0.813-0.801v-8.666
			c0-0.44,0.363-0.799,0.813-0.799h9.049C151.152,22.748,151.52,23.105,151.52,23.546z M141.655,23.568l0.008,8.644l9.041-0.021
			l-0.009-8.623H141.655L141.655,23.568z"/>
	</g>
</g>
<g>
	<g>
		<path fill="#E18A48" d="M163.428,23.546v8.666c0,0.441-0.365,0.801-0.813,0.801h-9.05c-0.445,0-0.813-0.358-0.813-0.801v-8.666
			c0-0.44,0.365-0.799,0.813-0.799h9.05C163.063,22.748,163.428,23.105,163.428,23.546z M153.563,23.568l0.008,8.645l9.041-0.021
			l-0.006-8.623L153.563,23.568L153.563,23.568z"/>
	</g>
</g>
<g>
	<g>
		<path fill="#E18A48" d="M182.314,23.546v8.666c0,0.441-0.364,0.801-0.813,0.801h-16.026c-0.449,0-0.813-0.358-0.813-0.801v-8.666
			c0-0.44,0.363-0.799,0.813-0.799h16.026C181.95,22.748,182.314,23.105,182.314,23.546z M165.473,23.568l0.008,8.645l16.021-0.021
			l-0.007-8.623L165.473,23.568L165.473,23.568z"/>
	</g>
</g>
<g>
	<g>
		<path fill="#E18A48" d="M20.524,23.547v8.666c0,0.441-0.365,0.801-0.814,0.801h-8.637c-0.449,0-0.814-0.358-0.814-0.801v-8.666
			c0-0.44,0.365-0.799,0.814-0.799h8.637C20.159,22.748,20.524,23.105,20.524,23.547z M11.073,23.568l0.006,8.645l8.631-0.021
			l-0.006-8.623L11.073,23.568L11.073,23.568z"/>
	</g>
</g>
<g>
	<g>
		<path fill="#E18A48" d="M32.432,23.547v8.666c0,0.441-0.365,0.801-0.813,0.801h-9.048c-0.449,0-0.814-0.358-0.814-0.801v-8.666
			c0-0.44,0.365-0.799,0.814-0.799h9.048C32.067,22.748,32.432,23.105,32.432,23.547z M22.571,23.568l0.007,8.645l9.041-0.021
			l-0.007-8.623L22.571,23.568L22.571,23.568z"/>
	</g>
</g>
<g>
	<g>
		<path fill="#E18A48" d="M44.342,23.547v8.666c0,0.441-0.365,0.801-0.813,0.801H34.48c-0.449,0-0.814-0.358-0.814-0.801v-8.666
			c0-0.44,0.365-0.799,0.814-0.799h9.048C43.977,22.748,44.342,23.105,44.342,23.547z M34.479,23.568l0.007,8.645l9.041-0.021
			l-0.007-8.623L34.479,23.568L34.479,23.568z"/>
	</g>
</g>
<g>
	<g>
		<path fill="#E18A48" d="M56.25,23.547v8.666c0,0.441-0.365,0.801-0.813,0.801h-9.049c-0.449,0-0.814-0.358-0.814-0.801v-8.666
			c0-0.44,0.365-0.799,0.814-0.799h9.049C55.885,22.748,56.25,23.105,56.25,23.547z M46.387,23.568l0.008,8.645l9.041-0.021
			l-0.008-8.623L46.387,23.568L46.387,23.568z"/>
	</g>
</g>
<g>
	<g>
		<path fill="#E18A48" d="M68.159,23.547v8.666c0,0.441-0.366,0.801-0.813,0.801h-9.049c-0.449,0-0.814-0.358-0.814-0.801v-8.666
			c0-0.44,0.365-0.799,0.814-0.799h9.049C67.793,22.748,68.159,23.105,68.159,23.547z M58.297,23.568l0.008,8.645l9.041-0.021
			l-0.008-8.623L58.297,23.568L58.297,23.568z"/>
	</g>
</g>
<g>
	<g>
		<path fill="#E18A48" d="M20.935,16.566v4.148c0,0.44-0.365,0.801-0.814,0.801h-9.048c-0.449,0-0.814-0.359-0.814-0.801v-4.148
			c0-0.441,0.365-0.801,0.814-0.801h9.048C20.57,15.766,20.935,16.125,20.935,16.566z M11.073,16.588l0.006,4.127l9.042-0.02
			l-0.007-4.107H11.073z"/>
	</g>
</g>
<g>
	<g>
		<path fill="#E18A48" d="M33.255,16.566v4.148c0,0.44-0.365,0.801-0.814,0.801h-9.459c-0.449,0-0.814-0.359-0.814-0.801v-4.148
			c0-0.441,0.365-0.801,0.814-0.801h9.459C32.889,15.766,33.255,16.125,33.255,16.566z M22.981,16.588l0.007,4.127l9.452-0.02
			l-0.008-4.107H22.981z"/>
	</g>
</g>
<g>
	<g>
		<path fill="#E18A48" d="M45.573,16.566v4.148c0,0.44-0.365,0.801-0.813,0.801h-9.458c-0.449,0-0.814-0.359-0.814-0.801v-4.148
			c0-0.441,0.365-0.801,0.814-0.801h9.458C45.208,15.766,45.573,16.125,45.573,16.566z M35.301,16.588l0.007,4.127l9.452-0.02
			l-0.006-4.107H35.301z"/>
	</g>
</g>
<g>
	<g>
		<path fill="#E18A48" d="M57.893,16.566v4.148c0,0.44-0.365,0.801-0.814,0.801H47.62c-0.448,0-0.813-0.359-0.813-0.801v-4.148
			c0-0.441,0.365-0.801,0.813-0.801h9.458C57.527,15.766,57.893,16.125,57.893,16.566z M47.62,16.588l0.007,4.127l9.451-0.02
			l-0.007-4.107H47.62z"/>
	</g>
</g>
<g>
	<g>
		<path fill="#E18A48" d="M70.213,16.566v4.148c0,0.44-0.365,0.801-0.814,0.801H59.94c-0.449,0-0.814-0.359-0.814-0.801v-4.148
			c0-0.441,0.365-0.801,0.814-0.801h9.459C69.846,15.766,70.213,16.125,70.213,16.566z M59.938,16.588l0.008,4.127l9.451-0.02
			l-0.007-4.107H59.938z"/>
	</g>
</g>
<g>
	<g>
		<path fill="#E18A48" d="M82.53,16.566v4.148c0,0.44-0.365,0.801-0.813,0.801h-9.459c-0.447,0-0.813-0.359-0.813-0.801v-4.148
			c0-0.441,0.366-0.801,0.813-0.801h9.459C82.165,15.766,82.53,16.125,82.53,16.566z M72.258,16.588l0.006,4.127l9.453-0.02
			l-0.008-4.107H72.258z"/>
	</g>
</g>
<g>
	<g>
		<path fill="#E18A48" d="M94.85,16.566v4.148c0,0.44-0.364,0.801-0.813,0.801h-9.459c-0.448,0-0.813-0.359-0.813-0.801v-4.148
			c0-0.441,0.365-0.801,0.813-0.801h9.459C94.485,15.766,94.85,16.125,94.85,16.566z M84.577,16.588l0.009,4.127l9.45-0.02
			l-0.008-4.107H84.577z"/>
	</g>
</g>
<g>
	<g>
		<path fill="#E18A48" d="M107.169,16.566v4.148c0,0.44-0.365,0.801-0.813,0.801h-9.46c-0.447,0-0.813-0.359-0.813-0.801v-4.148
			c0-0.441,0.365-0.801,0.813-0.801h9.46C106.804,15.766,107.169,16.125,107.169,16.566z M96.896,16.588l0.008,4.127l9.452-0.02
			l-0.007-4.107H96.896z"/>
	</g>
</g>
<g>
	<g>
		<path fill="#E18A48" d="M119.488,16.566v4.148c0,0.44-0.366,0.801-0.813,0.801h-9.459c-0.449,0-0.813-0.359-0.813-0.801v-4.148
			c0-0.441,0.364-0.801,0.813-0.801h9.459C119.122,15.766,119.488,16.125,119.488,16.566z M109.216,16.588l0.008,4.127l9.451-0.02
			l-0.008-4.107H109.216z"/>
	</g>
</g>
<g>
	<g>
		<path fill="#E18A48" d="M131.808,16.566v4.148c0,0.44-0.365,0.801-0.814,0.801h-9.459c-0.447,0-0.813-0.359-0.813-0.801v-4.148
			c0-0.441,0.363-0.801,0.813-0.801h9.459C131.442,15.766,131.808,16.125,131.808,16.566z M121.534,16.588l0.008,4.127l9.451-0.02
			l-0.007-4.107H121.534z"/>
	</g>
</g>
<g>
	<g>
		<path fill="#E18A48" d="M144.126,16.566v4.148c0,0.44-0.365,0.801-0.813,0.801h-9.461c-0.446,0-0.813-0.359-0.813-0.801v-4.148
			c0-0.441,0.365-0.801,0.813-0.801h9.461C143.761,15.766,144.126,16.125,144.126,16.566z M133.853,16.588l0.009,4.127l9.451-0.02
			l-0.007-4.107H133.853z"/>
	</g>
</g>
<g>
	<g>
		<path fill="#E18A48" d="M156.445,16.566v4.148c0,0.44-0.365,0.801-0.813,0.801h-9.459c-0.449,0-0.813-0.359-0.813-0.801v-4.148
			c0-0.441,0.363-0.801,0.813-0.801h9.459C156.08,15.765,156.445,16.125,156.445,16.566z M146.173,16.588l0.008,4.127l9.451-0.02
			l-0.008-4.107H146.173z"/>
	</g>
</g>
<g>
	<g>
		<path fill="#E18A48" d="M168.766,16.566v4.148c0,0.44-0.365,0.801-0.813,0.801h-9.459c-0.447,0-0.813-0.359-0.813-0.801v-4.148
			c0-0.441,0.362-0.801,0.813-0.801h9.459C168.398,15.765,168.766,16.125,168.766,16.566z M158.491,16.587l0.008,4.127l9.451-0.02
			l-0.007-4.107H158.491z"/>
	</g>
</g>
<g>
	<g>
		<path fill="#E18A48" d="M182.314,16.566v4.148c0,0.44-0.364,0.801-0.813,0.801h-10.688c-0.449,0-0.813-0.359-0.813-0.801v-4.148
			c0-0.441,0.363-0.801,0.813-0.801h10.688C181.95,15.765,182.314,16.125,182.314,16.566z M170.811,16.587l0.01,4.127l10.683-0.02
			l-0.007-4.107H170.811z"/>
	</g>
</g>
<g>
	<g>
		<path fill="#E18A48" d="M182.314,56.809v8.668c0,0.439-0.364,0.799-0.813,0.799h-24.239c-0.449,0-0.813-0.356-0.813-0.799v-8.668
			c0-0.438,0.364-0.801,0.813-0.801h24.239C181.95,56.008,182.314,56.368,182.314,56.809z M157.262,56.83l0.008,8.646l24.231-0.021
			l-0.007-8.623L157.262,56.83L157.262,56.83z"/>
	</g>
</g>
<g>
	<g>
		<path fill="#E18A48" d="M59.946,56.809v8.668c0,0.439-0.358,0.799-0.801,0.799h-9.897c-0.441,0-0.801-0.356-0.801-0.799v-8.668
			c0-0.438,0.359-0.801,0.801-0.801h9.897C59.588,56.008,59.946,56.368,59.946,56.809z M49.248,56.83l0.021,8.646l9.877-0.021
			l-0.021-8.623L49.248,56.83L49.248,56.83z"/>
	</g>
</g>
<g>
	<g>
		<path fill="#E18A48" d="M43.93,68.309v8.664c0,0.441-0.358,0.801-0.799,0.801h-9.077c-0.441,0-0.8-0.356-0.8-0.801v-8.664
			c0-0.439,0.358-0.802,0.8-0.802h9.077C43.571,67.507,43.93,67.866,43.93,68.309z M34.054,68.328l0.021,8.645l9.056-0.021
			l-0.021-8.623L34.054,68.328L34.054,68.328z"/>
	</g>
</g>
<g>
	<g>
		<path fill="#E18A48" d="M57.893,68.309v8.664c0,0.441-0.359,0.801-0.801,0.801H45.963c-0.44,0-0.802-0.356-0.802-0.801v-8.664
			c0-0.439,0.36-0.802,0.802-0.802h11.129C57.533,67.507,57.893,67.866,57.893,68.309z M45.963,68.328l0.021,8.645l11.109-0.021
			l-0.021-8.623L45.963,68.328L45.963,68.328z"/>
	</g>
</g>
<g>
	<g>
		<path fill="#E18A48" d="M145.358,68.309v8.664c0,0.441-0.359,0.801-0.801,0.801h-9.075c-0.442,0-0.802-0.356-0.802-0.801v-8.664
			c0-0.439,0.358-0.802,0.802-0.802h9.075C144.999,67.507,145.358,67.866,145.358,68.309z M135.482,68.328l0.021,8.645l9.055-0.021
			l-0.021-8.623L135.482,68.328L135.482,68.328z"/>
	</g>
</g>
<g>
	<g>
		<path fill="#E18A48" d="M170.407,68.309v8.664c0,0.441-0.357,0.801-0.802,0.801h-9.074c-0.442,0-0.801-0.356-0.801-0.801v-8.664
			c0-0.439,0.356-0.802,0.801-0.802h9.074C170.05,67.507,170.407,67.866,170.407,68.309z M160.531,68.328l0.021,8.645l9.056-0.021
			l-0.021-8.623L160.531,68.328L160.531,68.328z"/>
	</g>
</g>
<g>
	<g>
		<path fill="#E18A48" d="M158.499,73.236v3.733c0,0.442-0.358,0.804-0.802,0.804h-9.075c-0.44,0-0.8-0.358-0.8-0.804v-3.733
			c0-0.442,0.357-0.803,0.8-0.803h9.075C158.141,72.436,158.499,72.793,158.499,73.236z M148.622,73.256l0.021,3.717l9.056-0.021
			l-0.021-3.695L148.622,73.256L148.622,73.256z"/>
	</g>
</g>
<g>
	<g>
		<path fill="#E18A48" d="M182.314,73.236v3.733c0,0.442-0.358,0.804-0.801,0.804h-9.074c-0.441,0-0.801-0.358-0.801-0.804v-3.733
			c0-0.442,0.356-0.803,0.801-0.803h9.074C181.956,72.436,182.314,72.793,182.314,73.236z M172.439,73.256l0.021,3.717l9.058-0.021
			l-0.021-3.695L172.439,73.256L172.439,73.256z"/>
	</g>
</g>
<g>
	<g>
		<path fill="#E18A48" d="M133.45,68.309v8.664c0,0.441-0.359,0.801-0.801,0.801H121.52c-0.441,0-0.801-0.356-0.801-0.801v-8.664
			c0-0.439,0.358-0.802,0.801-0.802h11.129C133.091,67.507,133.45,67.866,133.45,68.309z M121.521,68.328l0.021,8.645l11.108-0.021
			l-0.021-8.623L121.521,68.328L121.521,68.328z"/>
	</g>
</g>
<g opacity="0.2">
	<g>
		<path fill="#E18A48" d="M4.986,78.945V6.554C3.552,7.082,2.522,8.46,2.522,10.076v71.457c0,2.5,2.771,3.863,4.841,3.863h174.638
			c2.071,0,4.167-0.48,4.487-2.754v-0.466c-0.403,0.148-0.971,0.459-1.424,0.459L8.742,82.701
			C6.672,82.701,4.986,81.018,4.986,78.945L4.986,78.945z"/>
	</g>
</g>
<g>
	<g>
		<path fill="#E18A48" d="M195.966,47.033"/>
	</g>
</g>
<g>
	<g>
		<path fill="#E18A48" d="M196.175,47.064"/>
	</g>
</g>
<g>
	<g>
		<path fill="#E18A48" d="M197.625,3.125v0.187v58.813h92V3.312V3.125H197.625z M287.625,60.125h-88v-54l44.5,27.992l43.5-27.516
			V60.125z M244.111,32.339L200.657,5.125h86.909L244.111,32.339z"/>
	</g>
</g>
<g>
	<g>
		<path fill="#E18A48" d="M221.625,54.125h-14v-13h14V54.125z M208.625,53.125h12v-11h-12V53.125z"/>
	</g>
</g>
<g>
	<g>
		<line fill="none" x1="254.625" y1="42.125" x2="226.625" y2="42.125"/>
		<rect x="226.625" y="41.125" fill="#E18A48" width="28" height="1"/>
	</g>
</g>
<g>
	<g>
		<line fill="none" x1="243.625" y1="45.125" x2="226.625" y2="45.125"/>
		<rect x="226.625" y="44.125" fill="#E18A48" width="17" height="1"/>
	</g>
</g>
<g>
	<g>
		<rect x="226.625" y="47.125" fill="#E18A48" width="19" height="1"/>
	</g>
</g>
<g>
	<g>
		<polygon opacity="0.2" fill="#E18A48" enable-background="new    " points="197.625,62.125 197.625,8.125 195.625,8.125
			195.625,64.125 285.625,64.125 285.625,62.125 		"/>
	</g>
</g>

</svg>
