<?xml version="1.0" encoding="utf-8"?>
<!-- Generator: Adobe Illustrator 15.0.0, SVG Export Plug-In . SVG Version: 6.00 Build 0)  -->
<!DOCTYPE svg PUBLIC "-//W3C//DTD SVG 1.1//EN" "http://www.w3.org/Graphics/SVG/1.1/DTD/svg11.dtd">
<svg version="1.1" id="contacts" xmlns="http://www.w3.org/2000/svg" xmlns:xlink="http://www.w3.org/1999/xlink" x="0px" y="0px"
	 width="84.25px" height="187.25px" viewBox="0 0 84.25 187.25" enable-background="new 0 0 84.25 187.25" xml:space="preserve">
<g>
	<g>
		<path fill="#E18A48" d="M79.109,185.111H6.544c-2.071,0-3.755-1.686-3.755-3.756V4.9c0-2.07,1.684-3.755,3.755-3.755h72.565
			c2.07,0,3.756,1.685,3.756,3.755v176.456C82.863,183.427,81.18,185.111,79.109,185.111z M6.544,2.788
			c-1.165,0-2.112,0.947-2.112,2.112v176.456c0,1.166,0.947,2.112,2.112,2.112h72.565c1.164,0,2.111-0.946,2.111-2.112L81.223,4.9
			c0-1.165-0.949-2.112-2.113-2.112H6.544z"/>
	</g>
</g>
<g>
	<path fill="#E18A48" d="M17.182,116.124H8.518c-0.442,0-0.801-0.358-0.801-0.801V56.561c0-0.441,0.358-0.801,0.801-0.801h8.664
		c0.441,0,0.801,0.359,0.801,0.801v58.763C17.983,115.766,17.624,116.124,17.182,116.124z M17.162,56.561l-8.644,0.021l0.021,58.741
		l8.623-0.021V56.561z"/>
</g>
<g>
	<path fill="#E18A48" d="M17.182,17.16H8.518c-0.442,0-0.801-0.359-0.801-0.801V7.695c0-0.441,0.358-0.801,0.801-0.801h8.664
		c0.441,0,0.801,0.359,0.801,0.801v8.664C17.983,16.801,17.624,17.16,17.182,17.16z M17.162,7.695l-8.644,0.02l0.021,8.645
		l8.623-0.02V7.695z"/>
</g>
<g>
	<path fill="#E18A48" d="M28.681,32.354h-8.667c-0.44,0-0.799-0.359-0.799-0.801V7.695c0-0.441,0.358-0.801,0.799-0.801h8.667
		c0.44,0,0.801,0.359,0.801,0.801v23.857C29.482,31.994,29.122,32.354,28.681,32.354z M28.66,7.695l-8.646,0.02l0.022,23.838
		l8.623-0.02L28.66,7.695L28.66,7.695z"/>
</g>
<g>
	<path fill="#E18A48" d="M17.182,28.658H8.518c-0.442,0-0.801-0.359-0.801-0.801v-8.664c0-0.441,0.358-0.801,0.801-0.801h8.664
		c0.441,0,0.801,0.359,0.801,0.801v8.664C17.983,28.299,17.624,28.658,17.182,28.658z M17.162,19.193l-8.644,0.021l0.021,8.644
		l8.623-0.021V19.193z"/>
</g>
<g>
	<path fill="#E18A48" d="M28.681,43.852h-8.667c-0.44,0-0.799-0.359-0.799-0.8v-8.665c0-0.441,0.358-0.801,0.799-0.801h8.667
		c0.44,0,0.801,0.359,0.801,0.801v8.665C29.482,43.492,29.122,43.852,28.681,43.852z M28.66,34.387l-8.646,0.021l0.022,8.645
		l8.623-0.021L28.66,34.387L28.66,34.387z"/>
</g>
<g>
	<path fill="#E18A48" d="M28.681,68.49h-8.667c-0.44,0-0.799-0.365-0.799-0.814v-9.048c0-0.449,0.358-0.814,0.799-0.814h8.667
		c0.44,0,0.801,0.365,0.801,0.814v9.048C29.482,68.125,29.122,68.49,28.681,68.49z M28.66,58.628l-8.646,0.007l0.022,9.041
		l8.623-0.007L28.66,58.628L28.66,58.628z"/>
</g>
<g>
	<path fill="#E18A48" d="M28.681,80.398h-8.667c-0.44,0-0.799-0.365-0.799-0.814v-9.048c0-0.448,0.358-0.814,0.799-0.814h8.667
		c0.44,0,0.801,0.366,0.801,0.814v9.048C29.482,80.033,29.122,80.398,28.681,80.398z M28.66,70.536l-8.646,0.007l0.022,9.041
		l8.623-0.007L28.66,70.536L28.66,70.536z"/>
</g>
<g>
	<path fill="#E18A48" d="M28.681,92.307h-8.667c-0.44,0-0.799-0.364-0.799-0.814v-9.048c0-0.448,0.358-0.813,0.799-0.813h8.667
		c0.44,0,0.801,0.365,0.801,0.813v9.048C29.482,91.942,29.122,92.307,28.681,92.307z M28.66,82.444l-8.646,0.008l0.022,9.04
		l8.623-0.007L28.66,82.444L28.66,82.444z"/>
</g>
<g>
	<path fill="#E18A48" d="M28.681,104.215h-8.667c-0.44,0-0.799-0.365-0.799-0.813v-9.049c0-0.449,0.358-0.813,0.799-0.813h8.667
		c0.44,0,0.801,0.365,0.801,0.813v9.049C29.482,103.85,29.122,104.215,28.681,104.215z M28.66,94.354l-8.646,0.008l0.022,9.041
		l8.623-0.008L28.66,94.354L28.66,94.354z"/>
</g>
<g>
	<path fill="#E18A48" d="M28.681,116.124h-8.667c-0.44,0-0.799-0.366-0.799-0.813v-9.049c0-0.449,0.358-0.813,0.799-0.813h8.667
		c0.44,0,0.801,0.364,0.801,0.813v9.049C29.482,115.758,29.122,116.124,28.681,116.124z M28.66,106.262l-8.646,0.008l0.022,9.041
		l8.623-0.008L28.66,106.262L28.66,106.262z"/>
</g>
<g>
	<path fill="#E18A48" d="M28.681,128.033h-8.667c-0.44,0-0.799-0.366-0.799-0.814v-9.049c0-0.447,0.358-0.813,0.799-0.813h8.667
		c0.44,0,0.801,0.363,0.801,0.813v9.049C29.482,127.667,29.122,128.033,28.681,128.033z M28.66,118.17l-8.646,0.008l0.022,9.041
		l8.623-0.008L28.66,118.17L28.66,118.17z"/>
</g>
<g>
	<path fill="#E18A48" d="M28.681,139.941h-8.667c-0.44,0-0.799-0.365-0.799-0.814v-9.049c0-0.448,0.358-0.813,0.799-0.813h8.667
		c0.44,0,0.801,0.363,0.801,0.813v9.049C29.482,139.576,29.122,139.941,28.681,139.941z M28.66,130.078l-8.646,0.008l0.022,9.041
		l8.623-0.008L28.66,130.078L28.66,130.078z"/>
</g>
<g>
	<path fill="#E18A48" d="M28.681,151.85h-8.667c-0.44,0-0.799-0.365-0.799-0.813v-9.048c0-0.448,0.358-0.813,0.799-0.813h8.667
		c0.44,0,0.801,0.365,0.801,0.813v9.048C29.482,151.484,29.122,151.85,28.681,151.85z M28.66,141.986l-8.646,0.009l0.022,9.04
		l8.623-0.008L28.66,141.986L28.66,141.986z"/>
</g>
<g>
	<path fill="#E18A48" d="M39.768,75.061h-8.665c-0.442,0-0.801-0.365-0.801-0.814v-9.049c0-0.448,0.358-0.813,0.801-0.813h8.665
		c0.441,0,0.8,0.365,0.8,0.813v9.049C40.568,74.695,40.209,75.061,39.768,75.061z M39.747,65.197l-8.644,0.008l0.02,9.041
		l8.624-0.008V65.197z"/>
</g>
<g>
	<path fill="#E18A48" d="M39.768,86.969h-8.665c-0.442,0-0.801-0.365-0.801-0.813v-9.048c0-0.449,0.358-0.814,0.801-0.814h8.665
		c0.441,0,0.8,0.365,0.8,0.814v9.048C40.568,86.604,40.209,86.969,39.768,86.969z M39.747,77.106l-8.644,0.007l0.02,9.041
		l8.624-0.007V77.106z"/>
</g>
<g>
	<path fill="#E18A48" d="M39.768,98.877h-8.665c-0.442,0-0.801-0.365-0.801-0.813v-9.049c0-0.448,0.358-0.813,0.801-0.813h8.665
		c0.441,0,0.8,0.365,0.8,0.813v9.049C40.568,98.512,40.209,98.877,39.768,98.877z M39.747,89.015l-8.644,0.008l0.02,9.042
		l8.624-0.008V89.015z"/>
</g>
<g>
	<path fill="#E18A48" d="M39.768,110.786h-8.665c-0.442,0-0.801-0.366-0.801-0.813v-9.05c0-0.448,0.358-0.813,0.801-0.813h8.665
		c0.441,0,0.8,0.365,0.8,0.813v9.05C40.568,110.42,40.209,110.786,39.768,110.786z M39.747,100.923l-8.644,0.009l0.02,9.041
		l8.624-0.008V100.923z"/>
</g>
<g>
	<path fill="#E18A48" d="M39.768,122.693h-8.665c-0.442,0-0.801-0.364-0.801-0.813v-9.048c0-0.449,0.358-0.814,0.801-0.814h8.665
		c0.441,0,0.8,0.365,0.8,0.814v9.048C40.568,122.329,40.209,122.693,39.768,122.693z M39.747,112.832l-8.644,0.008l0.02,9.04
		l8.624-0.007V112.832z"/>
</g>
<g>
	<path fill="#E18A48" d="M39.768,134.604h-8.665c-0.442,0-0.801-0.367-0.801-0.813v-9.049c0-0.449,0.358-0.813,0.801-0.813h8.665
		c0.441,0,0.8,0.364,0.8,0.813v9.049C40.568,134.236,40.209,134.604,39.768,134.604z M39.747,124.74l-8.644,0.008l0.02,9.041
		l8.624-0.008V124.74z"/>
</g>
<g>
	<path fill="#E18A48" d="M39.768,146.512h-8.665c-0.442,0-0.801-0.365-0.801-0.814v-9.049c0-0.447,0.358-0.813,0.801-0.813h8.665
		c0.441,0,0.8,0.364,0.8,0.813v9.049C40.568,146.146,40.209,146.512,39.768,146.512z M39.747,136.648l-8.644,0.008l0.02,9.039
		l8.624-0.006V136.648z"/>
</g>
<g>
	<path fill="#E18A48" d="M39.768,158.419h-8.665c-0.442,0-0.801-0.364-0.801-0.813v-9.047c0-0.449,0.358-0.813,0.801-0.813h8.665
		c0.441,0,0.8,0.364,0.8,0.813v9.047C40.568,158.055,40.209,158.419,39.768,158.419z M39.747,148.559l-8.644,0.008l0.02,9.039
		l8.624-0.006V148.559z"/>
</g>
<g>
	<path fill="#E18A48" d="M39.768,178.951h-8.665c-0.442,0-0.801-0.365-0.801-0.814v-17.671c0-0.448,0.358-0.813,0.801-0.813h8.665
		c0.441,0,0.8,0.365,0.8,0.813v17.671C40.568,178.586,40.209,178.951,39.768,178.951z M39.747,160.466l-8.644,0.009l0.02,17.662
		l8.624-0.007V160.466z"/>
</g>
<g>
	<path fill="#E18A48" d="M50.855,95.592H42.19c-0.441,0-0.8-0.365-0.8-0.813V85.73c0-0.448,0.358-0.813,0.8-0.813h8.666
		c0.441,0,0.801,0.365,0.801,0.813v9.049C51.656,95.227,51.297,95.592,50.855,95.592z M50.834,85.729l-8.645,0.007l0.021,9.042
		l8.623-0.008L50.834,85.729L50.834,85.729z"/>
</g>
<g>
	<path fill="#E18A48" d="M50.855,107.5H42.19c-0.441,0-0.8-0.365-0.8-0.814v-9.047c0-0.449,0.358-0.813,0.8-0.813h8.666
		c0.441,0,0.801,0.364,0.801,0.813v9.047C51.656,107.135,51.297,107.5,50.855,107.5z M50.834,97.639l-8.645,0.008l0.021,9.039
		l8.623-0.006L50.834,97.639L50.834,97.639z"/>
</g>
<g>
	<path fill="#E18A48" d="M50.855,119.408H42.19c-0.441,0-0.8-0.364-0.8-0.813v-9.049c0-0.448,0.358-0.813,0.8-0.813h8.666
		c0.441,0,0.801,0.365,0.801,0.813v9.049C51.656,119.044,51.297,119.408,50.855,119.408z M50.834,109.547l-8.645,0.008l0.021,9.041
		l8.623-0.008L50.834,109.547L50.834,109.547z"/>
</g>
<g>
	<path fill="#E18A48" d="M50.855,131.316H42.19c-0.441,0-0.8-0.364-0.8-0.813v-9.049c0-0.448,0.358-0.813,0.8-0.813h8.666
		c0.441,0,0.801,0.364,0.801,0.813v9.049C51.656,130.952,51.297,131.316,50.855,131.316z M50.834,121.455l-8.645,0.008l0.021,9.041
		l8.623-0.008L50.834,121.455L50.834,121.455z"/>
</g>
<g>
	<path fill="#E18A48" d="M50.855,143.227H42.19c-0.441,0-0.8-0.365-0.8-0.813v-9.049c0-0.448,0.358-0.813,0.8-0.813h8.666
		c0.441,0,0.801,0.364,0.801,0.813v9.049C51.656,142.861,51.297,143.227,50.855,143.227z M50.834,133.363l-8.645,0.008l0.021,9.041
		l8.623-0.008L50.834,133.363L50.834,133.363z"/>
</g>
<g>
	<path fill="#E18A48" d="M50.855,155.135H42.19c-0.441,0-0.8-0.365-0.8-0.814v-9.049c0-0.447,0.358-0.813,0.8-0.813h8.666
		c0.441,0,0.801,0.364,0.801,0.813v9.049C51.656,154.77,51.297,155.135,50.855,155.135z M50.834,145.271l-8.645,0.009l0.021,9.04
		l8.623-0.008L50.834,145.271L50.834,145.271z"/>
</g>
<g>
	<path fill="#E18A48" d="M50.855,167.043H42.19c-0.441,0-0.8-0.365-0.8-0.813v-9.051c0-0.447,0.358-0.813,0.8-0.813h8.666
		c0.441,0,0.801,0.365,0.801,0.813v9.051C51.656,166.678,51.297,167.043,50.855,167.043z M50.834,157.18l-8.645,0.008l0.021,9.043
		l8.623-0.008L50.834,157.18L50.834,157.18z"/>
</g>
<g>
	<path fill="#E18A48" d="M50.855,178.951H42.19c-0.441,0-0.8-0.365-0.8-0.814v-9.047c0-0.449,0.358-0.814,0.8-0.814h8.666
		c0.441,0,0.801,0.365,0.801,0.814v9.047C51.656,178.586,51.297,178.951,50.855,178.951z M50.834,169.09l-8.645,0.008l0.021,9.039
		l8.623-0.007L50.834,169.09L50.834,169.09z"/>
</g>
<g>
	<path fill="#E18A48" d="M50.855,36.05H42.19c-0.441,0-0.8-0.365-0.8-0.814v-9.048c0-0.449,0.358-0.814,0.8-0.814h8.666
		c0.441,0,0.801,0.365,0.801,0.814v9.048C51.656,35.685,51.297,36.05,50.855,36.05z M50.834,26.188l-8.645,0.007l0.021,9.041
		l8.623-0.007L50.834,26.188L50.834,26.188z"/>
</g>
<g>
	<path fill="#E18A48" d="M50.855,24.141H42.19c-0.441,0-0.8-0.365-0.8-0.813V7.709c0-0.449,0.358-0.814,0.8-0.814h8.666
		c0.441,0,0.801,0.365,0.801,0.814v15.618C51.656,23.775,51.297,24.141,50.855,24.141z M50.834,7.709L42.19,7.715l0.021,15.612
		l8.623-0.007V7.709z"/>
</g>
<g>
	<path fill="#E18A48" d="M39.768,26.604h-8.665c-0.442,0-0.801-0.364-0.801-0.813V7.709c0-0.449,0.358-0.814,0.801-0.814h8.665
		c0.441,0,0.8,0.365,0.8,0.814v18.082C40.568,26.24,40.209,26.604,39.768,26.604z M39.747,7.709l-8.644,0.006l0.02,18.076
		l8.624-0.008V7.709z"/>
</g>
<g>
	<path fill="#E18A48" d="M50.855,47.958H42.19c-0.441,0-0.8-0.365-0.8-0.813v-9.049c0-0.449,0.358-0.814,0.8-0.814h8.666
		c0.441,0,0.801,0.365,0.801,0.814v9.049C51.656,47.593,51.297,47.958,50.855,47.958z M50.834,38.096l-8.645,0.008l0.021,9.041
		l8.623-0.008L50.834,38.096L50.834,38.096z"/>
</g>
<g>
	<path fill="#E18A48" d="M50.855,59.867H42.19c-0.441,0-0.8-0.366-0.8-0.814v-9.049c0-0.449,0.358-0.813,0.8-0.813h8.666
		c0.441,0,0.801,0.364,0.801,0.813v9.049C51.656,59.501,51.297,59.867,50.855,59.867z M50.834,50.004l-8.645,0.008l0.021,9.041
		l8.623-0.008L50.834,50.004L50.834,50.004z"/>
</g>
<g>
	<path fill="#E18A48" d="M39.768,39.335h-8.665c-0.442,0-0.801-0.366-0.801-0.815v-9.047c0-0.449,0.358-0.814,0.801-0.814h8.665
		c0.441,0,0.8,0.365,0.8,0.814v9.047C40.568,38.969,40.209,39.335,39.768,39.335z M39.747,29.473l-8.644,0.007l0.02,9.04
		l8.624-0.006V29.473z"/>
</g>
<g>
	<path fill="#E18A48" d="M39.768,51.243h-8.665c-0.442,0-0.801-0.365-0.801-0.814v-9.048c0-0.449,0.358-0.814,0.801-0.814h8.665
		c0.441,0,0.8,0.365,0.8,0.814v9.048C40.568,50.878,40.209,51.243,39.768,51.243z M39.747,41.381l-8.644,0.008l0.02,9.04
		l8.624-0.007V41.381z"/>
</g>
<g>
	<path fill="#E18A48" d="M39.768,63.151h-8.665c-0.442,0-0.801-0.364-0.801-0.813v-9.049c0-0.448,0.358-0.814,0.801-0.814h8.665
		c0.441,0,0.8,0.366,0.8,0.814v9.049C40.568,62.787,40.209,63.151,39.768,63.151z M39.747,53.289l-8.644,0.008l0.02,9.041
		l8.624-0.008V53.289z"/>
</g>
<g>
	<path fill="#E18A48" d="M50.855,71.775H42.19c-0.441,0-0.8-0.365-0.8-0.814v-9.048c0-0.449,0.358-0.814,0.8-0.814h8.666
		c0.441,0,0.801,0.365,0.801,0.814v9.048C51.656,71.41,51.297,71.775,50.855,71.775z M50.834,61.913L42.19,61.92l0.021,9.041
		l8.623-0.008V61.913z"/>
</g>
<g>
	<path fill="#E18A48" d="M50.855,83.684H42.19c-0.441,0-0.8-0.365-0.8-0.814v-9.047c0-0.449,0.358-0.815,0.8-0.815h8.666
		c0.441,0,0.801,0.366,0.801,0.815v9.047C51.656,83.318,51.297,83.684,50.855,83.684z M50.834,73.822l-8.645,0.006l0.021,9.041
		l8.623-0.007L50.834,73.822L50.834,73.822z"/>
</g>
<g>
	<path fill="#E18A48" d="M61.943,76.703h-8.666c-0.441,0-0.801-0.365-0.801-0.814V66.84c0-0.448,0.358-0.813,0.801-0.813h8.666
		c0.44,0,0.799,0.365,0.799,0.813v9.049C62.742,76.338,62.385,76.703,61.943,76.703z M61.922,66.84l-8.645,0.008l0.021,9.041
		l8.623-0.008L61.922,66.84L61.922,66.84z"/>
</g>
<g>
	<path fill="#E18A48" d="M61.943,88.611h-8.666c-0.441,0-0.801-0.365-0.801-0.814v-9.048c0-0.449,0.358-0.814,0.801-0.814h8.666
		c0.44,0,0.799,0.365,0.799,0.814v9.048C62.742,88.246,62.385,88.611,61.943,88.611z M61.922,78.749l-8.645,0.007l0.021,9.041
		l8.623-0.007L61.922,78.749L61.922,78.749z"/>
</g>
<g>
	<path fill="#E18A48" d="M61.943,100.52h-8.666c-0.441,0-0.801-0.364-0.801-0.813v-9.048c0-0.448,0.358-0.813,0.801-0.813h8.666
		c0.44,0,0.799,0.365,0.799,0.813v9.048C62.742,100.154,62.385,100.52,61.943,100.52z M61.922,90.657l-8.645,0.008l0.021,9.04
		l8.623-0.006L61.922,90.657L61.922,90.657z"/>
</g>
<g>
	<path fill="#E18A48" d="M61.943,112.428h-8.666c-0.441,0-0.801-0.365-0.801-0.813v-9.048c0-0.448,0.358-0.813,0.801-0.813h8.666
		c0.44,0,0.799,0.365,0.799,0.813v9.048C62.742,112.063,62.385,112.428,61.943,112.428z M61.922,102.566l-8.645,0.008l0.021,9.039
		l8.623-0.008L61.922,102.566L61.922,102.566z"/>
</g>
<g>
	<path fill="#E18A48" d="M61.943,124.336h-8.666c-0.441,0-0.801-0.363-0.801-0.813v-9.049c0-0.449,0.358-0.813,0.801-0.813h8.666
		c0.44,0,0.799,0.363,0.799,0.813v9.049C62.742,123.973,62.385,124.336,61.943,124.336z M61.922,114.475l-8.645,0.008l0.021,9.041
		l8.623-0.008L61.922,114.475L61.922,114.475z"/>
</g>
<g>
	<path fill="#E18A48" d="M61.943,136.245h-8.666c-0.441,0-0.801-0.365-0.801-0.813v-9.049c0-0.447,0.358-0.813,0.801-0.813h8.666
		c0.44,0,0.799,0.365,0.799,0.813v9.049C62.742,135.88,62.385,136.245,61.943,136.245z M61.922,126.383l-8.645,0.008l0.021,9.041
		l8.623-0.008L61.922,126.383L61.922,126.383z"/>
</g>
<g>
	<path fill="#E18A48" d="M61.943,148.154h-8.666c-0.441,0-0.801-0.366-0.801-0.814v-9.049c0-0.448,0.358-0.813,0.801-0.813h8.666
		c0.44,0,0.799,0.363,0.799,0.813v9.049C62.742,147.788,62.385,148.154,61.943,148.154z M61.922,138.291l-8.645,0.008l0.021,9.041
		l8.623-0.008L61.922,138.291L61.922,138.291z"/>
</g>
<g>
	<path fill="#E18A48" d="M61.943,160.063h-8.666c-0.441,0-0.801-0.364-0.801-0.813V150.2c0-0.447,0.358-0.813,0.801-0.813h8.666
		c0.44,0,0.799,0.365,0.799,0.813v9.049C62.742,159.697,62.385,160.063,61.943,160.063z M61.922,150.199l-8.645,0.008l0.021,9.041
		l8.623-0.007L61.922,150.199L61.922,150.199z"/>
</g>
<g>
	<path fill="#E18A48" d="M61.943,178.951h-8.666c-0.441,0-0.801-0.365-0.801-0.814v-16.027c0-0.448,0.358-0.813,0.801-0.813h8.666
		c0.44,0,0.799,0.365,0.799,0.813v16.027C62.742,178.586,62.385,178.951,61.943,178.951z M61.922,162.107l-8.645,0.009l0.021,16.021
		l8.623-0.007L61.922,162.107L61.922,162.107z"/>
</g>
<g>
	<path fill="#E18A48" d="M61.943,17.16h-8.666c-0.441,0-0.801-0.365-0.801-0.814V7.709c0-0.449,0.358-0.814,0.801-0.814h8.666
		c0.44,0,0.799,0.365,0.799,0.814v8.637C62.742,16.795,62.385,17.16,61.943,17.16z M61.922,7.709l-8.645,0.006l0.021,8.631
		l8.623-0.006L61.922,7.709L61.922,7.709z"/>
</g>
<g>
	<path fill="#E18A48" d="M61.943,29.068h-8.666c-0.441,0-0.801-0.365-0.801-0.813v-9.048c0-0.449,0.358-0.814,0.801-0.814h8.666
		c0.44,0,0.799,0.365,0.799,0.814v9.048C62.742,28.703,62.385,29.068,61.943,29.068z M61.922,19.207l-8.645,0.007l0.021,9.041
		l8.623-0.007L61.922,19.207L61.922,19.207z"/>
</g>
<g>
	<path fill="#E18A48" d="M61.943,40.978h-8.666c-0.441,0-0.801-0.365-0.801-0.814v-9.048c0-0.449,0.358-0.814,0.801-0.814h8.666
		c0.44,0,0.799,0.365,0.799,0.814v9.048C62.742,40.612,62.385,40.978,61.943,40.978z M61.922,31.115l-8.645,0.007l0.021,9.041
		l8.623-0.007L61.922,31.115L61.922,31.115z"/>
</g>
<g>
	<path fill="#E18A48" d="M61.943,52.886h-8.666c-0.441,0-0.801-0.365-0.801-0.813v-9.049c0-0.449,0.358-0.814,0.801-0.814h8.666
		c0.44,0,0.799,0.365,0.799,0.814v9.049C62.742,52.521,62.385,52.886,61.943,52.886z M61.922,43.023l-8.645,0.007l0.021,9.042
		l8.623-0.008L61.922,43.023L61.922,43.023z"/>
</g>
<g>
	<path fill="#E18A48" d="M61.943,64.795h-8.666c-0.441,0-0.801-0.366-0.801-0.814v-9.049c0-0.449,0.358-0.814,0.801-0.814h8.666
		c0.44,0,0.799,0.365,0.799,0.814v9.049C62.742,64.429,62.385,64.795,61.943,64.795z M61.922,54.932l-8.645,0.008l0.021,9.041
		l8.623-0.008L61.922,54.932L61.922,54.932z"/>
</g>
<g>
	<path fill="#E18A48" d="M68.924,17.571h-4.148c-0.44,0-0.801-0.365-0.801-0.814V7.709c0-0.449,0.359-0.814,0.801-0.814h4.148
		c0.441,0,0.801,0.365,0.801,0.814v9.048C69.725,17.206,69.365,17.571,68.924,17.571z M68.902,7.709l-4.127,0.006l0.02,9.042
		l4.107-0.007V7.709z"/>
</g>
<g>
	<path fill="#E18A48" d="M68.924,29.891h-4.148c-0.44,0-0.801-0.365-0.801-0.814v-9.459c0-0.449,0.359-0.814,0.801-0.814h4.148
		c0.441,0,0.801,0.365,0.801,0.814v9.459C69.725,29.525,69.365,29.891,68.924,29.891z M68.902,19.617l-4.127,0.007l0.02,9.452
		l4.107-0.008V19.617z"/>
</g>
<g>
	<path fill="#E18A48" d="M68.924,42.209h-4.148c-0.44,0-0.801-0.365-0.801-0.814v-9.458c0-0.449,0.359-0.814,0.801-0.814h4.148
		c0.441,0,0.801,0.365,0.801,0.814v9.458C69.725,41.844,69.365,42.209,68.924,42.209z M68.902,31.937l-4.127,0.007l0.02,9.451
		l4.107-0.006V31.937z"/>
</g>
<g>
	<path fill="#E18A48" d="M68.924,54.528h-4.148c-0.44,0-0.801-0.365-0.801-0.814v-9.458c0-0.449,0.359-0.814,0.801-0.814h4.148
		c0.441,0,0.801,0.365,0.801,0.814v9.458C69.725,54.163,69.365,54.528,68.924,54.528z M68.902,44.256l-4.127,0.007l0.02,9.451
		l4.107-0.007V44.256z"/>
</g>
<g>
	<path fill="#E18A48" d="M68.924,66.848h-4.148c-0.44,0-0.801-0.365-0.801-0.814v-9.459c0-0.449,0.359-0.814,0.801-0.814h4.148
		c0.441,0,0.801,0.365,0.801,0.814v9.459C69.725,66.482,69.365,66.848,68.924,66.848z M68.902,56.574l-4.127,0.008l0.02,9.451
		l4.107-0.007V56.574z"/>
</g>
<g>
	<path fill="#E18A48" d="M68.924,79.166h-4.148c-0.44,0-0.801-0.365-0.801-0.813v-9.459c0-0.448,0.359-0.814,0.801-0.814h4.148
		c0.441,0,0.801,0.366,0.801,0.814v9.459C69.725,78.801,69.365,79.166,68.924,79.166z M68.902,68.894L64.775,68.9l0.02,9.452
		l4.107-0.007V68.894z"/>
</g>
<g>
	<path fill="#E18A48" d="M68.924,91.485h-4.148c-0.44,0-0.801-0.364-0.801-0.813v-9.459c0-0.449,0.359-0.814,0.801-0.814h4.148
		c0.441,0,0.801,0.365,0.801,0.814v9.459C69.725,91.121,69.365,91.485,68.924,91.485z M68.902,81.213l-4.127,0.008l0.02,9.451
		l4.107-0.008V81.213z"/>
</g>
<g>
	<path fill="#E18A48" d="M68.924,103.805h-4.148c-0.44,0-0.801-0.365-0.801-0.813v-9.46c0-0.447,0.359-0.813,0.801-0.813h4.148
		c0.441,0,0.801,0.365,0.801,0.813v9.46C69.725,103.439,69.365,103.805,68.924,103.805z M68.902,93.531l-4.127,0.008l0.02,9.452
		l4.107-0.007V93.531z"/>
</g>
<g>
	<path fill="#E18A48" d="M68.924,116.124h-4.148c-0.44,0-0.801-0.366-0.801-0.813v-9.459c0-0.449,0.359-0.813,0.801-0.813h4.148
		c0.441,0,0.801,0.364,0.801,0.813v9.459C69.725,115.758,69.365,116.124,68.924,116.124z M68.902,105.852l-4.127,0.008l0.02,9.451
		l4.107-0.008V105.852z"/>
</g>
<g>
	<path fill="#E18A48" d="M68.924,128.443h-4.148c-0.44,0-0.801-0.365-0.801-0.814v-9.459c0-0.447,0.359-0.813,0.801-0.813h4.148
		c0.441,0,0.801,0.363,0.801,0.813v9.459C69.725,128.078,69.365,128.443,68.924,128.443z M68.902,118.17l-4.127,0.008l0.02,9.451
		l4.107-0.007V118.17z"/>
</g>
<g>
	<path fill="#E18A48" d="M68.924,140.762h-4.148c-0.44,0-0.801-0.365-0.801-0.813v-9.46c0-0.447,0.359-0.813,0.801-0.813h4.148
		c0.441,0,0.801,0.365,0.801,0.813v9.46C69.725,140.396,69.365,140.762,68.924,140.762z M68.902,130.488l-4.127,0.009l0.02,9.451
		l4.107-0.007V130.488z"/>
</g>
<g>
	<path fill="#E18A48" d="M68.924,153.081h-4.148c-0.44,0-0.801-0.365-0.801-0.813v-9.459c0-0.449,0.359-0.813,0.801-0.813h4.148
		c0.441,0,0.801,0.363,0.801,0.813v9.459C69.725,152.716,69.365,153.081,68.924,153.081z M68.902,142.809l-4.127,0.008l0.02,9.451
		l4.107-0.008V142.809z"/>
</g>
<g>
	<path fill="#E18A48" d="M68.924,165.4h-4.148c-0.44,0-0.801-0.365-0.801-0.814v-9.459c0-0.447,0.359-0.813,0.801-0.813h4.148
		c0.441,0,0.801,0.363,0.801,0.813v9.459C69.725,165.035,69.365,165.4,68.924,165.4z M68.902,155.127l-4.127,0.008l0.02,9.451
		l4.107-0.007V155.127z"/>
</g>
<g>
	<path fill="#E18A48" d="M68.924,178.951h-4.148c-0.44,0-0.801-0.365-0.801-0.814v-10.689c0-0.448,0.359-0.813,0.801-0.813h4.148
		c0.441,0,0.801,0.365,0.801,0.813v10.689C69.725,178.586,69.365,178.951,68.924,178.951z M68.902,167.445l-4.127,0.01l0.02,10.682
		l4.107-0.007V167.445z"/>
</g>
<g>
	<path fill="#E18A48" d="M28.681,178.951h-8.667c-0.44,0-0.799-0.365-0.799-0.814v-24.24c0-0.448,0.358-0.813,0.799-0.813h8.667
		c0.44,0,0.801,0.365,0.801,0.813v24.24C29.482,178.586,29.122,178.951,28.681,178.951z M28.66,153.896l-8.646,0.008l0.022,24.232
		l8.623-0.007L28.66,153.896L28.66,153.896z"/>
</g>
<g>
	<path fill="#E18A48" d="M28.681,56.582h-8.667c-0.44,0-0.799-0.359-0.799-0.801v-9.897c0-0.441,0.358-0.801,0.799-0.801h8.667
		c0.44,0,0.801,0.359,0.801,0.801v9.897C29.482,56.223,29.122,56.582,28.681,56.582z M28.66,45.884l-8.646,0.021l0.022,9.877
		l8.623-0.021L28.66,45.884L28.66,45.884z"/>
</g>
<g>
	<path fill="#E18A48" d="M17.182,40.566H8.518c-0.442,0-0.801-0.359-0.801-0.8V30.69c0-0.441,0.358-0.8,0.801-0.8h8.664
		c0.441,0,0.801,0.358,0.801,0.8v9.076C17.983,40.207,17.624,40.566,17.182,40.566z M17.162,30.69l-8.644,0.021l0.021,9.056
		l8.623-0.021V30.69z"/>
</g>
<g>
	<path fill="#E18A48" d="M17.182,54.528H8.518c-0.442,0-0.801-0.359-0.801-0.8v-11.13c0-0.44,0.358-0.801,0.801-0.801h8.664
		c0.441,0,0.801,0.36,0.801,0.801v11.13C17.983,54.169,17.624,54.528,17.182,54.528z M17.162,42.599L8.518,42.62l0.021,11.109
		l8.623-0.021V42.599z"/>
</g>
<g>
	<path fill="#E18A48" d="M17.182,141.994H8.518c-0.442,0-0.801-0.359-0.801-0.801v-9.075c0-0.442,0.358-0.802,0.801-0.802h8.664
		c0.441,0,0.801,0.358,0.801,0.802v9.075C17.983,141.635,17.624,141.994,17.182,141.994z M17.162,132.118l-8.644,0.021l0.021,9.055
		l8.623-0.021V132.118z"/>
</g>
<g>
	<path fill="#E18A48" d="M17.182,167.043H8.518c-0.442,0-0.801-0.357-0.801-0.801v-9.075c0-0.442,0.358-0.8,0.801-0.8h8.664
		c0.441,0,0.801,0.357,0.801,0.8v9.075C17.983,166.686,17.624,167.043,17.182,167.043z M17.162,157.167l-8.644,0.021l0.021,9.056
		l8.623-0.021V157.167z"/>
</g>
<g>
	<path fill="#E18A48" d="M12.254,155.135H8.518c-0.442,0-0.801-0.359-0.801-0.801v-9.076c0-0.441,0.358-0.8,0.801-0.8h3.736
		c0.442,0,0.801,0.358,0.801,0.8v9.076C13.055,154.775,12.697,155.135,12.254,155.135z M12.234,145.258l-3.716,0.021l0.021,9.055
		l3.695-0.021V145.258z"/>
</g>
<g>
	<path fill="#E18A48" d="M12.254,178.951H8.518c-0.442,0-0.801-0.359-0.801-0.801v-9.075c0-0.441,0.358-0.8,0.801-0.8h3.736
		c0.442,0,0.801,0.357,0.801,0.8v9.075C13.055,178.592,12.697,178.951,12.254,178.951z M12.234,169.075l-3.716,0.021l0.021,9.057
		l3.695-0.021V169.075z"/>
</g>
<g>
	<path fill="#E18A48" d="M17.182,130.086H8.518c-0.442,0-0.801-0.359-0.801-0.801v-11.129c0-0.441,0.358-0.801,0.801-0.801h8.664
		c0.441,0,0.801,0.358,0.801,0.801v11.129C17.983,129.727,17.624,130.086,17.182,130.086z M17.162,118.156l-8.644,0.021
		l0.021,11.108l8.623-0.021V118.156z"/>
</g>
<g opacity="0.2">
	<path fill="#E18A48" d="M6.544,184.66c-2.071,0-3.755-1.686-3.755-3.755L2.853,4.582c0-0.453,0.311-1.021,0.459-1.424H2.848
		c-2.273,0.32-2.754,2.416-2.754,4.487v174.958c0,2.069,1.794,4.521,3.864,4.521h71.456c1.615,0,2.994-1.029,3.521-2.464H6.544
		L6.544,184.66z"/>
</g>

</svg>
