<?xml version="1.0" encoding="utf-8"?>
<!-- Generator: Adobe Illustrator 15.0.0, SVG Export Plug-In . SVG Version: 6.00 Build 0)  -->
<!DOCTYPE svg PUBLIC "-//W3C//DTD SVG 1.1//EN" "http://www.w3.org/Graphics/SVG/1.1/DTD/svg11.dtd">
<svg version="1.1" id="portfolio" xmlns="http://www.w3.org/2000/svg" xmlns:xlink="http://www.w3.org/1999/xlink" x="0px" y="0px"
	 width="169.25px" height="143.5px" viewBox="0 0 169.25 143.5" enable-background="new 0 0 169.25 143.5" xml:space="preserve">
<g opacity="0.2">
	<polygon fill="#E18A48" points="4,138 4,28 1,28 1,68.927 1,141 34,141 34,143 43,143 43,141 117,141 117,143 126,143 126,141
		161,141 161,138 	"/>
</g>
<path fill="#E18A48" d="M133,21v-0.575c0.031-1.144-0.691-1.425-1.255-1.425h-8.558c-1,0-1.188,0.861-1.188,1.425V21h-10V7.66
	c0-4.092-3.974-6.66-7.83-6.66H67.404C63.548,1,58.959,3.333,59,8.042V21h-9v-0.575c0-0.564-0.078-1.394-1.172-1.425h-8.734
	C39.047,19.031,39,19.861,39,20.425V21H4v36.702v5.607V138h35v1.404c0,0.563,0.266,0.596,0.83,0.596h9.191
	c0.563,0,0.979-0.032,0.979-0.596V138h72v1.404c0,0.563-0.011,0.596,0.553,0.596h9.192c0.563,0,1.255-0.032,1.255-0.596V138h35
	V63.31v-3.055V21H133z M136,95.973c0,0.567-0.46,1.027-1.027,1.027h-16.945C117.46,97,117,96.54,117,95.973V79.027
	c0-0.567,0.46-1.027,1.027-1.027h16.945c0.566,0,1.026,0.46,1.026,1.027L136,95.973L136,95.973z M54,94.973
	C54,95.54,53.54,96,52.973,96H36.027C35.46,96,35,95.54,35,94.973V78.027C35,77.46,35.46,77,36.027,77h16.945
	C53.54,77,54,77.46,54,78.027V94.973z M50,98h3.101C54.512,98,56,96.895,56,95.482V86h59v9.994c0,1.411,1.552,3.006,2.964,3.006H122
	v31H50V98z M131,21v55h-7V21H131z M61,8.667C61,4.75,64.629,3,67.404,3h36.766c2.775,0,5.83,1.831,5.83,4.66V21h-5v-6.191
	C105,10.867,101.984,8,98.043,8h-24C70.101,8,67,10.867,67,14.809V21h-6V8.667z M103,21H69v-6.191C69,11.993,71.228,10,74.043,10h24
	c2.814,0,4.957,1.993,4.957,4.809V21z M59.234,23h9.702h34.212h9.191H122v53h-4.036c-1.412,0-2.964,0.723-2.964,2.134V84H56v-6.377
	C56,76.212,54.512,75,53.101,75H50V23H59.234z M48,21v54h-7V21H48z M6,23h33v52h-3.76C33.829,75,33,76.212,33,77.623V84h-6.438
	C15.013,84,6,74.859,6,63.31v-5.607V23z M26.563,86H33v9.482C33,96.895,33.829,98,35.24,98H39v32H6V72.764
	C9,80.734,17.256,86,26.563,86z M6,136v-5h33v5H6z M41,138V98h7v40H41z M50,136v-5h72v5H50z M124,138V99h7v39H124z M133,136v-5h33v5
	H133z M166,130h-33V99h2.824c1.41,0,2.176-1.595,2.176-3.006V86h7.012C154.318,86,162,80.734,166,72.764V130z M166,63.31
	C166,74.859,156.563,84,145.012,84H138v-5.866c0-1.411-0.766-2.134-2.176-2.134H133V23h33v37.255V63.31z"/>
<g>
	<path fill="#E18A48" d="M49,92.965h-8.701c-1.068,0-1.938-0.888-1.938-1.979v-9.098c0-1.092,0.869-1.979,1.938-1.979H49
		c1.068,0,1.938,0.888,1.938,1.979v9.098C50.938,92.078,50.068,92.965,49,92.965z M48.938,81.889l-8.639,0.021l0.063,9.076
		l8.575-0.021L48.938,81.889z"/>
</g>
<g>
	<path fill="#E18A48" d="M131.063,94.215h-8.701c-1.067,0-1.938-0.888-1.938-1.979v-9.098c0-1.092,0.869-1.979,1.938-1.979h8.701
		c1.068,0,1.938,0.888,1.938,1.979v9.098C133,93.328,132.131,94.215,131.063,94.215z M131,83.139l-8.639,0.021l0.063,9.076
		l8.575-0.021L131,83.139z"/>
</g>

</svg>
