<?xml version="1.0" encoding="utf-8"?>
<!-- Generator: Adobe Illustrator 15.0.0, SVG Export Plug-In . SVG Version: 6.00 Build 0)  -->
<!DOCTYPE svg PUBLIC "-//W3C//DTD SVG 1.1//EN" "http://www.w3.org/Graphics/SVG/1.1/DTD/svg11.dtd">
<svg version="1.1" id="gamepad" xmlns="http://www.w3.org/2000/svg" xmlns:xlink="http://www.w3.org/1999/xlink" x="0px" y="0px"
	 width="131.75px" height="82.5px" viewBox="0 0 131.75 82.5" enable-background="new 0 0 131.75 82.5" xml:space="preserve">
<g>
	<g>
		<circle fill="#E18A48" cx="49.988" cy="49.743" r="6.659"/>
	</g>
</g>
<g>
	<g>
		<path fill="#E18A48" d="M70.553,31.631c-0.195,0-0.729-0.067-0.888-0.192C69.461,31.273,69,31.025,69,30.763v-2.144
			c0-0.263,0.461-0.511,0.665-0.676c0.204-0.164,0.644-0.228,0.897-0.173l5.09,1.071c0.398,0.086,0.729,0.44,0.729,0.849
			c0,0.41-0.264,0.764-0.664,0.85l-4.992,1.071C70.663,31.624,70.613,31.631,70.553,31.631z"/>
	</g>
</g>
<g>
	<g>
		<path fill="#E18A48" d="M30.971,29.459l-1.395-2.013C29.414,27.221,29.151,27,28.874,27h-5.185C23.21,27,23,27.563,23,28.043
			v3.905C23,32.428,23.21,33,23.689,33h5.185c0.282,0,0.546-0.229,0.709-0.459l1.395-2.027
			C31.192,30.211,31.189,29.76,30.971,29.459z"/>
		<path fill="#E18A48" d="M41.914,27h-5.027c-0.278,0-0.539,0.221-0.703,0.446l-1.395,1.968c-0.218,0.303-0.221,0.729-0.007,1.032
			l1.396,2.084C36.341,32.76,36.605,33,36.887,33h5.027C42.394,33,43,32.428,43,31.948v-3.905C43,27.563,42.394,27,41.914,27z"/>
		<path fill="#E18A48" d="M35.711,32.947l-2.291-1.396c-0.27-0.159-0.571-0.161-0.842-0.005l-2.279,1.395
			C30.03,33.098,30,33.384,30,33.694v5.196c0,0.48,0.153,1.11,0.632,1.11h4.773C35.885,40,36,39.37,36,38.891v-5.196
			C36,33.388,35.975,33.104,35.711,32.947z"/>
	</g>
</g>
<path fill="#E18A48" d="M35.406,19.799h-4.773c-0.479,0-0.868,0.388-0.868,0.867v5.056c0,0.308,0.162,0.592,0.427,0.747l2.358,1.396
	c0.136,0.08,0.289,0.121,0.442,0.121c0.15,0,0.3-0.039,0.434-0.117l2.414-1.395c0.269-0.155,0.434-0.441,0.434-0.752v-5.056
	C36.273,20.187,35.885,19.799,35.406,19.799z"/>
<g>
	<g>
		<path fill="#E18A48" d="M92.051,34.597c-2.597,0-4.709-2.112-4.709-4.71c0-2.597,2.112-4.71,4.709-4.71
			c2.598,0,4.711,2.113,4.711,4.71C96.762,32.484,94.648,34.597,92.051,34.597z M92.051,26.913c-1.639,0-2.974,1.333-2.974,2.974
			c0,1.641,1.335,2.975,2.974,2.975c1.641,0,2.975-1.334,2.975-2.975C95.025,28.246,93.691,26.913,92.051,26.913z"/>
	</g>
</g>
<g>
	<g>
		<path fill="#E18A48" d="M100.986,25.304c-2.598,0-4.711-2.113-4.711-4.709c0-2.596,2.113-4.71,4.711-4.71s4.709,2.113,4.709,4.71
			C105.695,23.192,103.584,25.304,100.986,25.304z M100.986,17.62c-1.641,0-2.976,1.334-2.976,2.975
			c0,1.641,1.335,2.975,2.976,2.975s2.975-1.334,2.975-2.975C103.961,18.954,102.627,17.62,100.986,17.62z"/>
	</g>
</g>
<g>
	<g>
		<path fill="#E18A48" d="M110.279,34.239c-2.598,0-4.711-2.112-4.711-4.71c0-2.597,2.113-4.71,4.711-4.71s4.709,2.114,4.709,4.71
			C114.988,32.127,112.877,34.239,110.279,34.239z M110.279,26.556c-1.641,0-2.975,1.334-2.975,2.974
			c0,1.641,1.334,2.975,2.975,2.975s2.975-1.334,2.975-2.975C113.254,27.89,111.92,26.556,110.279,26.556z"/>
	</g>
</g>
<g>
	<g>
		<path fill="#E18A48" d="M100.986,43.532c-2.598,0-4.711-2.113-4.711-4.71c0-2.598,2.113-4.71,4.711-4.71s4.709,2.112,4.709,4.71
			C105.695,41.419,103.584,43.532,100.986,43.532z M100.986,35.848c-1.641,0-2.976,1.334-2.976,2.975
			c0,1.64,1.335,2.974,2.976,2.974s2.975-1.334,2.975-2.974C103.961,37.182,102.627,35.848,100.986,35.848z"/>
	</g>
</g>
<g>
	<g>
		<circle fill="#E18A48" cx="83.941" cy="49.743" r="6.659"/>
	</g>
</g>
<g opacity="0.2">
	<g>
		<path fill="#E18A48" d="M116.443,79.986c-7.354,0-18.977-15.517-22.744-21.2c-2.422,2.675-5.875,4.026-9.758,4.026
			c-5.678,0-10.197-4.75-12.066-8.75L62.598,54c-1.869,4-6.545,8.75-12.223,8.75c-3.883,0-7.516-1.95-9.938-4.625
			c-3.769,5.684-15.463,21.924-22.815,21.924c-7.475,0-13.555-6.111-13.555-13.587c0-6.323,5.852-28.94,9.184-40.137
			c-1.296,1.601-2.349,3.398-3.095,5.356c-0.016,0.041-0.035,0.073-0.049,0.116c-0.002,0.007-0.005,0.014-0.007,0.021
			c-0.246,0.658-0.457,1.332-0.631,2.021c-3.203,10.519-7.266,28.246-7.63,34.775C1.343,77.51,7.57,82.5,14.577,82.5
			c7.007,0,21.612-15.382,25.276-21.189c2.567,2.604,5.535,4.033,9.004,4.483c5.569,0.724,10.332-1.972,14.831-8.044l6.648-0.063
			c2.712,4.719,7.469,7.32,10.74,7.942c5.424,1.029,9.523-1.348,11.842-3.338c0.01,0.038,13.012,15.556,17.749,17.956
			c3.842,1.949,10.671,1.757,12.718-2.182C121.354,79.286,118.979,79.986,116.443,79.986z"/>
	</g>
</g>
<path fill="#E18A48" d="M120.424,25.006c-0.175-0.679-0.383-1.345-0.623-1.996c-0.006-0.02-0.013-0.041-0.02-0.061
	c-0.084-0.26-0.184-0.499-0.291-0.726c-1.656-3.978-4.529-7.326-8.15-9.582l-0.32-2.776c-0.422-3.061-2.139-5.381-4.541-6.408
	c-0.855-0.908-2.029-1.451-3.418-1.451h-3.482c-1.317,0-2.512,0.532-3.373,1.394c-2.658,1.065-4.547,3.642-4.572,6.655l-0.223,1.607
	c-0.215,0.105-0.428,0.212-0.637,0.325H43.292c-0.208-0.113-0.42-0.22-0.634-0.325l-0.223-1.607
	c-0.025-3.013-1.914-5.59-4.572-6.655C37,2.54,35.808,2.008,34.49,2.008h-3.484c-1.388,0-2.561,0.543-3.419,1.452
	c-2.402,1.027-4.118,3.351-4.543,6.426l-0.32,2.758c-3.625,2.259-6.498,5.612-8.154,9.596c-0.105,0.223-0.204,0.456-0.286,0.71
	c-0.006,0.021-0.013,0.042-0.02,0.063c-0.24,0.649-0.447,1.313-0.621,1.991c-3.239,10.639-9.577,34.848-9.577,41.428
	c0,7.478,6.081,13.559,13.555,13.559c7.353,0,18.976-15.518,22.745-21.201c2.421,2.675,5.918,4.357,9.801,4.357
	c5.678,0,10.529-3.599,12.398-8.633H71.5c1.869,5.034,6.721,8.633,12.398,8.633c3.883,0,7.379-1.685,9.801-4.357
	c3.77,5.686,15.393,21.201,22.744,21.201c7.476,0,13.557-6.081,13.557-13.559C130,59.852,123.663,35.646,120.424,25.006z
	 M118.32,24.044l-0.014-0.003c0.139,0.438,0.283,0.91,0.438,1.412c0.38,1.49,0.583,3.05,0.583,4.657
	c0,10.385-8.448,18.833-18.834,18.833c-1.177,0-2.325-0.113-3.438-0.32c-0.656-6.682-6.308-11.92-13.156-11.92
	c-0.344,0-0.686,0.018-1.021,0.043c-0.781-2.065-1.216-4.3-1.216-6.636c0-10.386,8.448-18.834,18.834-18.834
	C108.758,11.276,115.79,16.627,118.32,24.044z M70.678,49.924c0,0.229,0.006,0.457,0.018,0.684h-7.322
	c0.012-0.227,0.018-0.455,0.018-0.684c0-6.337-4.482-11.645-10.442-12.924c0.771-2.155,1.194-4.473,1.194-6.89
	c0-5.512-2.184-10.521-5.725-14.217H85.65c-3.543,3.697-5.727,8.705-5.727,14.217c0,2.417,0.426,4.734,1.193,6.89
	C75.16,38.279,70.678,43.587,70.678,49.924z M93.357,10.237l0.009-0.119c0-3.036,2.489-5.507,5.548-5.507h4.682
	c3.004,0,5.243,2.156,5.702,5.475l0.177,1.521c-2.715-1.322-5.762-2.066-8.979-2.066c-2.541,0-4.975,0.466-7.223,1.312
	L93.357,10.237z M88.079,13.724c-0.538,0.408-1.054,0.843-1.55,1.302H47.536c-0.495-0.459-1.012-0.894-1.549-1.302H88.079z
	 M24.766,10.104c0.461-3.337,2.701-5.493,5.706-5.493h4.681c3.06,0,5.548,2.471,5.548,5.507l0.1,0.737
	c-2.25-0.848-4.686-1.315-7.229-1.315c-3.217,0-6.264,0.744-8.979,2.067L24.766,10.104z M33.571,11.276
	c10.386,0,18.834,8.449,18.834,18.834c0,2.336-0.435,4.57-1.216,6.636c-0.338-0.025-0.678-0.043-1.021-0.043
	c-6.85,0-12.499,5.236-13.156,11.917c-1.117,0.208-2.266,0.323-3.441,0.323c-10.385,0-18.834-8.448-18.834-18.833
	c0-1.608,0.204-3.17,0.584-4.661c0.208-0.679,0.401-1.301,0.58-1.858C18.56,16.409,25.477,11.276,33.571,11.276z M17.622,78.252
	c-6.518,0-11.82-5.303-11.82-11.82c0-5.197,4.111-21.852,7.383-33.607C14.518,42.886,23.148,50.68,33.57,50.68
	c1.155,0,2.286-0.104,3.389-0.289c0.089,2.572,0.915,4.961,2.275,6.957C34.408,64.864,23.476,78.252,17.622,78.252z M50.168,61.409
	c-6.333,0-11.485-5.152-11.485-11.485s5.152-11.485,11.485-11.485s11.485,5.152,11.485,11.485S56.501,61.409,50.168,61.409z
	 M63.076,52.775c0.094-0.426,0.167-0.859,0.219-1.301h7.477c0.054,0.439,0.125,0.875,0.222,1.301H63.076z M83.898,61.409
	c-6.334,0-11.485-5.152-11.485-11.485s5.151-11.485,11.485-11.485c6.332,0,11.482,5.152,11.482,11.485S90.23,61.409,83.898,61.409z
	 M116.443,78.252c-5.854,0-16.785-13.388-21.611-20.904c1.359-1.996,2.186-4.385,2.275-6.957c1.104,0.188,2.23,0.289,3.388,0.289
	c10.423,0,19.054-7.794,20.386-17.855c3.271,11.758,7.383,28.41,7.383,33.607C128.264,72.949,122.962,78.252,116.443,78.252z"/>
<path fill="#E18A48" d="M64.109,28.021h-5.206c-0.479,0-0.868,0.389-0.868,0.868v1.604c0,0.479,0.389,0.867,0.868,0.867h5.206
	c0.48,0,0.869-0.388,0.869-0.867V28.89C64.979,28.41,64.59,28.021,64.109,28.021z"/>

</svg>
