<?xml version="1.0" encoding="utf-8"?>
<!-- Generator: Adobe Illustrator 15.0.0, SVG Export Plug-In . SVG Version: 6.00 Build 0)  -->
<!DOCTYPE svg PUBLIC "-//W3C//DTD SVG 1.1//EN" "http://www.w3.org/Graphics/SVG/1.1/DTD/svg11.dtd">
<svg version="1.1" id="resume" xmlns="http://www.w3.org/2000/svg" xmlns:xlink="http://www.w3.org/1999/xlink" x="0px" y="0px"
	 width="270.833px" height="150.75px" viewBox="0 0 270.833 150.75" enable-background="new 0 0 270.833 150.75"
	 xml:space="preserve">
<g>
	<g>
		<path fill="#E18A48" d="M110,147.25H3v-146h107V147.25z M5,145.25h103v-142H5V145.25z"/>
	</g>
</g>
<g>
	<path fill="#E18A48" d="M86.46,130.773c-5.569,0-10.101-4.531-10.101-10.104s4.531-10.104,10.101-10.104
		s10.101,4.531,10.101,10.104S92.029,130.773,86.46,130.773z M86.46,112.535c-4.487,0-8.14,3.65-8.14,8.138
		c0,4.488,3.652,8.14,8.14,8.14c4.488,0,8.138-3.649,8.138-8.14C94.598,116.186,90.947,112.535,86.46,112.535z"/>
</g>
<g>
	<path fill="#E18A48" d="M86.57,127.305c-3.594,0-6.52-2.925-6.52-6.52c0-3.596,2.926-6.521,6.52-6.521
		c3.596,0,6.521,2.926,6.521,6.521C93.092,124.38,90.166,127.305,86.57,127.305z M86.57,116.227c-2.512,0-4.557,2.045-4.557,4.562
		c0,2.513,2.045,4.557,4.557,4.557c2.515,0,4.56-2.044,4.56-4.557C91.13,118.271,89.085,116.227,86.57,116.227z"/>
</g>
<g>
	<line fill="none" x1="42" y1="20.25" x2="19" y2="20.25"/>
	<rect x="19" y="19.25" fill="#E18A48" width="23" height="2"/>
</g>
<g>
	<line fill="none" x1="59" y1="25.25" x2="19" y2="25.25"/>
	<rect x="19" y="23.25" fill="#E18A48" width="40" height="2"/>
</g>
<g>
	<line fill="none" x1="80" y1="20.25" x2="46" y2="20.25"/>
	<rect x="46" y="19.25" fill="#E18A48" width="34" height="2"/>
</g>
<g>
	<line fill="none" x1="95" y1="34.25" x2="18" y2="34.25"/>
	<rect x="18" y="33.25" fill="#E18A48" width="77" height="2"/>
</g>
<g>
	<line fill="none" x1="95" y1="39.25" x2="18" y2="39.25"/>
	<rect x="18" y="38.25" fill="#E18A48" width="77" height="2"/>
</g>
<g>
	<line fill="none" x1="95" y1="78.25" x2="18" y2="78.25"/>
	<rect x="18" y="77.25" fill="#E18A48" width="77" height="2"/>
</g>
<g>
	<line fill="none" x1="95" y1="84.25" x2="18" y2="84.25"/>
	<rect x="18" y="82.25" fill="#E18A48" width="77" height="2"/>
</g>
<g>
	<line fill="none" x1="95" y1="45.25" x2="58" y2="45.25"/>
	<rect x="58" y="44.25" fill="#E18A48" width="37" height="2"/>
</g>
<g>
	<line fill="none" x1="95" y1="49.25" x2="58" y2="49.25"/>
	<rect x="58" y="48.25" fill="#E18A48" width="37" height="2"/>
</g>
<g>
	<line fill="none" x1="95" y1="57.25" x2="58" y2="57.25"/>
	<rect x="58" y="55.25" fill="#E18A48" width="37" height="2"/>
</g>
<g>
	<line fill="none" x1="95" y1="61.25" x2="58" y2="61.25"/>
	<rect x="58" y="59.25" fill="#E18A48" width="37" height="2"/>
</g>
<g>
	<line fill="none" x1="95" y1="68.25" x2="58" y2="68.25"/>
	<rect x="58" y="66.25" fill="#E18A48" width="37" height="2"/>
</g>
<g>
	<line fill="none" x1="95" y1="72.25" x2="58" y2="72.25"/>
	<rect x="58" y="70.25" fill="#E18A48" width="37" height="2"/>
</g>
<g>
	<line fill="none" x1="39" y1="118.25" x2="18" y2="118.25"/>
	<rect x="18" y="117.25" fill="#E18A48" width="21" height="2"/>
</g>
<g>
	<line fill="none" x1="29" y1="122.25" x2="18" y2="122.25"/>
	<rect x="18" y="121.25" fill="#E18A48" width="11" height="2"/>
</g>
<g>
	<line fill="none" x1="42" y1="122.25" x2="32" y2="122.25"/>
	<rect x="32" y="121.25" fill="#E18A48" width="10" height="2"/>
</g>
<g>
	<path fill="#E18A48" d="M69.104,9.954"/>
</g>
<g opacity="0.2">
	<polygon fill="#E18A48" points="3,147.25 3,8.25 0,8.25 0,150.25 103,150.25 103,147.25 	"/>
</g>
<path fill="#E18A48" d="M18,44.25v29h34v-29H18z M50,46.25v8.585L37.725,66.56l-7.966-7.967L20,67.024V46.25H50z M20,71.25v-1.582
	l9.659-8.345l8.034,8.033L50,57.601V71.25H20z"/>
<g>
	<path fill="#E18A48" d="M40,56.583c-2.298,0-4.167-1.869-4.167-4.167s1.869-4.167,4.167-4.167c2.297,0,4.167,1.869,4.167,4.167
		S42.298,56.583,40,56.583z M40,50.25c-1.195,0-2.167,0.972-2.167,2.167s0.972,2.167,2.167,2.167s2.167-0.972,2.167-2.167
		S41.195,50.25,40,50.25z"/>
</g>
<path fill="#E18A48" d="M233.5,59.175v19.05h22.334v-19.05H233.5z M254.521,60.489v5.639l-8.063,7.702l-5.231-5.233l-6.41,5.538
	V60.489H254.521z M234.813,76.912v-1.04l6.346-5.481l5.276,5.275l8.085-7.721v8.966L234.813,76.912L234.813,76.912z"/>
<g>
	<path fill="#E18A48" d="M247.952,67.277c-1.511,0-2.738-1.228-2.738-2.737s1.229-2.737,2.738-2.737
		c1.508,0,2.735,1.229,2.735,2.737S249.459,67.277,247.952,67.277z M247.952,63.117c-0.785,0-1.425,0.639-1.425,1.423
		c0,0.785,0.64,1.424,1.425,1.424c0.783,0,1.422-0.639,1.422-1.424S248.735,63.117,247.952,63.117z"/>
</g>
<g opacity="0.2">
	<path fill="#E18A48" d="M129.562,128.875c-3.3,0-6.062-2.816-6.062-6.188V32.994c-2,0.431-3,1.526-3,3.975v88.909
		c0,3.177,3.279,5.997,6.025,5.997h129.931c2.625,0,4.851,0,5.039-3H129.562z"/>
</g>
<path fill="#E18A48" d="M261.57,33.875H184.5V32.24c0-3.251-2.722-6.365-6.057-6.365H129.56c-3.3,0-6.062,3.058-6.062,6.365v28.773
	v61.674c0,3.369,2.762,6.188,6.062,6.188h132.01c3.306,0,5.931-2.875,5.931-6.188V53.341V39.913
	C267.5,36.616,264.933,33.875,261.57,33.875z M129.562,27.875h48.884c2.223,0,4.055,2.226,4.055,4.365v3.635h79.07
	c2.23,0,3.93,1.872,3.93,4.038v8.937c-1-0.879-2-1.453-3-1.559v-7.416H138.767l-9.267,9.133v5.867h0.062
	c-1.507,0-3.062,0.654-4.062,1.587V32.24C125.5,30.064,127.393,27.875,129.562,27.875z M138.463,43.042l-0.004,5.672l-5.709-0.003
	L138.463,43.042z M131.5,50.953h6.729l0,0c1.828-0.016,2.283-1.251,2.284-1.534l-0.034-7.56L260.5,41.875v5H187.11
	c-2.938,0-5.361,1.424-8.375,4.438l-0.05,0.151c-0.825,0.952-3.509,3.432-5.979,3.432c-2.584-0.001-6.387-0.021-6.395-0.021H131.5
	V50.953z M265.5,122.688c0,2.201-1.736,4.188-3.932,4.188H129.562c-2.133,0-4.062-1.987-4.062-4.188V61.014
	c0-2.208,1.893-4.139,4.062-4.139h36.744c0,0,3.81,0.094,6.403,0.095c3.766,0,7.142-3.886,7.5-4.29
	c2.606-2.604,4.543-3.805,6.899-3.805h74.46c2.193,0,3.932,2.285,3.932,4.466V122.688z"/>

</svg>
