<?xml version="1.0" encoding="UTF-8"?>
<svg width="70px" height="70px" viewBox="0 0 70 70" version="1.1" xmlns="http://www.w3.org/2000/svg" xmlns:xlink="http://www.w3.org/1999/xlink">
    <!-- Generator: Sketch 47 (45396) - http://www.bohemiancoding.com/sketch -->
    <title>Icons/Logo-yellow</title>
    <desc>Created with Sketch.</desc>
    <defs></defs>
    <g id="Design" stroke="none" stroke-width="1" fill="none" fill-rule="evenodd">
        <g id="Icons/Logo-yellow" fill="#FFF200">
            <g id="Page-1" transform="translate(7.000000, 0.475287)">
                <path d="M31.6012578,0.0999617732 C31.5450382,0.0726993691 31.4840615,0.0553899062 31.4200577,0.0497643308 C31.1865301,0.030291185 30.962949,0.175690673 30.8262921,0.366527502 C30.6892028,0.557364331 30.6226042,0.788012924 30.5611951,1.01476689 C30.2848541,2.03299604 30.0595432,3.06550551 29.8861273,4.10623697 C29.7602819,4.85876587 29.6776823,5.61605487 29.5890283,6.37334387 C29.5795142,6.44993824 29.570865,6.52783083 29.5885958,6.60269425 C29.6058942,6.67755768 29.6551944,6.74939195 29.7287124,6.77232699 C29.8065549,6.79656024 29.8926142,6.75934489 29.9492662,6.70092546 C30.0054859,6.64250602 30.0387852,6.56591165 30.0703546,6.49104822 C30.5819531,5.28674234 31.036467,4.06945436 31.4524921,2.8287986 C31.5921762,2.41164055 31.7284006,1.99361702 31.8590031,1.57386254 C31.9506843,1.28219809 32.0410681,0.977551543 31.9947951,0.675501415 C31.9584685,0.437063564 31.8114326,0.201222131 31.6012578,0.0999617732" id="Fill-1"></path>
                <path d="M36.9241735,6.09448842 C36.903848,6.04385824 36.8744408,5.99712269 36.835952,5.95601272 C36.695403,5.80585313 36.465335,5.76993599 36.2651067,5.81320965 C36.064446,5.85691604 35.8858406,5.96812934 35.7132897,6.07890991 C34.9374591,6.57872065 34.1871435,7.11704494 33.4653703,7.69128638 C32.9433928,8.10628075 32.446498,8.54983574 31.9448461,8.9894961 C31.8942484,9.03363523 31.8432183,9.0795053 31.810784,9.13835748 C31.7783496,9.19720965 31.7679706,9.27293855 31.8021348,9.33049251 C31.8384613,9.39194111 31.9163038,9.41833804 31.987227,9.4131452 C32.0581502,9.4083851 32.1243164,9.37809354 32.1891852,9.34823471 C33.2262207,8.86573344 34.233849,8.34168945 35.2306659,7.77956464 C35.5649564,7.59089149 35.8983819,7.39875645 36.2292127,7.20272679 C36.4592806,7.0668475 36.6962679,6.92231349 36.8433038,6.69902142 C36.9592027,6.52289763 37.0015836,6.28359431 36.9241735,6.09448842" id="Fill-4"></path>
                <path d="M27.9760013,47.9636559 C26.7041407,47.9636559 25.6385629,48.9269275 25.5092578,50.1931147 L23.6124948,68.7899689 C23.5904394,69.0046063 23.4101042,69.167748 23.1947398,69.167748 L17.7358159,69.167748 L17.7358159,68.8656978 C17.7358159,68.724193 17.7959277,68.5896119 17.9010151,68.4948426 L18.5609468,67.9015608 C18.7239836,67.7548631 18.8169622,67.546284 18.8169622,67.3273193 L18.8169622,47.974907 L5.76709386,60.0815781 C5.2537656,60.5580211 4.457177,60.5472027 3.95639003,60.0577776 L0.437475041,56.6183873 L0.702572115,56.3535526 C0.811119204,56.2449357 0.953398057,56.1765633 1.10605592,56.1605521 L2.48603106,56.0151526 C2.74334388,55.9883229 2.98162852,55.8654257 3.15374702,55.6715597 L17.9446934,38.9739863 C18.5068895,38.3391618 18.8169622,37.5199914 18.8169622,36.6718278 L18.8169622,30.0574492 C18.8169622,28.6536518 17.7699801,27.4714155 16.3783286,27.3022155 L4.12894098,25.8127362 C3.94082153,25.7898012 3.74967486,25.7928303 3.56198786,25.8218237 L1.82047739,26.0927168 C1.59689634,26.1273357 1.37374774,26.0265081 1.2522269,25.8356712 C1.12378671,25.6344487 1.22541447,25.3665848 1.45461748,25.3003761 L3.20910171,24.7953725 C3.36046219,24.7516661 3.46468469,24.6136232 3.46468469,24.4556743 L3.46468469,24.3124385 C3.46468469,24.176992 3.36175957,24.0640477 3.22726497,24.0519311 L0.577591602,23.8108968 C0.296926021,23.7849326 0.0651282534,23.5798155 0.00544897738,23.3041623 C-0.0265529532,23.1565991 0.0845888869,23.0163925 0.235516911,23.0133633 C0.235516911,23.0133633 2.53576379,22.9687914 3.20218237,22.9588385 C3.35440777,22.9562421 3.43787227,22.9090738 3.43657489,22.798726 C3.43527751,22.7069858 3.43484506,22.5672119 3.43484506,22.5672119 C3.4344126,22.4789336 3.37949037,22.3997428 3.29732325,22.3685858 L1.06281006,21.5160948 C0.775657605,21.4066124 0.618675161,21.0959076 0.702139656,20.799483 C0.744520591,20.646727 0.901935493,20.5567178 1.05545827,20.5969623 L4.71967932,21.5667249 L4.87060735,21.5667249 L3.71767293,19.9707925 C3.54295969,19.72846 3.59355733,19.3913582 3.83227444,19.2117725 C3.93303727,19.1356109 4.07358629,19.1425347 4.16656487,19.2277838 L6.51697694,21.3849756 C6.64411975,21.5018145 6.81104874,21.5667249 6.98403214,21.5667249 L16.0025222,21.5667249 L8.78219468,10.9542932 C8.62521224,10.7232119 8.43493049,10.5163638 8.21826877,10.34024 L6.36561646,8.83345129 C6.18009175,8.68242622 6.10051938,8.43533364 6.16409079,8.20381957 C6.22463498,7.98442213 6.47892059,7.88489272 6.67179709,8.00519349 L7.90214159,8.77070448 C8.04960994,8.86244464 8.23859432,8.84989528 8.37265646,8.73954745 L8.54650478,8.59631165 C8.66197121,8.50197507 8.68229676,8.33277507 8.59277785,8.21377251 L7.11333724,6.24006101 C7.00089803,6.08990142 6.99873573,5.88478428 7.10814774,5.73246101 C7.24437217,5.54292239 7.51984825,5.52474745 7.67942545,5.69524566 L9.39455595,7.52745231 C9.50483287,7.64558939 9.68776282,7.65727328 9.81231088,7.55471471 L9.88366653,7.49586254 C9.99524083,7.40412239 10.035027,7.25136638 9.98313199,7.1167853 L9.19389519,5.08249067 C9.10610611,4.85660218 9.20557157,4.60085487 9.42266575,4.49310346 C9.62202913,4.39400679 9.8642059,4.47319758 9.96669857,4.67095819 L11.1754201,6.9960518 C11.2048273,7.05230755 11.2402889,7.10596689 11.28094,7.15486612 L11.8050797,7.7935853 L12.1713721,6.07865026 C12.2280242,5.81338275 12.4870668,5.64201906 12.7530288,5.69394745 C12.9048218,5.72337354 13.0138013,5.8566564 13.0125039,6.0115761 L12.9904486,8.87412853 C12.9882863,9.10477712 13.0674262,9.32893466 13.2140296,9.50678939 C13.2140296,9.50678939 18.6625745,16.1428047 20.5576078,18.4397705 C22.3172815,20.5722963 24.9959296,21.9094523 27.9760013,21.9094523 C30.9565054,21.9094523 33.6351535,20.5722963 35.3943947,18.4397705 C37.2898604,16.1428047 42.7384054,9.50678939 42.7384054,9.50678939 C42.8850088,9.32893466 42.9637162,9.10477712 42.9619864,8.87412853 L42.9394986,6.0115761 C42.9386337,5.8566564 43.0476132,5.72337354 43.1994061,5.69394745 C43.4653681,5.64201906 43.7239783,5.81338275 43.7806304,6.07865026 L44.1469228,7.7935853 L44.671495,7.15486612 C44.7121461,7.10596689 44.7471752,7.05230755 44.7770148,6.9960518 L45.9857364,4.67095819 C46.0882291,4.47319758 46.3299734,4.39400679 46.5297692,4.49310346 C46.7468634,4.60085487 46.8458964,4.85660218 46.7585398,5.08249067 L45.969303,7.1167853 C45.9169755,7.25136638 45.9571941,7.40412239 46.0687684,7.49586254 L46.1401241,7.55471471 C46.2646721,7.65727328 46.4471696,7.64558939 46.5574466,7.52745231 L48.2725771,5.69524566 C48.4321543,5.52474745 48.7076303,5.54292239 48.8442872,5.73246101 C48.9536992,5.88478428 48.9515369,6.08990142 48.8390977,6.24006101 L47.3596571,8.21377251 C47.2701382,8.33277507 47.2904638,8.50197507 47.4059302,8.59631165 L47.5793461,8.73954745 C47.7138407,8.84989528 47.902825,8.86244464 48.0502934,8.77070448 L49.2802054,8.00519349 C49.4735144,7.88489272 49.7278,7.98442213 49.7883442,8.20381957 C49.8514831,8.43533364 49.7723432,8.68242622 49.5863861,8.83345129 L47.7341662,10.34024 C47.517072,10.5163638 47.3272227,10.7232119 47.1702403,10.9542932 L39.9494803,21.5667249 L48.9684028,21.5667249 C49.1413862,21.5667249 49.3078828,21.5018145 49.435458,21.3849756 L51.7858701,19.2277838 C51.8784162,19.1425347 52.0193977,19.1356109 52.1201605,19.2117725 C52.3584452,19.3913582 52.4094753,19.72846 52.234762,19.9707925 L51.0813952,21.5667249 L51.2327556,21.5667249 L54.8969767,20.5969623 C55.050067,20.5567178 55.2074819,20.646727 55.2502953,20.799483 C55.3337598,21.0959076 55.1767774,21.4066124 54.8891924,21.5160948 L52.6551117,22.3685858 C52.5725121,22.3997428 52.5180224,22.4789336 52.5171575,22.5672119 C52.5171575,22.5672119 52.516725,22.7069858 52.5158601,22.798726 C52.5145627,22.9090738 52.5980272,22.9562421 52.7502526,22.9588385 C53.4166712,22.9687914 55.7164856,23.0133633 55.7164856,23.0133633 C55.8678461,23.0163925 55.9789879,23.1565991 55.946986,23.3041623 C55.8868743,23.5798155 55.6555089,23.7849326 55.3744109,23.8108968 L52.72517,24.0519311 C52.5906754,24.0640477 52.4877503,24.176992 52.4877503,24.3124385 L52.4877503,24.4556743 C52.4877503,24.6136232 52.5915403,24.7516661 52.7433333,24.7953725 L54.4978175,25.3003761 C54.7270205,25.3665848 54.8286483,25.6344487 54.7002081,25.8356712 C54.5786872,26.0265081 54.3555386,26.1273357 54.1315251,26.0927168 L52.3904471,25.8218237 C52.2027601,25.7928303 52.0116134,25.7898012 51.8230615,25.8127362 L39.5741064,27.3022155 C38.1820224,27.4714155 37.1354727,28.6536518 37.1354727,30.0574492 L37.1354727,36.6718278 C37.1354727,37.5199914 37.4455455,38.3391618 38.0077416,38.9739863 L52.7982555,55.6715597 C52.970374,55.8654257 53.2086586,55.9883229 53.4659715,56.0151526 L54.8463791,56.1605521 C54.9986045,56.1765633 55.1413158,56.2449357 55.2498629,56.3535526 L55.5149599,56.6183873 L51.9956125,60.0577776 C51.4948255,60.5472027 50.6986694,60.5580211 50.1849086,60.0815781 L37.1354727,47.974907 L37.1354727,67.3273193 C37.1354727,67.546284 37.2284513,67.7548631 37.3910557,67.9015608 L38.0509874,68.4948426 C38.1560749,68.5896119 38.2166191,68.724193 38.2166191,68.8656978 L38.2166191,69.167748 L32.7576951,69.167748 C32.5423308,69.167748 32.3615631,69.0046063 32.3395077,68.7899689 L30.4431771,50.1931147 C30.313872,48.9269275 29.2482942,47.9636559 27.9760013,47.9636559" id="Fill-6"></path>
                <path d="M25.429426,17.9995908 C25.4000188,18.3263069 25.6054366,18.6274916 25.9194015,18.7226936 C26.570684,18.920887 27.2600229,19.0303693 27.9761742,19.0303693 C28.6923256,19.0303693 29.3820969,18.920887 30.0333794,18.7226936 C30.3469119,18.6274916 30.5523297,18.3263069 30.52249,17.9995908 L29.7548761,9.54781282 C29.7271988,9.24316627 29.4720483,9.00992126 29.1663001,9.00992126 L26.7864808,9.00992126 C26.4807327,9.00992126 26.2251497,9.24316627 26.1974723,9.54781282 L25.429426,17.9995908 Z" id="Fill-9"></path>
                <path d="M24.350788,0.0999617732 C24.4070076,0.0726993691 24.4679842,0.0553899062 24.5319881,0.0497643308 C24.7659481,0.030291185 24.9895292,0.175690673 25.1261861,0.366527502 C25.262843,0.557364331 25.3298741,0.788012924 25.3908507,1.01476689 C25.6676242,2.03299604 25.8925026,3.06550551 26.0663509,4.10623697 C26.1917639,4.85876587 26.2743635,5.61605487 26.3634499,6.37334387 C26.3725315,6.44993824 26.3811807,6.52783083 26.3638824,6.60269425 C26.3461516,6.67755768 26.2968513,6.74939195 26.2237658,6.77232699 C26.1459233,6.79656024 26.059864,6.75934489 26.003212,6.70092546 C25.9465599,6.64250602 25.9136931,6.56591165 25.8821236,6.49104822 C25.3700927,5.28674234 24.9160112,4.06945436 24.4999861,2.8287986 C24.3598696,2.41164055 24.2240776,1.99361702 24.0930427,1.57386254 C24.0017939,1.28219809 23.9114101,0.977551543 23.9572507,0.675501415 C23.9935772,0.437063564 24.1410456,0.201222131 24.350788,0.0999617732" id="Fill-11"></path>
                <path d="M19.027829,6.09448842 C19.048587,6.04385824 19.0775617,5.99712269 19.1160505,5.95601272 C19.2565996,5.80585313 19.4870999,5.76993599 19.6873282,5.81320965 C19.887989,5.85691604 20.0661619,5.96812934 20.2391453,6.07890991 C21.0145434,6.57872065 21.764859,7.11704494 22.4870647,7.69128638 C23.0090421,8.10628075 23.505937,8.54983574 24.0075889,8.9894961 C24.0577541,9.03363523 24.1092166,9.0795053 24.141651,9.13835748 C24.1740854,9.19720965 24.184032,9.27293855 24.1498677,9.33049251 C24.1135412,9.39194111 24.0356987,9.41833804 23.9647755,9.4131452 C23.8938523,9.4083851 23.8276861,9.37809354 23.7632498,9.34823471 C22.7262143,8.86573344 21.7185859,8.34168945 20.721769,7.77956464 C20.3870461,7.59089149 20.0536206,7.39875645 19.7232223,7.20272679 C19.4931544,7.0668475 19.2561671,6.92231349 19.1091312,6.69902142 C18.9932323,6.52289763 18.9508514,6.28359431 19.027829,6.09448842" id="Fill-14"></path>
                <path d="M30.5226198,17.9995908 C30.5520269,18.3263069 30.3470416,18.6274916 30.0330767,18.7226936 C29.3817942,18.920887 28.6924553,19.0303693 27.9758715,19.0303693 C27.2601527,19.0303693 26.5703813,18.920887 25.9190988,18.7226936 C25.6055664,18.6274916 25.3997161,18.3263069 25.4295557,17.9995908 L26.1976021,9.54781282 C26.224847,9.24316627 26.4804299,9.00992126 26.7861781,9.00992126 L29.1659974,9.00992126 C29.4717455,9.00992126 29.7268961,9.24316627 29.7550059,9.54781282 L30.5226198,17.9995908 Z" id="Fill-16"></path>
            </g>
        </g>
    </g>
</svg>