<?xml version="1.0" encoding="UTF-8"?>
<svg width="100px" height="100px" viewBox="0 0 100 100" version="1.1" xmlns="http://www.w3.org/2000/svg" xmlns:xlink="http://www.w3.org/1999/xlink">
    <!-- Generator: Sketch 47 (45396) - http://www.bohemiancoding.com/sketch -->
    <title>canberra</title>
    <desc>Created with Sketch.</desc>
    <defs></defs>
    <g id="Page-1" stroke="none" stroke-width="1" fill="none" fill-rule="evenodd">
        <g id="canberra">
            <g id="Page-1" transform="translate(4.000000, 23.000000)">
                <path d="M34.2126,8.05970149e-05 L34.2126,0.000282089552 L17.1064,0.000282089552 L17.1064,8.05970149e-05 L8.5534,8.05970149e-05 L7.8406,2.15423731 L4.2766,2.15423731 L2.1384,10.7714687 L4.2768,8.61690896 L5.8804,8.61690896 L4.2768,15.0797821 L8.5532,10.7712672 L10.6916,10.7712672 L10.6916,12.9256254 L10.6916,17.2339388 L10.6916,17.2339388 L10.6914,17.2339388 L10.6914,17.2339388 L9.6354,20.2132075 L8.5532,23.2658194 L8.5532,23.2662224 L8.3156,23.9361851 L6.5998,28.7760358 L5.9396,30.6382299 L5.9398,30.6380284 L5.9398,30.6382299 L2.3758,40.6914985 L2.3762,40.6910955 L1.1882,44.0421179 L0,47.3933418 L0.0002,47.3933418 L2.1384,47.3933418 L4.2768,47.3933418 L4.2766,47.3935433 L6.415,47.3935433 L8.5532,47.3935433 L10.6914,47.3935433 L14.9682,47.3935433 L14.9684,47.3931403 L21.383,47.3931403 L21.383,47.3933418 L21.383,47.3935433 L21.383,49.5474985 L22.8086,49.5474985 L24.5906,52.2402448 L21.383,53.8560134 L25.6598,53.8560134 L25.6598,53.8562149 L25.6598,53.8560134 L27.7978,53.8560134 L29.9362,53.8560134 L32.0746,53.8560134 L32.0746,53.8562149 L32.0746,53.8560134 L36.351,53.8560134 L32.0746,51.7018567 L32.0746,49.5474985 L32.0746,47.3933418 L32.0742,47.3933418 L27.798,47.3933418 L27.798,47.3935433 L27.798,49.5474985 L29.2234,49.5474985 L31.0054,52.2402448 L28.867,53.3174239 L25.6598,51.7018567 L25.6598,49.5474985 L25.6598,47.3935433 L27.7978,47.3935433 L27.798,47.3933418 L27.798,47.3931403 L34.2128,47.3931403 L40.6276,47.3931403 L43.6462,44.3520134 L40.6274,47.3935433 L44.9042,47.3935433 L53.4572,38.7763119 L53.4572,23.6968119 L59.8722,23.6968119 L59.8724,23.6968119 L60.7272,23.6968119 L60.6412,23.3705955 L60.7274,23.6970134 L76.9782,23.6970134 L84.4622,17.2341403 L66.2868,17.2341403 L59.0168,17.2341403 L59.0168,17.2339388 L66.287,17.2339388 L66.2868,17.2339388 L84.4622,17.2339388 L91.9464,10.7712672 L72.7018,10.7712672 L57.3062,10.7712672 L57.3062,10.7710657 L49.1806,10.7710657 L51.319,8.61690896 L49.1806,8.61690896 L51.3188,8.61690896 L51.3188,2.15423731 L51.319,2.15423731 L46.8284,8.05970149e-05 L34.2126,8.05970149e-05 Z M22.4522,11.8482448 L22.4522,11.8484463 L19.2448,15.0797821 L19.2446,15.0797821 L22.4522,11.8482448 Z M49.1806,17.2339388 L59.0164,17.2339388 L59.0166,17.2339388 L49.1806,17.2339388 Z M17.1064,17.2339388 L17.1066,17.2339388 L17.1064,17.2339388 Z M16.3936,17.9520582 L16.3938,17.9520582 L15.3454,19.0080806 L16.3936,17.9520582 Z M23.5214,19.388297 L23.5214,24.9891851 L23.5212,24.9891851 L23.5212,19.388297 L20.0464,22.8890284 L23.5214,19.388297 Z M60.5474,23.0163716 L60.5474,23.0165731 L60.2098,23.356491 L60.5474,23.0163716 Z M49.1804,32.3138418 L42.7658,38.7765134 L36.351,45.2391851 L42.7658,38.7763119 L42.7658,32.3138418 L42.7658,38.7763119 L49.1804,32.3138418 Z M36.351,38.7763119 L38.489,36.6223567 L38.4892,36.6221552 L38.489,36.6223567 L36.351,38.7763119 L32.0746,43.0848269 L36.351,38.7763119 Z" id="Fill-1" fill="#FFFFFF"></path>
                <polygon id="Fill-2" fill="#FFF4BC" points="17.10648 0.000261940299 17.10648 2.15421716 32.07428 2.15421716 34.21268 0.000261940299"></polygon>
                <polygon id="Fill-3" fill="#F8EE62" points="8.55342 8.05970149e-05 7.84062 2.15423731 17.10642 2.15423731 17.10642 8.05970149e-05"></polygon>
                <polygon id="Fill-4" fill="#EFED6F" points="34.2126 8.05970149e-05 32.0746 2.15423731 51.319 2.15423731 46.8284 8.05970149e-05"></polygon>
                <polygon id="Fill-5" fill="#FEF38D" points="32.07438 2.15431791 17.10658 2.15431791 17.10658 17.2338179"></polygon>
                <polygon id="Fill-6" fill="#FEF38D" points="12.82986 21.5424537 12.82986 17.2339388 12.82986 21.5424537 17.10646 17.2339388 17.10646 2.15423731 7.84046 2.15423731 6.41506 6.46295373 8.55326 8.61711045 10.69166 8.61711045 10.69166 17.2339388 8.55326 23.2658194 8.55326 25.8511701"></polygon>
                <polygon id="Fill-7" fill="#FEF38D" points="8.55328 23.2658597 7.12788 27.2872478 8.55328 25.8512104"></polygon>
                <polygon id="Fill-8" fill="#FFF3AE" points="42.76578 25.8509888 38.48898 30.1597052 38.48898 36.6223769 42.76578 32.3136604 44.90378 30.1597052 44.90378 23.6968321"></polygon>
                <polygon id="Fill-9" fill="#FEF076" points="29.9361 25.8509888 25.6595 30.1597052 23.5213 32.3136604 23.5213 38.7763321 27.7981 34.4678172 29.9361 32.3136604"></polygon>
                <polygon id="Fill-10" fill="#FEF076" points="38.48922 30.159403 42.76602 25.8508881 42.76602 19.3880149 34.21262 28.0052463 34.21262 34.4681194"></polygon>
                <polygon id="Fill-11" fill="#FEF38D" points="42.76578 25.8509888 44.90378 23.6968321 47.04238 21.5422724 44.90378 23.6968321 44.90378 30.1597052 49.18058 25.8509888 49.18058 12.9256455 42.76578 19.3883172"></polygon>
                <polygon id="Fill-12" fill="#F9EF5A" points="38.48922 30.159403 34.21262 34.4681194 32.07442 36.6220746 32.07442 43.0849478 36.35122 38.7762313 38.48922 36.6220746"></polygon>
                <polygon id="Fill-13" fill="#FEF38D" points="36.35094 38.7764127 36.35094 45.2390843 42.76574 38.7764127 42.76574 32.313741 38.48914 36.622256"></polygon>
                <polygon id="Fill-14" fill="#FEF076" points="14.96814 34.4679381 19.24494 30.1592216 23.52114 25.8511097 23.52114 19.3884381 17.10634 25.8511097 14.96814 28.0052664"></polygon>
                <polygon id="Fill-15" fill="#FEF38D" points="17.10642 19.3882769 17.10642 17.2341201 12.82982 21.5424336 12.82982 23.6969933"></polygon>
                <polygon id="Fill-16" fill="#FEF38D" points="12.82986 21.5424537 8.55326 25.8511701 8.55326 28.0051254 10.69166 25.8511701 12.82986 23.6966104"></polygon>
                <polygon id="Fill-17" fill="#FEF076" points="19.2448 36.6221351 23.5214 32.3136201 25.6596 30.1594634 25.6596 23.6967918 23.5214 25.850747 19.2448 30.1594634"></polygon>
                <polygon id="Fill-18" fill="#FEF38D" points="19.2448 36.6221351 17.1066 38.7762918 17.1066 45.2389634 21.3828 40.9308515 23.5214 38.7762918 23.5214 32.3136201"></polygon>
                <polygon id="Fill-19" fill="#FEF38D" points="17.10642 25.8509888 17.10642 23.6968321 17.10642 19.3883172 12.82982 23.6968321 10.69162 25.8509888 10.69162 32.3136604 14.96822 28.0051455"></polygon>
                <polygon id="Fill-20" fill="#FFFFF2" points="19.2448 30.159403 14.968 34.4681194 12.8298 36.6220746 12.8298 43.0849478 17.1066 38.7762313 19.2448 36.6220746"></polygon>
                <polygon id="Fill-21" fill="#FEF38D" points="14.96814 28.0052261 10.69154 32.3139425 8.55334 34.4678978 8.55334 40.9305694 12.83014 36.6220545 14.96814 34.4678978"></polygon>
                <polygon id="Fill-22" fill="#FEF38D" points="34.21266 28.0052261 29.93586 32.3139425 27.79786 34.4678978 27.79786 40.9305694 32.07446 36.6220545 34.21266 34.4678978"></polygon>
                <polygon id="Fill-23" fill="#FEF38D" points="21.38298 47.3934224 25.65978 47.3934224 25.65978 43.084706"></polygon>
                <polygon id="Fill-24" fill="#FEF38D" points="17.10642 45.2391246 14.96822 47.3932813 21.38302 47.3932813 21.38302 40.9306097"></polygon>
                <polygon id="Fill-25" fill="#FFF2A5" points="27.79792 40.93065 27.79792 34.4679784 23.52112 38.7764933 21.38292 40.93065 21.38292 47.3933216 25.65972 43.0848067"></polygon>
                <polygon id="Fill-26" fill="#FCF070" points="32.07438 36.6221351 27.79778 40.9308515 25.65958 43.0848067 25.65958 47.3935231 27.79778 47.3935231 32.07438 43.0848067"></polygon>
                <polygon id="Fill-27" fill="#F8EE5C" points="44.90408 30.159403 42.76608 32.3135597 42.76608 38.7762313 49.18088 32.3135597 49.18088 25.8508881"></polygon>
                <polygon id="Fill-28" fill="#EAE855" points="36.35094 45.2391246 34.21294 47.3932813 40.62774 47.3932813 49.18054 38.776453 49.18054 32.3137813 42.76574 38.776453"></polygon>
                <polygon id="Fill-29" fill="#FEF28B" points="36.35094 38.7764127 32.07434 43.0851291 27.79794 47.393241 34.21294 47.393241 36.35094 45.2390843"></polygon>
                <polygon id="Fill-30" fill="#EFED6F" points="17.10642 38.7764127 12.82982 43.0851291 8.55342 47.393241 14.96822 47.393241 17.10642 45.2390843"></polygon>
                <polygon id="Fill-31" fill="#FFFFF2" points="2.37618 40.691156 0.000179999989 47.3934022 2.13838 47.3934022 6.41498 43.0846858 8.55318 40.9307306 8.55318 34.468059"></polygon>
                <polygon id="Fill-32" fill="#FEF38D" points="10.69158 32.3137007 10.69158 25.8510291 8.55338 28.0049843 5.93978 30.6380888 2.37578 40.691559 8.55338 34.4678575"></polygon>
                <polygon id="Fill-33" fill="#FEF38D" points="8.55328 25.8509888 7.12788 27.2870261 5.93968 30.63825 8.55328 28.0051455"></polygon>
                <polygon id="Fill-34" fill="#FFFFC8" points="2.13844 47.3934224 6.41504 47.3934224 6.41504 43.084706"></polygon>
                <polygon id="Fill-35" fill="#FEF38D" points="12.82986 36.6221351 8.55326 40.9308515 6.41506 43.0848067 6.41506 47.3935231 8.55326 47.3935231 12.82986 43.0848067"></polygon>
                <polygon id="Fill-36" fill="#9CE8C2" points="17.10642 19.3882769 17.10642 23.6969933 17.10642 25.8509485 23.52122 19.3882769 23.52122 25.8509485 25.65942 23.6969933 27.79802 21.5424336 25.65942 23.6969933 25.65942 30.1596649 29.93602 25.8509485 34.21282 21.5424336 29.93602 25.8509485 29.93602 32.3136201 34.21282 28.0051052 42.76582 19.3882769 49.18062 12.9256052 49.18062 8.61688881 51.31882 8.61688881 51.31882 2.15421716 32.07422 2.15421716 17.10642 17.2341201"></polygon>
                <polygon id="Fill-37" fill="#78CEA1" points="32.07438 8.61702985 25.65958 15.0797015 19.24478 8.61702985"></polygon>
                <polygon id="Fill-38" fill="#FFFFFF" points="29.9361 8.61702985 25.6595 12.9257463 21.3831 8.61702985"></polygon>
                <polygon id="Fill-39" fill="#392348" points="28.86696 8.61702985 25.65976 11.8485672 22.45216 8.61702985"></polygon>
                <polygon id="Fill-40" fill="#78CEA1" points="51.31902 8.61702985 44.90402 15.0797015 38.48922 8.61702985"></polygon>
                <polygon id="Fill-41" fill="#FFFFFF" points="49.18064 8.61702985 44.90404 12.9257463 40.62764 8.61702985"></polygon>
                <polygon id="Fill-42" fill="#392348" points="48.1115 8.61702985 44.9039 11.8485672 41.6967 8.61702985"></polygon>
                <polygon id="Fill-43" fill="#092216" points="53.4572 23.6967515 53.4572 38.7762515 44.9042 47.3934828 40.6276 47.3934828 49.1806 38.7762515 49.1806 23.6967515"></polygon>
                <polygon id="Fill-44" fill="#DDBF68" points="21.38292 47.3934224 25.65972 53.856094 25.65972 47.3934224"></polygon>
                <polygon id="Fill-45" fill="#AFA34A" points="27.79794 47.3934224 32.07454 53.856094 32.07454 47.3934224"></polygon>
                <polyline id="Fill-46" fill="#FFF88A" points="14.96814 6.46279254 6.41514 6.46279254 2.13854 10.771509 4.27654 2.15427761 17.10634 2.15427761"></polyline>
                <polyline id="Fill-47" fill="#FFF88A" points="12.82986 10.7713075 8.55326 10.7713075 4.27686 15.0800239 6.41506 6.46259104 12.82986 6.46259104"></polyline>
                <polygon id="Fill-48" fill="#0D291B" points="25.65954 32.3137007 25.65954 36.6224172 32.07434 30.159544 29.40154 28.5437754 27.79754 30.159544"></polygon>
                <polygon id="Fill-49" fill="#092216" points="29.40154 28.5437754 27.79774 27.5741933 27.79774 30.159544"></polygon>
                <polygon id="Fill-50" fill="#9CE8C2" points="17.10642 34.4679381 14.96822 36.6220948 14.96822 43.0847664 19.24462 38.7766545 21.38302 36.6220948 21.38302 30.1592216"></polygon>
                <polygon id="Fill-51" fill="#0C281D" points="12.82986 25.8509888 8.55326 30.1597052 6.41506 32.3136604 6.41506 38.7763321 10.69166 34.4678172 12.82986 32.3136604"></polygon>
                <polygon id="Fill-52" fill="#092216" points="25.65954 32.3137007 21.38294 36.6224172 19.24474 38.7763724 19.24474 43.0850888 25.65954 36.6224172"></polygon>
                <polygon id="Fill-53" fill="#081E16" points="21.38298 30.159403 21.38298 36.6220746 25.65978 32.3135597 27.79778 30.159403 27.79778 27.5742537 25.39238 26.1200821 23.52118 28.0052463"></polygon>
                <polygon id="Fill-54" fill="#092216" points="17.10642 28.0052261 12.82982 32.3139425 10.69162 34.4678978 10.69162 40.9305694 14.96822 36.6220545 17.10642 34.4678978"></polygon>
                <polygon id="Fill-55" fill="#051811" points="12.82986 25.8509888 12.82986 32.3136604 17.10646 28.0051455 21.38286 23.6968321 17.37346 21.2734813 14.96806 23.6968321"></polygon>
                <polygon id="Fill-56" fill="#051811" points="13.36442 18.8497075 10.69162 17.2339388 10.69162 21.5426552"></polygon>
                <polygon id="Fill-57" fill="#092216" points="8.55328 23.6967515 8.55328 30.1594231 12.82988 25.8509082 14.96808 23.6967515 14.96808 19.8194306 13.36428 18.8498485 10.69148 21.5427963"></polygon>
                <polygon id="Fill-58" fill="#092216" points="10.69158 21.5424537 10.69158 17.2339388 8.31578 23.9359836 8.55338 23.6966104"></polygon>
                <polygon id="Fill-59" fill="#0B271B" points="8.55328 30.159403 8.55328 23.6967313 8.31568 23.936306 4.75208 33.9891716 6.41508 32.3135597"></polygon>
                <polygon id="Fill-60" fill="#0F2D26" points="6.415 38.7764127 6.415 32.313741 4.752 33.9891515 1.1884 44.0422187 4.277 40.9305694"></polygon>
                <polygon id="Fill-61" fill="#09221A" points="14.96814 43.0848873 10.69154 47.3936037 14.96814 47.3936037 19.24494 43.0848873 19.24494 38.7761709"></polygon>
                <polygon id="Fill-62" fill="#0B271B" points="17.10642 28.0052261 17.10642 34.4678978 21.38302 30.1593828 23.52122 28.0052261 23.52122 24.9892858 21.38302 23.6965097"></polygon>
                <polygon id="Fill-63" fill="#092216" points="25.39226 26.1202634 23.52106 24.9894873 23.52106 28.0054276"></polygon>
                <polygon id="Fill-64" fill="#9CE8C2" points="6.41484 38.7765336 4.27684 40.9306903 1.18824 44.0421381 3.99999976e-05 47.3933619 4.27684 47.3933619 10.69164 40.9306903 10.69164 34.4680187"></polygon>
                <polygon id="Fill-65" fill="#78CEA1" points="14.96814 36.6221351 10.69154 40.9308515 4.27654 47.3935231 10.69154 47.3935231 14.96814 43.0848067"></polygon>
                <polygon id="Fill-66" fill="#081E16" points="17.3737 21.2732194 14.9683 19.8192493 14.9683 23.6967716"></polygon>
                <polygon id="Fill-67" fill="#2B6D1B" points="49.18064 10.7713075 14.96824 10.7713075 17.10644 8.61715075 49.18064 8.61715075"></polygon>
                <polygon id="Fill-69" fill="#FD9F6F" points="19.2448 15.0797821 14.968 17.2339388 23.5214 17.2339388"></polygon>
                <polygon id="Fill-70" fill="#F6675B" points="14.96814 17.2340194 19.24494 19.3881761 23.52114 17.2340194"></polygon>
                <g id="Group-75" transform="translate(10.600000, 10.736731)" fill="#2B6D1B">
                    <polygon id="Fill-71" points="2.22986 0.0345761194 0.09166 2.18873284 0.09166 0.0345761194"></polygon>
                    <polygon id="Fill-73" points="38.58064 21.5769694 23.61284 12.960141 38.58064 12.960141"></polygon>
                </g>
                <polygon id="Fill-76" fill="#FD9F6F" points="32.07438 15.0797821 34.21258 19.3884985 36.35118 17.2339388 47.04218 17.2339388 59.01678 17.2339388 57.30638 10.7712672 34.21258 10.7712672 23.52138 17.2339388 29.93638 17.2339388"></polygon>
                <polygon id="Fill-77" fill="#FD9F6F" points="66.28688 17.2340194 72.70168 10.7713478 57.30588 10.7713478 59.01648 17.2340194"></polygon>
                <polygon id="Fill-78" fill="#FDB48D" points="72.70164 10.7713276 66.28684 17.2339993 84.46224 17.2339993 91.94644 10.7713276"></polygon>
                <polygon id="Fill-79" fill="#E15E58" points="60.54734 23.0164522 66.28674 17.2342209 59.01674 17.2342209"></polygon>
                <polygon id="Fill-80" fill="#FC5D90" points="59.87204 23.6967515 60.72704 23.6967515 60.54744 23.0163112"></polygon>
                <polygon id="Fill-81" fill="#F6675B" points="60.54734 23.0164522 60.72734 23.6968925 76.97834 23.6968925 84.46214 17.2342209 66.28674 17.2342209"></polygon>
                <polygon id="Fill-82" fill="#F6675B" points="59.01676 17.2340194 47.04256 17.2340194 36.35096 17.2340194 34.21276 19.3881761 32.07436 15.0798627 29.93616 17.2340194 23.52136 17.2340194 34.21276 23.696691 59.87236 23.696691 60.54736 23.0162507"></polygon>
                <polygon id="Fill-83" fill="#2B6D1B" points="14.96814 6.46279254 4.27654 8.61694925 6.41514 6.46279254"></polygon>
                <polygon id="Fill-85" fill="#BCAD57" points="27.79776 53.855953 36.35116 53.855953 32.07436 51.7017963"></polygon>
                <polygon id="Fill-86" fill="#EACA78" points="21.38292 53.855953 29.93612 53.855953 25.65952 51.7017963"></polygon>
                <g id="Group-91" transform="translate(21.200000, 47.206881)" fill="#2B6D1B">
                    <polygon id="Fill-87" points="0.18298 0.186541791 4.45978 2.34049701 4.45978 0.186541791"></polygon>
                    <polygon id="Fill-89" points="6.59792 0.186541791 10.87452 2.34049701 10.87452 0.186541791"></polygon>
                </g>
            </g>
        </g>
    </g>
</svg>