<?xml version="1.0" encoding="UTF-8"?><svg id="Layer_1" xmlns="http://www.w3.org/2000/svg" viewBox="0 0 522.38 635.72"><defs><style>.cls-1{fill:none;stroke:#634e40;stroke-miterlimit:10;stroke-width:5px;}.cls-2{font-family:Nano, Nano;font-size:72px;isolation:isolate;}.cls-2,.cls-3{fill:#8f634c;}.cls-3{stroke-width:0px;}</style></defs><g id="Layer_1-2"><path class="cls-1" d="m139.9,126.11h5.2c1.9,0,3.7.4,5.4,1.3l1.7.8c1.4.7,2.7,1.7,3.8,2.9l1.9,2.2c.9,1,1.5,2.1,2,3.4h0c.6,1.4.9,2.9.9,4.4l.8,200.9c0,.6,0,1.1.1,1.7l1.3,8.9c.1,1,.4,2,.8,2.9l2.9,7c.3.8.8,1.6,1.2,2.3l4.2,6.1c.4.6.9,1.1,1.3,1.6l4.6,4.6c.7.7,1.5,1.3,2.3,1.8l5.6,3.4c.8.5,1.6.8,2.4,1.1l7.6,2.5c.5.2,1,.3,1.4.4l2.1.4c.8.2,1.6.2,2.4.2h10.1c1,0,2-.1,2.9-.4l6.9-1.7c.9-.2,1.7-.5,2.5-.9l7-3.5c1-.5,1.9-1.1,2.7-1.8l6-5.4c.5-.5,1-1,1.4-1.6l4.1-5.2c.6-.7,1.1-1.6,1.5-2.4l3-6.5c.3-.7.5-1.4.7-2.1l1.1-4.6c.1-.5.2-1.1.3-1.6l.6-5.8c0-.4.1-.9.1-1.3l.8-200.5c0-1.9.4-3.7,1.3-5.3l.9-1.7c.7-1.4,1.7-2.7,2.9-3.8l2.2-1.9c1-.9,2.1-1.5,3.4-2h0c1.4-.6,2.9-.9,4.5-.9h5.2c1.9,0,3.7.4,5.4,1.3l1.7.8c1.4.7,2.7,1.7,3.8,2.9l2.3,2.6c.6.7,1.2,1.6,1.6,2.4l.1.3c.5,1.1.9,2.2,1.1,3.4l.3,2c.1.7.2,1.3.2,2v199.9c0,.5,0,.9-.1,1.4l-1.4,12c-.1.6-.2,1.1-.3,1.7l-2.7,10.1c-.2.7-.4,1.4-.8,2.1l-6.2,13.1c-.3.7-.8,1.4-1.2,2.1l-6.1,8.2c-.2.3-.5.6-.7.9l-6.8,7.5c-.5.6-1.1,1.1-1.7,1.5l-8.1,6.1c-.4.3-.8.6-1.2.8l-9.7,5.5c-.6.3-1.1.6-1.7.8l-10.9,4.1c-.7.2-1.3.4-2,.6l-10.7,2c-.7.1-1.5.2-2.2.2h-17c-.7,0-1.5-.1-2.2-.2l-10.7-2c-.7-.1-1.4-.3-2-.6l-11-4.1c-.5-.2-1-.4-1.5-.7l-7.4-4c-.5-.2-.9-.5-1.3-.8l-7.6-5.6c-.4-.3-.7-.5-1-.8l-7.5-6.8c-.5-.5-1-1-1.4-1.6l-6.7-8.7c-.4-.5-.8-1.1-1.1-1.7l-6.3-11.8c-.3-.6-.6-1.2-.8-1.8l-3.4-10.3c-.2-.5-.3-1-.4-1.4l-1.3-6.6c-.1-.4-.2-.9-.2-1.4l-.7-8.4v-200.6c0-1,.1-2,.4-2.9l.7-2.9c.3-1.3.9-2.6,1.7-3.8l1.1-1.6c.6-1,1.4-1.8,2.3-2.6l2-1.7c1-.8,2.1-1.5,3.2-1.9h.1c1-.6,2.5-.9,4-.9Z"/><path class="cls-1" d="m24.9,256.91c2.6-.7,5.3-1,8-1,6.3.1,13.3,1.4,19.1,3.8l7.6,3.2c1.3.6,2.6,1.3,3.9,2.1l6.4,4.2c.9.6,1.8,1.3,2.7,2.1l5.8,5.3c1.1,1,2.2,2.2,3.1,3.4l3.9,5.4c.7,1,1.4,2.1,1.9,3.2l4.6,9.2c.6,1.3,1.1,2.6,1.5,3.9l2.2,7.7c.3,1,.5,2,.6,3l.4,2.7c.1.9.2,1.8.2,2.7l.8,33.1c0,.5.1,1,.1,1.5l2.2,13.7c.1.5.2,1.1.4,1.6l3.6,11.4c.1.4.3.8.4,1.1l5.1,11.7c.2.4.3.7.5,1.1l5.7,9.9c.3.5.6,1,1,1.5l9.5,11.6c.2.3.5.6.8.9l7.8,7.8c.4.4.8.8,1.3,1.1l10.8,7.9c.4.3.7.5,1.1.7l11.5,6.5c.5.3.9.5,1.4.7l12.9,5c.5.2,1,.3,1.5.5l12.2,2.9c.4.1.8.2,1.2.2l12.3,1.4c.4.1.9.1,1.3.1h9.9c.4,0,.9,0,1.3-.1l12.3-1.4c.4,0,.8-.1,1.2-.2l12.2-2.9c.5-.1,1.1-.3,1.6-.5l14.5-5.8c.5-.2.9-.4,1.4-.7l9.9-5.7c.4-.2.8-.5,1.2-.8l8.6-6.5c.3-.2.5-.4.8-.6l7.4-6.7.4-.4,4.8-4.8c.4-.4.7-.8,1-1.2l8.6-11.5c.4-.5.7-1,.9-1.5l7.2-13.7c.3-.5.5-1,.6-1.5l4.3-12.2c.1-.4.3-.9.4-1.3l2.9-13.2c.1-.3.1-.7.2-1l.7-5.3c0-.4.1-.8.1-1.1l.7-32.6c0-1.3.2-2.6.4-3.9l1.6-8.2c.3-1.3.6-2.5,1.1-3.7l2.7-6.9c.4-1.1,1-2.2,1.6-3.3l3.8-6.5c.6-1,1.3-2,2-2.9l4.9-6c.8-.9,1.6-1.8,2.5-2.6l4.3-3.8c1.1-.9,2.2-1.8,3.4-2.5l8-4.8c1.4-.9,2.9-1.5,4.5-2.1l10.4-3.5c1.1-.4,2.3-.7,3.4-.9l1.2-.2c1.2-.2,2.5-.3,3.7-.3h7.2c3.5,0,7,.8,10.1,2.4l.6.3c4.1,2.1,6.3,5.7,7.4,9.7,1.3,5.1.6,10.6-1.8,15.3l-.2.4c-2,4-6.1,6.6-10.2,7.9-4.3,1.5-9.2.5-13.3,2.3l-4.4,2c-2.3.9-4.4,2.3-6.2,3.9l-1.3,1.2c-1.5,1.3-2.8,2.8-3.9,4.5l-1.3,1.9c-1.2,1.9-2.2,3.9-2.9,6.1l-.5,1.8c-.6,1.9-.9,4-1,6l-.7,31.5c0,.4,0,.9-.1,1.3l-2.2,15.5c-.1.4-.1.8-.2,1.2l-4.4,17c-.1.5-.3,1-.5,1.5l-5.9,14.1c-.1.2-.2.4-.3.7l-5.1,10.3c-.2.4-.4.8-.7,1.2l-7.4,11.1c-.2.2-.3.5-.5.7l-8.3,10.5c-.2.2-.4.4-.5.6l-8.1,8.8-.9.9-5.7,5c-.2.2-.4.3-.6.5l-12.7,9.7c-.4.3-.8.6-1.2.8l-14.2,8.2c-.3.2-.6.3-.9.5l-11,5.1c-.4.2-.8.3-1.2.5l-15.6,5.2c-.4.1-.8.2-1.2.3l-14,3c-.4.1-.7.1-1.1.2l-14.1,1.5c-.4,0-.8.1-1.2.1h-14.8c-.4,0-.8,0-1.2-.1l-14.1-1.5c-.4,0-.8-.1-1.1-.2l-14-3c-.4-.1-.8-.2-1.2-.3l-15.5-5.2c-.4-.1-.9-.3-1.3-.5l-15.5-7.4c-.4-.2-.9-.4-1.3-.7l-12.6-8.1c-.3-.2-.6-.4-.8-.6l-10.5-8.2c-.2-.2-.5-.4-.7-.6l-9.5-8.8-1.1-1.1-6.7-8.2-7.6-9.9c-.3-.3-.5-.7-.7-1.1l-6.6-11.1c-.1-.2-.3-.5-.4-.7l-5.9-11.9c-.2-.3-.3-.7-.5-1.1l-4.4-11.6c-.2-.4-.3-.9-.4-1.3l-4.5-18.7c-.1-.4-.2-.8-.2-1.2l-1.5-11.6c0-.4-.1-.8-.1-1.1l-.7-31.2c-.1-2.3-.4-4.5-1.2-6.7l-1-2.9c-.8-2.3-1.9-4.5-3.4-6.4l-1.1-1.5c-1-1.3-2.1-2.5-3.4-3.6l-1-.8c-1.8-1.5-3.8-2.8-6-3.7l-6.3-2.6c-5.2-2.2-10.9-.7-16-3.6-4.5-2.6-7.8-7-8.9-12.1-1.4-6.7,1.4-14.1,6.9-18.2,2.3-1.8,4.6-2.9,7.1-3.6Z"/><path class="cls-1" d="m206.2,70.11h1.8c1.6,0,3.2.3,4.7.8l2,.7c1.5.5,2.8,1.3,4,2.3l1.5,1.3c1.5,1.3,2.7,2.9,3.5,4.7l.8,1.9c.8,1.7,1.1,3.5,1.1,5.4v255.7c0,2.1-.5,4.1-1.4,5.9l-1.2,2.4c-.9,1.8-2.3,3.4-3.9,4.7l-1.9,1.5c-1.3,1-2.8,1.7-4.3,2.1l-.8.2c-1.6.5-3.3.6-5,.4l-3-.3c-1.6-.2-3.2-.6-4.6-1.3l-1.4-.7c-1.8-.9-3.4-2.3-4.7-3.9l-1.9-2.5c-.7-.9-1.3-2-1.7-3h0c-.6-1.6-.9-3.2-.9-4.9V87.61c0-2.1.5-4.1,1.4-5.9l1.2-2.4c.9-1.8,2.3-3.4,3.9-4.7l2.2-1.6c1.1-.9,2.4-1.5,3.8-2l.7-.2c1.2-.5,2.6-.7,4.1-.7Z"/><circle class="cls-3" cx="206.64" cy="13.1" r="13.1"/><text class="cls-2" transform="translate(0 564.72)"><tspan x="0" y="0">INSSEN</tspan></text><text class="cls-2" transform="translate(184.11 617.72)"><tspan x="0" y="0">collective</tspan></text></g></svg>