<?xml version="1.0" encoding="UTF-8"?>
<svg width="25px" height="25px" viewBox="0 0 25 25" version="1.1" xmlns="http://www.w3.org/2000/svg" xmlns:xlink="http://www.w3.org/1999/xlink">
    <!-- Generator: Sketch 47 (45396) - http://www.bohemiancoding.com/sketch -->
    <title>buttons/2</title>
    <desc>Created with Sketch.</desc>
    <defs></defs>
    <g id="Symbols" stroke="none" stroke-width="1" fill="none" fill-rule="evenodd" stroke-linecap="round" stroke-linejoin="round">
        <g id="buttons/2" stroke="#000000" fill="#000000">
            <path d="M17.126,17.348 L17.126,16.984 L8.429,16.984 C13.603,14.449 16.45,12.551 16.45,10.016 L16.45,9.808 C16.45,8.3 15.423,7 12.368,7 C10.119,7 8.936,7.897 8.468,8.885 C8.299,9.197 8.169,9.522 8.104,9.86 L8.507,9.86 C8.546,9.587 8.663,9.327 8.78,9.054 C9.235,8.118 10.275,7.351 12.355,7.351 C15.111,7.351 16.06,8.456 16.06,9.834 L16.06,9.99 C16.06,12.447 13.174,14.254 8,16.841 L8,17.348 L17.126,17.348 Z" id="2"></path>
        </g>
    </g>
</svg>