<?xml version="1.0" encoding="UTF-8"?>
<svg width="25px" height="25px" viewBox="0 0 25 25" version="1.1" xmlns="http://www.w3.org/2000/svg" xmlns:xlink="http://www.w3.org/1999/xlink">
    <!-- Generator: Sketch 47 (45396) - http://www.bohemiancoding.com/sketch -->
    <title>buttons/3</title>
    <desc>Created with Sketch.</desc>
    <defs></defs>
    <g id="Symbols" stroke="none" stroke-width="1" fill="none" fill-rule="evenodd" stroke-linecap="round" stroke-linejoin="round">
        <g id="buttons/3" stroke="#000000" fill="#000000">
            <path d="M14.695,11.94 C15.8,11.771 16.307,11.238 16.593,10.471 C16.736,10.094 16.775,9.483 16.658,9.028 C16.437,7.962 15.488,7 12.719,7 C10.119,7 8.858,7.858 8.598,9.197 C8.533,9.522 8.507,9.769 8.507,10.003 L8.871,10.003 C8.871,9.834 8.897,9.496 8.962,9.236 C9.248,8.04 10.353,7.364 12.719,7.364 C15.241,7.364 16.125,8.183 16.307,9.093 C16.398,9.496 16.398,10.042 16.281,10.354 C16.034,11.043 15.423,11.823 13.577,11.823 L10.587,11.823 L10.587,12.174 L13.629,12.174 C15.891,12.174 16.749,12.902 16.957,13.89 C17.022,14.241 17.035,14.657 16.97,14.995 C16.749,16.269 15.41,17.127 12.615,17.127 C10.106,17.127 8.962,16.451 8.52,15.294 C8.39,14.956 8.364,14.618 8.364,14.332 L8,14.332 C8,14.618 8.026,15.06 8.156,15.411 C8.611,16.542 9.625,17.478 12.641,17.478 C15.553,17.478 17.087,16.555 17.334,15.06 C17.412,14.644 17.373,14.137 17.308,13.799 C17.1,12.707 16.125,12.057 14.695,11.94 Z" id="3"></path>
        </g>
    </g>
</svg>