<?xml version="1.0" encoding="UTF-8"?>
<svg width="413px" height="166px" viewBox="0 0 413 166" version="1.1" xmlns="http://www.w3.org/2000/svg" xmlns:xlink="http://www.w3.org/1999/xlink">
    <!-- Generator: Sketch 47 (45396) - http://www.bohemiancoding.com/sketch -->
    <title>display/Base</title>
    <style>

      @keyframes bubbleAnimation{
        0% {transform: translateY(-2px)}
        50% {transform: translateY(2px)}
        100% {transform: translateY(-2px)}
      }

      #WaterBubble1{
        animation : bubbleAnimation 6s ease infinite;
      }
      #WaterBubble2{
        animation : bubbleAnimation 3s ease infinite;
      }
      #WaterBubble3{
        animation : bubbleAnimation 3s ease infinite;
      }
      #WaterBubble4{
        animation : bubbleAnimation 3s ease infinite;
      }
      #WaterBubble5{
        animation : bubbleAnimation 5s ease infinite;
      }

    </style>
    <desc>Created with Sketch.</desc>
    <defs></defs>
    <g id="Symbols" stroke="none" stroke-width="1" fill="none" fill-rule="evenodd">
        <g id="display/Base">
            <path d="M313.0331,66.3671 C309.3431,67.8151 303.7371,70.4331 297.9961,75.1201 C290.3431,81.3671 290.0321,85.0991 283.4071,89.0351 C278.6401,91.8681 273.6841,94.0781 268.0391,93.3631 C263.0231,92.7271 258.2071,90.1811 255.0901,86.1641 C251.0351,80.9371 250.0991,73.5551 252.4261,67.4001 C255.0501,60.4551 261.1461,56.3921 267.3461,52.8111 C268.4981,52.1461 269.6641,51.5051 270.8391,50.8811" id="Stroke-3" stroke="#FFFFFF" stroke-linecap="round" stroke-linejoin="round"></path>
            <path d="M317.2978,117.5394 C308.8098,117.6584 298.6628,115.3824 292.8558,108.8264 C284.0458,98.8814 287.2168,86.1294 295.5268,77.1404" id="Stroke-5" stroke="#FFFFFF" stroke-linecap="round" stroke-linejoin="round"></path>
            <path d="M327.3974,120.0082 C326.0574,119.3462 317.1054,115.1072 307.4214,119.3352 C305.8234,120.0332 297.9684,123.4632 295.3024,132.1282 C291.9784,142.9322 299.8074,151.8502 300.2404,152.3272" id="Stroke-7" stroke="#FFFFFF" stroke-linecap="round" stroke-linejoin="round"></path>
            <path d="M207.9955,11.8285 L128.9935,11.8285 C122.0195,11.8285 114.4435,13.4035 108.9515,17.9495 C102.9195,22.9415 100.7165,31.8555 103.7545,39.0795 C106.8495,46.4395 114.6545,50.8805 122.4845,50.8805 L183.0825,50.8805" id="Stroke-9" stroke="#FFFFFF" stroke-linecap="round" stroke-linejoin="round"></path>
            <path d="M207.7714,33.8236 L134.7724,33.8236 C131.3334,33.8236 127.2814,34.3466 124.6944,36.8616 C122.1634,39.3226 121.8604,43.5746 123.5414,46.5906 C125.3814,49.8946 129.4354,50.8806 132.9594,50.8806 L160.5304,50.8806" id="Stroke-11" stroke="#FFFFFF" stroke-linecap="round" stroke-linejoin="round"></path>
            <g id="WaterTank" transform="translate(351.000000, 141.756000)" stroke="#0004FF" stroke-linecap="round" stroke-linejoin="round">
                <path d="M0.8329,22.5002 L55.4399,22.5002" id="Stroke-41"></path>
                <path d="M28.1366,6.5769 L28.1366,0.2499" id="Stroke-44"></path>
                <path d="M39.3017,9.553 L42.4507,4.066" id="Stroke-46"></path>
                <path d="M47.5048,17.6921 L52.9678,14.5001" id="Stroke-48"></path>
                <path d="M16.9706,9.697 L13.8226,4.21" id="Stroke-50"></path>
                <path d="M8.7685,17.8362 L3.3055,14.6442" id="Stroke-52"></path>
            </g>
            <g id="Blast" transform="translate(348.000000, 81.756000)">
                <path d="M3.7226,18.3992 L43.9406,28.9822" id="Stroke-63" stroke="#FF00ED"></path>
                <path d="M43.9403,0.8303 L3.8293,11.3083" id="Stroke-65" stroke="#FF00ED"></path>
                <path d="M7.0038,14.9065 L48.4908,14.9065" id="Stroke-67" stroke="#FF00ED"></path>
                <path d="M7.1796,14.8806 C7.1796,12.9146 5.5856,11.3206 3.6196,11.3206 C1.6556,11.3206 0.0616,12.9146 0.0616,14.8806 C0.0616,16.8466 1.6556,18.4406 3.6196,18.4406 C5.5856,18.4406 7.1796,16.8466 7.1796,14.8806 Z" id="Stroke-55" stroke="#FF00ED"></path>
                <path d="M27.4413,14.8806 C27.4413,10.7566 24.0973,7.4136 19.9733,7.4136 C15.8503,7.4136 12.5063,10.7566 12.5063,14.8806 C12.5063,19.0046 15.8503,22.3476 19.9733,22.3476 C24.0973,22.3476 27.4413,19.0046 27.4413,14.8806 Z" id="Stroke-59" stroke="#FF00ED"></path>
                <path d="M63.3085,14.8806 C63.3085,6.7146 56.6885,0.0956 48.5235,0.0956 C40.3575,0.0956 33.7385,6.7146 33.7385,14.8806 C33.7385,23.0466 40.3575,29.6656 48.5235,29.6656 C56.6885,29.6656 63.3085,23.0466 63.3085,14.8806 Z" id="Stroke-61" stroke="#FF00ED"></path>
                <path d="M49.5497,14.9065 C49.5497,14.3225 49.0757,13.8475 48.4907,13.8475 C47.9067,13.8475 47.4327,14.3225 47.4327,14.9065 C47.4327,15.4905 47.9067,15.9645 48.4907,15.9645 C49.0757,15.9645 49.5497,15.4905 49.5497,14.9065" id="Fill-69" fill="#FF00ED"></path>
                <path d="M4.7812,14.8005 C4.7812,14.2165 4.3072,13.7415 3.7222,13.7415 C3.1382,13.7415 2.6642,14.2165 2.6642,14.8005 C2.6642,15.3845 3.1382,15.8595 3.7222,15.8595 C4.3072,15.8595 4.7812,15.3845 4.7812,14.8005" id="Fill-71" fill="#FF00ED"></path>
            </g>
            <path d="M78.6064,158.6117 L78.6064,17.6637" id="Stroke-73" stroke="#00FFC5"></path>
            <g id="Bitterness" transform="translate(217.000000, 12.756000)">
                <path d="M4.7987,29.4568 C4.7987,28.2188 3.7957,27.2158 2.5587,27.2158 C1.3197,27.2158 0.3177,28.2188 0.3177,29.4568 C0.3177,30.6938 1.3197,31.6978 2.5587,31.6978 C3.7957,31.6978 4.7987,30.6938 4.7987,29.4568" id="Fill-57" fill="#00FFC5"></path>
                <polyline id="Stroke-75" stroke="#00FFC5" points="192.9911 0.3069 33.8631 0.3069 2.3301 29.7079"></polyline>
            </g>
            <path d="M78.3822,142.7889 L72.9952,142.7889" id="Stroke-77" stroke="#00FFC5"></path>
            <path d="M78.494,123.2626 L73.108,123.2626" id="Stroke-79" stroke="#00FFC5"></path>
            <path d="M78.6064,103.7362 L73.2204,103.7362" id="Stroke-81" stroke="#00FFC5"></path>
            <path d="M78.7187,84.2103 L73.3317,84.2103" id="Stroke-83" stroke="#00FFC5"></path>
            <path d="M78.831,64.684 L73.444,64.684" id="Stroke-85" stroke="#00FFC5"></path>
            <path d="M78.9433,45.1576 L73.5563,45.1576" id="Stroke-87" stroke="#00FFC5"></path>
            <path d="M79.0556,25.6312 L73.6686,25.6312" id="Stroke-89" stroke="#00FFC5"></path>
            <path d="M21.7655,114.3075 C15.7545,114.3075 10.5785,117.8675 8.2215,122.9925 C10.5335,128.2265 15.7675,131.8805 21.8575,131.8805 C27.8685,131.8805 33.0445,128.3205 35.4015,123.1965 C33.0895,117.9615 27.8555,114.3075 21.7655,114.3075 Z" id="Stroke-91" stroke="#FFF200" stroke-linecap="round" stroke-linejoin="round"></path>
            <polygon id="Stroke-93" stroke="#FFF200" stroke-linecap="round" stroke-linejoin="round" points="35.4745 123.2323 39.8905 126.4733 39.8905 119.9913"></polygon>
            <path d="M46.5116,129.7714 C46.5116,128.7794 45.7076,127.9764 44.7166,127.9764 C43.7246,127.9764 42.9206,128.7794 42.9206,129.7714 C42.9206,130.7634 43.7246,131.5664 44.7166,131.5664 C45.7076,131.5664 46.5116,130.7634 46.5116,129.7714 Z" id="Stroke-95" stroke="#FFF200" stroke-linecap="round" stroke-linejoin="round"></path>
            <path d="M19.579,122.9257 C19.579,120.8807 17.921,119.2227 15.876,119.2227 C13.83,119.2227 12.172,120.8807 12.172,122.9257 C12.172,124.9707 13.83,126.6297 15.876,126.6297 C17.921,126.6297 19.579,124.9707 19.579,122.9257 Z" id="Stroke-97" stroke="#FFF200" stroke-linecap="round" stroke-linejoin="round"></path>
            <path d="M16.661,122.9257 C16.661,122.4917 16.309,122.1407 15.876,122.1407 C15.442,122.1407 15.09,122.4917 15.09,122.9257 C15.09,123.3597 15.442,123.7117 15.876,123.7117 C16.309,123.7117 16.661,123.3597 16.661,122.9257 Z" id="Stroke-99" stroke="#FFF200" stroke-linecap="round" stroke-linejoin="round"></path>
            <path d="M15.8759,130.557 C20.0899,130.557 23.5069,127.14 23.5069,122.926" id="Stroke-101" stroke="#FFF200" stroke-linecap="round" stroke-linejoin="round"></path>
            <path d="M50.5517,122.1405 C50.5517,121.3965 49.9487,120.7935 49.2047,120.7935 C48.4617,120.7935 47.8587,121.3965 47.8587,122.1405 C47.8587,122.8845 48.4617,123.4875 49.2047,123.4875 C49.9487,123.4875 50.5517,122.8845 50.5517,122.1405 Z" id="Stroke-103" stroke="#FFF200" stroke-linecap="round" stroke-linejoin="round"></path>
            <polyline id="Stroke-105" stroke="#FFF200" stroke-linecap="round" stroke-linejoin="round" points="26.3119 120.7938 28.1079 123.2628 26.3119 125.5068"></polyline>
            <path d="M15.4652,151.0595 C12.9472,151.0595 10.7792,152.5505 9.7922,154.6975 C10.7602,156.8905 12.9532,158.4205 15.5042,158.4205 C18.0222,158.4205 20.1902,156.9295 21.1772,154.7825 C20.2092,152.5905 18.0162,151.0595 15.4652,151.0595 Z" id="Stroke-107" stroke="#FFF200" stroke-linecap="round" stroke-linejoin="round"></path>
            <polygon id="Stroke-109" stroke="#FFF200" stroke-linecap="round" stroke-linejoin="round" points="21.2079 154.7977 23.0579 156.1557 23.0579 153.4407"></polygon>
            <path d="M33.3085,151.0595 C30.7905,151.0595 28.6225,152.5505 27.6345,154.6975 C28.6035,156.8905 30.7955,158.4205 33.3475,158.4205 C35.8645,158.4205 38.0335,156.9295 39.0205,154.7825 C38.0515,152.5905 35.8595,151.0595 33.3085,151.0595 Z" id="Stroke-111" stroke="#FFF200" stroke-linecap="round" stroke-linejoin="round"></path>
            <polygon id="Stroke-113" stroke="#FFF200" stroke-linecap="round" stroke-linejoin="round" points="39.0507 154.7977 40.9007 156.1557 40.9007 153.4407"></polygon>
            <polyline id="Stroke-115" stroke="#FFF200" stroke-linecap="round" stroke-linejoin="round" points="15.7636 153.4706 16.7736 154.8596 15.7636 156.1216"></polyline>
            <polyline id="Stroke-117" stroke="#FFF200" stroke-linecap="round" stroke-linejoin="round" points="33.2699 153.4706 34.2799 154.8596 33.2699 156.1216"></polyline>
            <polygon id="Stroke-119" stroke="#FFF200" stroke-linecap="round" stroke-linejoin="round" points="56.3871 94.7587 61.1001 89.8217 61.1001 94.7587"></polygon>
            <path d="M56.3871,94.7587 L6.3371,94.7587 L4.8681,86.3367 C3.6581,79.3977 6.1131,72.8757 13.9481,72.8757 L40.9011,72.8757 C46.0631,72.8757 47.8581,75.6817 47.8581,80.8437 L47.8581,85.4197 C47.8581,87.0327 48.5331,88.5387 49.6531,89.4257 L56.3871,94.7587 Z" id="Stroke-121" stroke="#FFF200" stroke-linecap="round" stroke-linejoin="round"></path>
            <path d="M30.8007,91.6166 C30.8007,90.8726 30.1977,90.2696 29.4547,90.2696 C28.7107,90.2696 28.1077,90.8726 28.1077,91.6166 C28.1077,92.3606 28.7107,92.9636 29.4547,92.9636 C30.1977,92.9636 30.8007,92.3606 30.8007,91.6166 Z" id="Stroke-123" stroke="#FFF200" stroke-linecap="round" stroke-linejoin="round"></path>
            <path d="M18.2323,72.7636 C18.2323,73.5076 18.8353,74.1106 19.5793,74.1106 C20.3223,74.1106 20.9253,73.5076 20.9253,72.7636" id="Stroke-125" stroke="#FFF200" stroke-linecap="round" stroke-linejoin="round"></path>
            <path d="M6.0004,92.5145 L25.7504,92.5145" id="Stroke-127" stroke="#FFF200" stroke-linecap="round" stroke-linejoin="round"></path>
            <path d="M44.4916,94.7587 L45.3896,91.6167" id="Stroke-129" stroke="#FFF200" stroke-linecap="round" stroke-linejoin="round"></path>
            <path d="M42.0228,94.7587 L42.9208,91.6167" id="Stroke-131" stroke="#FFF200" stroke-linecap="round" stroke-linejoin="round"></path>
            <path d="M39.5541,94.7587 L40.4511,91.6167" id="Stroke-133" stroke="#FFF200" stroke-linecap="round" stroke-linejoin="round"></path>
            <path d="M37.0853,94.7587 L37.9823,91.6167" id="Stroke-135" stroke="#FFF200" stroke-linecap="round" stroke-linejoin="round"></path>
            <path d="M34.6166,94.7587 L35.5136,91.6167" id="Stroke-137" stroke="#FFF200" stroke-linecap="round" stroke-linejoin="round"></path>
            <path d="M52.5683,51.7787 L7.3243,51.7757 C6.2043,46.9027 3.9413,42.3887 0.7333,38.6307 L0.5003,38.3577 L61.6863,38.3617 L61.0793,43.9287 C60.5913,48.3997 56.9273,51.7787 52.5683,51.7787 Z" id="Stroke-139" stroke="#FFF200" stroke-linecap="round" stroke-linejoin="round"></path>
            <polygon id="Stroke-141" stroke="#FFF200" stroke-linecap="round" stroke-linejoin="round" points="56.0805 24.7089 38.4985 24.7079 36.5795 24.7079 32.1505 24.7079 29.6315 24.7079 16.5895 24.7069 10.2505 38.3579 61.6865 38.3619"></polygon>
            <polygon id="Stroke-143" stroke="#FFF200" stroke-linecap="round" stroke-linejoin="round" points="52.5463 20.5829 46.8613 20.5829 42.5513 24.7079 52.4543 24.7089"></polygon>
            <polygon id="Stroke-145" stroke="#FFF200" stroke-linecap="round" stroke-linejoin="round" points="42.5517 20.5824 36.8667 20.5824 32.5567 24.7074 42.4597 24.7074"></polygon>
            <polygon id="Fill-147" fill="#000000" points="27.0707 41.5883 20.4887 41.5883 20.4887 38.3593 27.0707 38.3593"></polygon>
            <polygon id="Stroke-149" stroke="#FFF200" stroke-linecap="round" stroke-linejoin="round" points="27.0707 41.5883 20.4887 41.5883 20.4887 38.3593 27.0707 38.3593"></polygon>
            <polygon id="Fill-151" fill="#000000" points="37.309 41.5887 30.727 41.5887 30.727 38.3597 37.309 38.3597"></polygon>
            <polygon id="Stroke-153" stroke="#FFF200" stroke-linecap="round" stroke-linejoin="round" points="37.309 41.5887 30.727 41.5887 30.727 38.3597 37.309 38.3597"></polygon>
            <polygon id="Fill-155" fill="#000000" points="47.5477 41.5892 40.9657 41.5892 40.9657 38.3602 47.5477 38.3602"></polygon>
            <polygon id="Stroke-157" stroke="#FFF200" stroke-linecap="round" stroke-linejoin="round" points="47.5477 41.5892 40.9657 41.5892 40.9657 38.3602 47.5477 38.3602"></polygon>
            <path d="M20.1244,28.2538 L60.3464,28.2568" id="Stroke-159" stroke="#FFF200" stroke-linecap="round" stroke-linejoin="round"></path>
            <path d="M16.7108,35.0463 L62.7838,35.0493" id="Stroke-161" stroke="#FFF200" stroke-linecap="round" stroke-linejoin="round"></path>
            <path d="M18.6615,31.7758 L61.8085,31.7788" id="Stroke-163" stroke="#FFF200" stroke-linecap="round" stroke-linejoin="round"></path>
            <polygon id="Fill-169" fill="#00FFC5" points="77.036 19.123 80.178 19.123 80.178 15.98 77.036 15.98"></polygon>
            <polygon id="Fill-171" fill="#00FFC5" points="77.148 160.407 80.29 160.407 80.29 157.265 77.148 157.265"></polygon>
            <path d="M136.1752,50.8807 C146.4682,82.2767 167.3602,104.7537 189.8162,105.8687 C201.2532,106.4367 214.2242,101.7067 223.4822,94.8707 C236.2472,85.4447 238.2442,74.7727 255.5772,60.9807 C261.6582,56.1417 267.1762,52.8687 270.8392,50.8807 L136.1752,50.8807 Z" id="Stroke-173" stroke="#FFFFFF" fill="#000000" stroke-linecap="round" stroke-linejoin="round"></path>
            <path d="M270.8388,50.8807 C297.1378,51.6977 319.2318,65.4237 327.1728,85.6687 C335.8498,107.7867 324.0948,128.6567 322.4598,131.4547 C305.7988,159.9637 260.2528,171.7717 209.3428,159.2847 C209.3428,159.2847 210.2398,142.2277 220.5648,129.6587 C232.4598,140.8807 254.0058,155.4697 277.1228,157.2647" id="Stroke-174" stroke="#FFFFFF" stroke-linecap="round" stroke-linejoin="round"></path>
            <path d="M223.4823,94.871 C237.9333,90.868 249.8863,91.283 257.3723,92.178 C269.9343,93.68 281.9583,95.117 289.6913,104.971 C298.3463,115.998 295.7243,130.041 295.3023,132.128 C292.2323,147.29 278.8943,159.526 261.4123,163.549" id="Stroke-175" stroke="#FFFFFF" stroke-linecap="round" stroke-linejoin="round"></path>
            <path d="M176.5741,67.9384 C176.5741,76.8634 171.4491,84.0984 165.1281,84.0984 C158.8061,84.0984 153.6811,76.8634 153.6811,67.9384 C153.6811,59.0134 158.8061,51.7784 165.1281,51.7784 C171.4491,51.7784 176.5741,59.0134 176.5741,67.9384 Z" id="Stroke-176" stroke="#00FFC5" stroke-linecap="round" stroke-linejoin="round"></path>
            <path d="M180.3676,51.4423 C183.0416,55.8903 184.6546,61.6483 184.6546,67.9383 C184.6546,70.7073 184.3416,73.3733 183.7636,75.8703 C182.5816,80.9723 180.2916,85.3653 177.2956,88.4843" id="Stroke-177" stroke="#00FFC5" stroke-linecap="round" stroke-linejoin="round"></path>
            <path d="M148.5194,67.9384 C148.5194,67.0584 148.5504,66.1884 148.6124,65.3304 C149.0034,59.9014 150.6004,54.9754 153.0184,51.0954" id="Stroke-178" stroke="#00FFC5" stroke-linecap="round" stroke-linejoin="round"></path>
            <path d="M166.203,69.285 C166.203,70.648 165.611,71.754 164.88,71.754 C164.149,71.754 163.557,70.648 163.557,69.285 C163.557,67.921 164.149,66.816 164.88,66.816 C165.611,66.816 166.203,67.921 166.203,69.285 Z" id="Stroke-179" stroke="#00FFC5" stroke-linecap="round" stroke-linejoin="round"></path>
            <path d="M196.8256,76.9159 L196.8256,76.9159 C194.7956,76.9159 193.1356,75.2549 193.1356,73.2259 L193.1356,60.4069 C193.1356,58.3769 194.7956,56.7159 196.8256,56.7159 C198.8556,56.7159 200.5156,58.3769 200.5156,60.4069 L200.5156,73.2259 C200.5156,75.2549 198.8556,76.9159 196.8256,76.9159 Z" id="Stroke-180" stroke="#00FFC5" stroke-linecap="round" stroke-linejoin="round"></path>
            <path d="M200.5,68.5 L198.5,68.5" id="Line" stroke="#00FFC5" stroke-linecap="square"></path>
            <path d="M195.5,64.5 L193.5,64.5" id="Line" stroke="#00FFC5" stroke-linecap="square"></path>
            <path d="M200.5,60.5 L198.5,60.5" id="Line" stroke="#00FFC5" stroke-linecap="square"></path>
            <path d="M207.5,62.5 L205.5,62.5" id="Line" stroke="#00FFC5" stroke-linecap="square"></path>
            <path d="M202.5,65.5 L200.5,65.5" id="Line" stroke="#00FFC5" stroke-linecap="square"></path>
            <path d="M195.5,72.5 L193.5,72.5" id="Line" stroke="#00FFC5" stroke-linecap="square"></path>
            <path d="M204.2059,72.6429 L204.2059,72.6429 C202.1769,72.6429 200.5159,70.9819 200.5159,68.9529 L200.5159,60.4069 C200.5159,58.3769 202.1769,56.7159 204.2059,56.7159 C206.2359,56.7159 207.8959,58.3769 207.8959,60.4069 L207.8959,68.9529 C207.8959,70.9819 206.2359,72.6429 204.2059,72.6429 Z" id="Stroke-181" stroke="#00FFC5" stroke-linecap="round" stroke-linejoin="round"></path>
            <path d="M207.8964,67.3988 L207.8964,67.3988 L207.8964,60.2118 L209.5934,60.2118 C210.6944,60.2118 211.5864,61.1048 211.5864,62.2048 L211.5864,63.7088 C211.5864,65.7468 209.9344,67.3988 207.8964,67.3988 Z" id="Stroke-182" stroke="#00FFC5" stroke-linecap="round" stroke-linejoin="round"></path>
            <path d="M211.5868,63.225 L237.6218,63.225" id="Stroke-183" stroke="#00FFC5" stroke-linecap="round" stroke-linejoin="round"></path>
            <path d="M220.1151,80.9559 C220.1151,79.7159 219.1101,78.7109 217.8711,78.7109 C216.6321,78.7109 215.6271,79.7159 215.6271,80.9559 C215.6271,82.1949 216.6321,83.1999 217.8711,83.1999 C219.1101,83.1999 220.1151,82.1949 220.1151,80.9559 Z" id="Stroke-184" stroke="#FF00ED" stroke-linecap="round" stroke-linejoin="round"></path>
            <path d="M239.8661,63.225 C239.8661,62.543 239.3131,61.991 238.6321,61.991 C237.9501,61.991 237.3971,62.543 237.3971,63.225 C237.3971,63.907 237.9501,64.459 238.6321,64.459 C239.3131,64.459 239.8661,63.907 239.8661,63.225 Z" id="Stroke-185" stroke="#00FFC5" stroke-linecap="round" stroke-linejoin="round"></path>
            <path d="M224.1552,80.9559 C224.1552,77.4849 221.3422,74.6709 217.8712,74.6709 C214.4002,74.6709 211.5872,77.4849 211.5872,80.9559 C211.5872,84.4269 214.4002,87.2399 217.8712,87.2399 C221.3422,87.2399 224.1552,84.4269 224.1552,80.9559 Z" id="Stroke-186" stroke="#FF00ED" stroke-linecap="round" stroke-linejoin="round"></path>
            <polyline id="Stroke-187" stroke="#FF00ED" stroke-linecap="round" stroke-linejoin="round" points="217.871 87.2401 217.871 92.4021 199.018 92.4021 199.018 99.5841"></polyline>
            <polyline id="Stroke-188" stroke="#FF00ED" stroke-linecap="round" stroke-linejoin="round" points="195.9257 96.6166 199.0177 99.7086 202.1107 96.6166"></polyline>
            <path d="M210.6337,101.7562 C210.6337,101.7562 214.0557,138.1882 194.5297,147.6142" id="Stroke-189" stroke="#FFFFFF" stroke-linecap="round" stroke-linejoin="round"></path>
            <path d="M194.5292,147.6141 L190.0402,145.1451" id="Stroke-190" stroke="#FFFFFF" stroke-linecap="round" stroke-linejoin="round"></path>
            <path d="M194.5292,147.6141 L194.9782,153.6741" id="Stroke-191" stroke="#FFFFFF" stroke-linecap="round" stroke-linejoin="round"></path>
            <path d="M194.5292,147.6141 L190.9382,154.1231" id="Stroke-192" stroke="#FFFFFF" stroke-linecap="round" stroke-linejoin="round"></path>
            <path d="M194.5292,147.6141 L185.5512,150.3071" id="Stroke-193" stroke="#FFFFFF" stroke-linecap="round" stroke-linejoin="round"></path>
            <path d="M212.1132,145.6454 C212.1132,145.6454 254.4642,161.3074 277.0152,157.1544" id="Stroke-194" stroke="#FFFFFF" stroke-linecap="round" stroke-linejoin="round"></path>
            <path d="M233.5819,92.6263 C231.5139,98.0633 233.3629,104.2553 238.0699,107.6643 C242.7869,111.0793 249.2629,110.8953 253.7809,107.2153" id="Stroke-195" stroke="#FFFFFF" stroke-linecap="round" stroke-linejoin="round"></path>
            <path d="M257.372,92.1776 C257.315,92.4286 256.299,97.3096 259.841,100.7066 C262.469,103.2266 266.493,103.8636 269.941,102.2776" id="Stroke-196" stroke="#FFFFFF" stroke-linecap="round" stroke-linejoin="round"></path>
            <path d="M286.1005,101.3798 C285.7385,101.3358 280.3495,100.7738 276.8985,104.9708 C274.3515,108.0688 273.9055,112.4888 275.7765,116.1928" id="Stroke-197" stroke="#FFFFFF" stroke-linecap="round" stroke-linejoin="round"></path>
            <path d="M295.9755,125.8436 C292.6415,123.9576 288.4615,124.4176 285.6515,126.9656 C282.9255,129.4386 282.0225,133.3936 283.4075,136.8416" id="Stroke-198" stroke="#FFFFFF" stroke-linecap="round" stroke-linejoin="round"></path>
            <path d="M286.998,148.7362 C285.418,144.8322 281.876,143.2992 279.816,144.2472 C278.006,145.0822 277.62,147.7062 277.572,148.0632" id="Stroke-199" stroke="#FFFFFF" stroke-linecap="round" stroke-linejoin="round"></path>
            <path d="M107.2226,53.1254 C121.3626,52.6764 136.1756,50.8804 136.1756,50.8804" id="Stroke-200" stroke="#FFFFFF" stroke-linecap="round" stroke-linejoin="round"></path>
            <path d="M137.5219,54.6962 C137.5219,54.6962 123.3819,59.8582 100.0409,62.1032" id="Stroke-201" stroke="#FFFFFF" stroke-linecap="round" stroke-linejoin="round"></path>
            <path d="M297.9735,35.1967 C299.2295,32.0937 297.7325,28.5617 294.6295,27.3057 C291.5275,26.0507 287.9945,27.5477 286.7395,30.6497 C285.4835,33.7527 286.9805,37.2847 290.0825,38.5407 C293.1855,39.7967 296.7185,38.2997 297.9735,35.1967 Z" id="WaterBubble5" stroke="#0004FF" stroke-linecap="round" stroke-linejoin="round"></path>
            <path d="M276.3378,31.4667 C276.3378,24.4017 270.6098,18.6737 263.5448,18.6737 C256.4798,18.6737 250.7508,24.4017 250.7508,31.4667 C250.7508,38.5317 256.4798,44.2597 263.5448,44.2597 C270.6098,44.2597 276.3378,38.5317 276.3378,31.4667 Z" id="WaterBubble1" stroke="#0004FF" stroke-linecap="round" stroke-linejoin="round"></path>
            <path d="M311.9169,29.4598 C312.6609,27.6218 311.7739,25.5278 309.9359,24.7838 C308.0979,24.0398 306.0039,24.9268 305.2599,26.7658 C304.5159,28.6038 305.4029,30.6978 307.2409,31.4418 C309.0799,32.1858 311.1739,31.2988 311.9169,29.4598 Z" id="WaterBubble2" stroke="#0004FF" stroke-linecap="round" stroke-linejoin="round"></path>
            <path d="M313.1513,43.7606 C313.5233,42.8416 313.0803,41.7946 312.1613,41.4226 C311.2413,41.0506 310.1943,41.4936 309.8223,42.4136 C309.4503,43.3326 309.8943,44.3796 310.8133,44.7516 C311.7323,45.1236 312.7793,44.6796 313.1513,43.7606 Z" id="WaterBubble3" stroke="#0004FF" stroke-linecap="round" stroke-linejoin="round"></path>
            <path d="M324.7665,36.5975 C325.1385,35.6785 324.6955,34.6315 323.7765,34.2595 C322.8565,33.8875 321.8105,34.3305 321.4385,35.2505 C321.0665,36.1695 321.5095,37.2165 322.4285,37.5885 C323.3475,37.9605 324.3945,37.5165 324.7665,36.5975 Z" id="WaterBubble4" stroke="#0004FF" stroke-linecap="round" stroke-linejoin="round"></path>
        </g>
    </g>
</svg>
