<?xml version="1.0" encoding="UTF-8"?>
<svg width="102px" height="84px" viewBox="0 0 102 84" version="1.1" xmlns="http://www.w3.org/2000/svg" xmlns:xlink="http://www.w3.org/1999/xlink">
    <!-- Generator: Sketch 47 (45396) - http://www.bohemiancoding.com/sketch -->
    <title>SynthDisplay/Punch</title>
    <desc>Created with Sketch.</desc>
    <defs></defs>
    <g id="Symbols" stroke="none" stroke-width="1" fill="none" fill-rule="evenodd" stroke-linecap="round" stroke-linejoin="round">
        <g id="SynthDisplay/Punch">
            <g id="Punch" transform="translate(3.000000, 14.000000)">
                <path d="M91.018,0.891 L91.018,20.652 C91.018,28.455 84.692,34.781 76.889,34.781 L64.534,34.781" id="Stroke-13" stroke="#FFFFFF"></path>
                <path d="M48.4042,64.4071 L9.7712,64.4071 L9.7712,5.1551 L48.4042,5.1551 C53.3462,5.1551 57.3522,9.1611 57.3522,14.1031 L57.3522,55.4591 C57.3522,60.4011 53.3462,64.4071 48.4042,64.4071 Z" id="Stroke-15" stroke="#FF00ED"></path>
                <polygon id="Stroke-19" stroke="#FF00ED" fill="#000000" points="57.3524 56.1029 66.7784 51.6139 66.7784 17.0509 57.3524 13.4589"></polygon>
                <path d="M46.579,24.412 L41.462,27.21 L40.092,39.16 C39.702,42.6 37.016,45.33 33.583,45.778 L27.726,46.542 L27.726,18.308" id="Stroke-21" stroke="#FF00ED"></path>
                <path d="M9.4872,67.7738 L6.9342,67.7738 C3.4192,67.7738 0.5692,64.9238 0.5692,61.4088 L0.5692,8.1538 C0.5692,4.6388 3.4192,1.7888 6.9342,1.7888 L9.4872,1.7888 C19.5602,1.7888 27.7262,9.9548 27.7262,20.0278 L27.7262,49.5348 C27.7262,59.6078 19.5602,67.7738 9.4872,67.7738 Z" id="Stroke-25" stroke="#FF00ED" fill="#000000"></path>
                <path d="M41.4618,27.2103 L40.1908,23.9033" id="Stroke-27" stroke="#FF00ED"></path>
                <path d="M41.4618,27.2103 L37.9008,27.4643" id="Stroke-29" stroke="#FF00ED"></path>
                <path d="M5.9555,67.7738 L5.7315,59.9188" id="Stroke-31" stroke="#FF00ED"></path>
                <path d="M9.5468,67.7738 L10.6688,60.5918" id="Stroke-33" stroke="#FF00ED"></path>
                <path d="M8.4247,1.7885 L7.3017,8.2975" id="Stroke-35" stroke="#FF00ED"></path>
                <path d="M9.5468,1.7885 L11.1178,8.5215" id="Stroke-37" stroke="#FF00ED"></path>
            </g>
        </g>
    </g>
</svg>