<?xml version="1.0" encoding="UTF-8"?>
<svg width="70px" height="70px" viewBox="0 0 70 70" version="1.1" xmlns="http://www.w3.org/2000/svg" xmlns:xlink="http://www.w3.org/1999/xlink">
    <!-- Generator: Sketch 47 (45396) - http://www.bohemiancoding.com/sketch -->
    <title>Icons/Apps/Meme</title>
    <desc>Created with Sketch.</desc>
    <defs></defs>
    <g id="Design" stroke="none" stroke-width="1" fill="none" fill-rule="evenodd">
        <g id="Icons/Apps/Meme">
            <g id="Text" transform="translate(6.000000, 2.000000)">
                <path d="M15.8569336,0 L15.8569336,19.7631836 L11.3647461,19.7631836 L11.3647461,6.42089844 L9.5703125,19.7631836 L6.38427734,19.7631836 L4.4921875,6.72607422 L4.4921875,19.7631836 L0,19.7631836 L0,0 L6.65283203,0 C6.84814551,1.18815698 7.05566296,2.58788257 7.27539062,4.19921875 L7.98339844,9.22851562 L9.15527344,0 L15.8569336,0 Z M18.7099219,0 L27.2792578,0 L27.2792578,3.95507812 L23.8490821,3.95507812 L23.8490821,7.70263672 L27.0595313,7.70263672 L27.0595313,11.4624023 L23.8490821,11.4624023 L23.8490821,15.8081055 L27.6210547,15.8081055 L27.6210547,19.7631836 L18.7099219,19.7631836 L18.7099219,0 Z M45.7450391,0 L45.7450391,19.7631836 L41.2528516,19.7631836 L41.2528516,6.42089844 L39.458418,19.7631836 L36.2723829,19.7631836 L34.380293,6.72607422 L34.380293,19.7631836 L29.8881055,19.7631836 L29.8881055,0 L36.5409375,0 C36.736251,1.18815698 36.9437685,2.58788257 37.1634961,4.19921875 L37.8715039,9.22851562 L39.0433789,0 L45.7450391,0 Z M48.5980274,0 L57.1673633,0 L57.1673633,3.95507812 L53.7371876,3.95507812 L53.7371876,7.70263672 L56.9476368,7.70263672 L56.9476368,11.4624023 L53.7371876,11.4624023 L53.7371876,15.8081055 L57.5091602,15.8081055 L57.5091602,19.7631836 L48.5980274,19.7631836 L48.5980274,0 Z" id="MEME" stroke="#000000" stroke-width="4" fill="#FFFFFF" stroke-linecap="round" stroke-linejoin="round"></path>
                <path d="M15.8569336,0 L15.8569336,19.7631836 L11.3647461,19.7631836 L11.3647461,6.42089844 L9.5703125,19.7631836 L6.38427734,19.7631836 L4.4921875,6.72607422 L4.4921875,19.7631836 L0,19.7631836 L0,0 L6.65283203,0 C6.84814551,1.18815698 7.05566296,2.58788257 7.27539062,4.19921875 L7.98339844,9.22851562 L9.15527344,0 L15.8569336,0 Z M18.7099219,0 L27.2792578,0 L27.2792578,3.95507812 L23.8490821,3.95507812 L23.8490821,7.70263672 L27.0595313,7.70263672 L27.0595313,11.4624023 L23.8490821,11.4624023 L23.8490821,15.8081055 L27.6210547,15.8081055 L27.6210547,19.7631836 L18.7099219,19.7631836 L18.7099219,0 Z M45.7450391,0 L45.7450391,19.7631836 L41.2528516,19.7631836 L41.2528516,6.42089844 L39.458418,19.7631836 L36.2723829,19.7631836 L34.380293,6.72607422 L34.380293,19.7631836 L29.8881055,19.7631836 L29.8881055,0 L36.5409375,0 C36.736251,1.18815698 36.9437685,2.58788257 37.1634961,4.19921875 L37.8715039,9.22851562 L39.0433789,0 L45.7450391,0 Z M48.5980274,0 L57.1673633,0 L57.1673633,3.95507812 L53.7371876,3.95507812 L53.7371876,7.70263672 L56.9476368,7.70263672 L56.9476368,11.4624023 L53.7371876,11.4624023 L53.7371876,15.8081055 L57.5091602,15.8081055 L57.5091602,19.7631836 L48.5980274,19.7631836 L48.5980274,0 Z" id="MEME" fill="#00FFC5"></path>
                <path d="M15.8569336,45 L15.8569336,64.7631836 L11.3647461,64.7631836 L11.3647461,51.4208984 L9.5703125,64.7631836 L6.38427734,64.7631836 L4.4921875,51.7260742 L4.4921875,64.7631836 L0,64.7631836 L0,45 L6.65283203,45 C6.84814551,46.188157 7.05566296,47.5878826 7.27539062,49.1992188 L7.98339844,54.2285156 L9.15527344,45 L15.8569336,45 Z M18.7099219,45 L27.2792578,45 L27.2792578,48.9550781 L23.8490821,48.9550781 L23.8490821,52.7026367 L27.0595313,52.7026367 L27.0595313,56.4624023 L23.8490821,56.4624023 L23.8490821,60.8081055 L27.6210547,60.8081055 L27.6210547,64.7631836 L18.7099219,64.7631836 L18.7099219,45 Z M45.7450391,45 L45.7450391,64.7631836 L41.2528516,64.7631836 L41.2528516,51.4208984 L39.458418,64.7631836 L36.2723829,64.7631836 L34.380293,51.7260742 L34.380293,64.7631836 L29.8881055,64.7631836 L29.8881055,45 L36.5409375,45 C36.736251,46.188157 36.9437685,47.5878826 37.1634961,49.1992188 L37.8715039,54.2285156 L39.0433789,45 L45.7450391,45 Z M48.5980274,45 L57.1673633,45 L57.1673633,48.9550781 L53.7371876,48.9550781 L53.7371876,52.7026367 L56.9476368,52.7026367 L56.9476368,56.4624023 L53.7371876,56.4624023 L53.7371876,60.8081055 L57.5091602,60.8081055 L57.5091602,64.7631836 L48.5980274,64.7631836 L48.5980274,45 Z" id="MEME" stroke="#000000" stroke-width="4" fill="#FFFFFF" stroke-linecap="round" stroke-linejoin="round"></path>
                <path d="M15.8569336,45 L15.8569336,64.7631836 L11.3647461,64.7631836 L11.3647461,51.4208984 L9.5703125,64.7631836 L6.38427734,64.7631836 L4.4921875,51.7260742 L4.4921875,64.7631836 L0,64.7631836 L0,45 L6.65283203,45 C6.84814551,46.188157 7.05566296,47.5878826 7.27539062,49.1992188 L7.98339844,54.2285156 L9.15527344,45 L15.8569336,45 Z M18.7099219,45 L27.2792578,45 L27.2792578,48.9550781 L23.8490821,48.9550781 L23.8490821,52.7026367 L27.0595313,52.7026367 L27.0595313,56.4624023 L23.8490821,56.4624023 L23.8490821,60.8081055 L27.6210547,60.8081055 L27.6210547,64.7631836 L18.7099219,64.7631836 L18.7099219,45 Z M45.7450391,45 L45.7450391,64.7631836 L41.2528516,64.7631836 L41.2528516,51.4208984 L39.458418,64.7631836 L36.2723829,64.7631836 L34.380293,51.7260742 L34.380293,64.7631836 L29.8881055,64.7631836 L29.8881055,45 L36.5409375,45 C36.736251,46.188157 36.9437685,47.5878826 37.1634961,49.1992188 L37.8715039,54.2285156 L39.0433789,45 L45.7450391,45 Z M48.5980274,45 L57.1673633,45 L57.1673633,48.9550781 L53.7371876,48.9550781 L53.7371876,52.7026367 L56.9476368,52.7026367 L56.9476368,56.4624023 L53.7371876,56.4624023 L53.7371876,60.8081055 L57.5091602,60.8081055 L57.5091602,64.7631836 L48.5980274,64.7631836 L48.5980274,45 Z" id="MEME" fill="#00FFC5"></path>
            </g>
            <g id="Troll-Face" transform="translate(5.000000, 10.000000)">
                <path d="M47.1305,9.0497 L47.0835,9.1057 C46.9885,9.0687 46.8865,9.0427 46.8005,8.9907 C46.5415,8.8377 46.2805,8.6847 46.0355,8.5107 C45.5395,8.1587 45.0705,7.7677 44.5625,7.4367 C42.7385,6.2497 40.8005,5.2817 38.7975,4.4357 C36.5445,3.4847 34.1975,2.9527 31.7555,3.0627 C29.7115,3.1537 27.6705,3.3807 25.6335,3.5927 C23.3455,3.8317 21.0565,3.9817 18.7535,3.9047 C17.6475,3.8677 16.5385,3.8477 15.4325,3.8577 C14.0175,3.8717 12.6495,4.1197 11.3515,4.7197 C10.0755,5.3097 8.8365,5.9597 7.6925,6.7757 C7.3095,7.0487 6.9505,7.3607 6.6095,7.6847 C5.9415,8.3177 5.6985,9.1317 5.6545,10.0287 C5.5975,11.2217 5.2575,12.3117 4.3995,13.1867 C4.0775,13.5147 3.7335,13.8187 3.4025,14.1377 C3.0135,14.5137 2.6205,14.8877 2.2425,15.2767 C1.8055,15.7277 1.5575,16.2747 1.4495,16.8947 C1.2765,17.8947 1.2365,18.8997 1.2915,19.9117 C1.3355,20.7127 1.5275,21.4747 1.8775,22.1947 C2.2395,22.9387 2.6025,23.6837 2.9915,24.4137 C3.5845,25.5287 3.8715,26.7167 3.8805,27.9727 C3.8935,29.9317 3.9125,31.8917 3.9015,33.8507 C3.8835,36.6377 3.8265,39.4247 3.5415,42.2017 C3.4735,42.8687 3.4445,43.5417 3.7275,44.1827 C4.2745,45.4247 5.1025,46.4757 6.1935,47.2397 C7.5375,48.1807 9.0425,48.8357 10.7155,48.9237 C11.9405,48.9877 13.1695,48.9867 14.3975,48.9687 C16.2525,48.9427 18.1045,48.8187 19.9155,48.3817 C21.5675,47.9847 23.2045,47.5317 24.8515,47.1137 C25.5595,46.9347 26.2725,46.7767 26.9845,46.6157 C27.9145,46.4067 28.8745,46.3217 29.7615,45.9257 C30.5655,45.5657 31.3895,45.2487 32.1875,44.8757 C34.8815,43.6157 37.5245,42.2507 40.2745,41.1077 C42.1265,40.3377 43.8505,39.3047 45.5795,38.2907 C47.6095,37.1007 49.3265,35.5467 50.8575,33.7777 C51.5265,33.0037 52.0675,32.1437 52.4965,31.2157 C52.9765,30.1807 53.5245,29.1857 54.2295,28.2847 C54.4845,27.9597 54.7755,27.6617 55.0435,27.3477 C55.1025,27.2787 55.1365,27.1927 55.2145,27.0577 C54.7895,27.1467 54.4345,27.2217 54.0785,27.2957 C54.0675,27.2657 54.0555,27.2347 54.0435,27.2037 C54.1265,27.1357 54.2005,27.0497 54.2935,27.0007 C54.6205,26.8307 54.9455,26.6547 55.2855,26.5147 C55.8825,26.2687 56.4025,25.9167 56.8285,25.4357 C57.8655,24.2627 58.6035,22.9307 58.8975,21.3797 C59.1035,20.2877 59.0645,19.2117 58.5145,18.2137 C57.7705,16.8617 56.8075,15.6807 55.6515,14.6567 C55.3595,14.3967 55.0245,14.2107 54.6355,14.1447 C53.8125,14.0037 52.9885,13.8647 52.1625,13.7437 C51.7155,13.6777 51.2635,13.6487 50.8135,13.6037 C50.8145,13.5837 50.8145,13.5637 50.8145,13.5437 C50.9305,13.5367 51.0455,13.5287 51.1615,13.5247 C51.9675,13.4947 52.7725,13.4687 53.5775,13.4297 C53.6785,13.4247 53.7755,13.3457 53.8735,13.3007 C53.8295,13.2097 53.8065,13.0977 53.7395,13.0287 C53.1645,12.4367 52.7775,11.7187 52.4015,10.9987 C51.7915,9.8307 51.2235,8.6417 50.5955,7.4857 C49.7765,5.9777 48.6875,4.6897 47.3215,3.6407 C46.4655,2.9817 45.5445,2.4767 44.4365,2.4127 C43.9095,2.3827 43.3835,2.3237 42.8575,2.3217 C39.1345,2.3077 35.4115,2.2707 31.6905,2.3057 C27.5375,2.3457 23.3885,2.4777 19.2575,2.9417 C18.6525,3.0087 18.0555,3.1437 17.4575,3.2617 C17.3325,3.2857 17.2195,3.3737 17.1005,3.4317 C17.1065,3.4557 17.1125,3.4807 17.1185,3.5047 C17.2095,3.5287 17.2995,3.5677 17.3925,3.5757 C17.6325,3.5977 17.8725,3.6197 18.1135,3.6197 C20.8735,3.6157 23.6275,3.4647 26.3715,3.1787 C27.9745,3.0117 29.5695,2.7827 31.1865,2.7557 C32.5215,2.7337 33.8525,2.7527 35.1745,2.9677 C37.0105,3.2667 38.7585,3.8617 40.4305,4.6487 C42.6225,5.6807 44.6355,7.0187 46.5525,8.4987 C46.6955,8.6087 46.8325,8.7277 46.9655,8.8497 C47.0285,8.9077 47.0755,8.9827 47.1305,9.0497 L47.1305,9.0497 Z M-0.0005,17.9507 C0.0265,17.6377 0.0545,17.3237 0.0795,17.0107 C0.2145,15.3427 1.0695,14.0807 2.3905,13.1457 C3.5155,12.3497 4.1855,11.3277 4.3415,9.9657 C4.3705,9.7037 4.4085,9.4407 4.4075,9.1777 C4.4045,8.4967 4.6845,7.9197 5.0655,7.3867 C5.5795,6.6647 6.2815,6.1397 6.9825,5.6137 C9.3025,3.8727 11.9245,2.8647 14.7625,2.3497 C18.6315,1.6467 22.5265,1.2257 26.4595,1.1297 C31.9295,0.9967 37.3995,0.9587 42.8695,1.0507 C43.5185,1.0617 44.1645,1.1147 44.8125,1.1337 C46.0195,1.1687 47.0245,1.6837 47.9665,2.3927 C49.6405,3.6517 50.9325,5.2317 51.9425,7.0507 C52.3505,7.7877 52.7335,8.5397 53.0975,9.2987 C53.7875,10.7377 54.7205,11.9877 55.9055,13.0577 C57.0205,14.0627 58.0635,15.1377 58.9885,16.3237 C59.6745,17.2027 60.0205,18.1817 59.9965,19.2977 C59.9755,20.3297 59.9835,21.3627 59.9645,22.3947 C59.9505,23.0897 59.7165,23.7177 59.3495,24.3057 C58.5715,25.5517 57.6595,26.6947 56.6155,27.7217 C55.4675,28.8527 54.5935,30.1587 53.8835,31.5977 C53.5155,32.3447 53.0695,33.0557 52.6325,33.7667 C51.9775,34.8287 51.0265,35.6317 50.1625,36.5137 C48.3705,38.3427 46.1895,39.6037 43.9775,40.8277 C42.4605,41.6677 40.8755,42.3607 39.2945,43.0707 C36.9735,44.1127 34.6915,45.2397 32.3895,46.3267 C31.8715,46.5707 31.3435,46.7917 30.8205,47.0267 C30.4935,47.1727 30.1665,47.3187 29.8435,47.4747 C29.1445,47.8117 28.3725,47.8357 27.6335,47.9997 C25.7365,48.4207 23.8435,48.8547 21.9525,49.3007 C20.4695,49.6507 18.9785,49.9397 17.4485,49.9787 C17.3895,49.9807 17.3305,49.9977 17.2725,50.0087 L11.1225,50.0087 C10.9585,49.9957 10.7945,49.9777 10.6295,49.9707 C9.7565,49.9357 8.8705,49.9387 8.0355,49.6567 C5.9665,48.9627 4.2365,47.8207 3.0595,45.9087 C2.4665,44.9467 2.1385,43.9627 2.2565,42.8307 C2.3235,42.1797 2.3625,41.5247 2.3935,40.8697 C2.4685,39.2517 2.5675,37.6337 2.5915,36.0147 C2.6285,33.4457 2.6245,30.8757 2.6135,28.3067 C2.6095,27.2537 2.3555,26.2497 1.8655,25.3097 C1.5005,24.6087 1.1435,23.9037 0.7895,23.1957 C0.4795,22.5737 0.2075,21.9377 0.1105,21.2417 C0.0635,20.9007 0.0365,20.5557 -0.0005,20.2117 L-0.0005,17.9507 Z" id="Fill-1" fill="#000000"></path>
                <path d="M43.9928,15.1307 C44.2968,15.3207 44.5708,15.4927 44.8548,15.6717 C44.9618,15.3737 44.9528,15.2767 44.8328,15.1687 C44.6668,15.0187 44.2928,14.9867 43.9928,15.1307 L43.9928,15.1307 Z M24.5138,40.7207 C24.5138,40.6967 24.5148,40.6737 24.5148,40.6507 L18.4948,40.6507 L18.4948,40.7207 L24.5138,40.7207 Z M20.8478,12.5187 C20.8738,12.5197 20.8988,12.5197 20.9248,12.5197 C20.9408,11.9217 21.0038,11.3187 20.9578,10.7247 C20.9258,10.3077 20.7658,9.8947 20.6238,9.4947 C20.5698,9.3457 20.4118,9.2287 20.2848,9.1157 C20.2428,9.0777 20.1368,9.0757 20.0828,9.1027 C20.0468,9.1207 20.0308,9.2257 20.0448,9.2827 C20.0728,9.3987 20.1068,9.5207 20.1728,9.6177 C20.5288,10.1447 20.6848,10.7377 20.7608,11.3557 C20.8068,11.7407 20.8198,12.1307 20.8478,12.5187 L20.8478,12.5187 Z M44.2568,13.5607 C44.7428,13.8537 45.3028,13.9747 45.7778,14.2677 L45.7638,14.3477 C45.4248,14.4267 45.0868,14.5057 44.7488,14.5857 C44.7528,14.6077 44.7558,14.6287 44.7598,14.6507 C45.0348,14.6507 45.3168,14.6907 45.5838,14.6407 C45.9328,14.5757 46.2758,14.4557 46.6088,14.3267 C46.7048,14.2897 46.7598,14.1437 46.8328,14.0477 C46.7408,13.9937 46.6528,13.9087 46.5548,13.8917 C45.8448,13.7707 45.1328,13.6617 44.4198,13.5517 C44.3668,13.5437 44.3108,13.5577 44.2568,13.5607 L44.2568,13.5607 Z M30.6868,7.1587 C29.6968,7.1047 28.6838,9.3577 29.0238,10.7757 C29.0648,10.6067 29.0988,10.4957 29.1178,10.3827 C29.2798,9.3967 29.6438,8.5077 30.3298,7.7607 C30.4738,7.6027 30.5548,7.3857 30.6868,7.1587 L30.6868,7.1587 Z M36.6768,21.8197 C36.6788,21.8067 36.6798,21.7917 36.6808,21.7777 C37.1688,21.8187 37.6558,21.8627 38.1438,21.8967 C38.2018,21.9007 38.3108,21.8477 38.3128,21.8167 C38.3178,21.7387 38.2978,21.6227 38.2438,21.5887 C38.1468,21.5267 38.0208,21.4907 37.9038,21.4817 C37.2658,21.4307 36.6278,21.3987 35.9908,21.3457 C35.2868,21.2887 34.5798,21.2397 33.8808,21.1427 C33.4648,21.0847 33.3118,20.7517 33.4638,20.3687 C33.5088,20.2547 33.5408,20.1227 33.3988,20.0877 C33.3208,20.0677 33.1798,20.1357 33.1268,20.2077 C32.8358,20.6077 33.0058,21.2127 33.4578,21.4147 C33.5798,21.4687 33.7148,21.5107 33.8468,21.5257 C34.7898,21.6287 35.7328,21.7227 36.6768,21.8197 L36.6768,21.8197 Z M6.2918,15.9087 C6.2828,15.8907 6.2748,15.8707 6.2668,15.8517 C6.1678,15.8517 6.0588,15.8247 5.9718,15.8567 C5.5198,16.0167 5.0708,16.1857 4.6258,16.3637 C4.2638,16.5087 4.0708,16.7937 3.9678,17.1677 C3.7098,18.1017 3.5918,19.0537 3.5558,20.0197 C3.5228,20.9507 4.2178,21.9627 5.1018,22.2587 C5.1648,22.2797 5.2418,22.2587 5.3118,22.2577 C5.2978,22.1887 5.2968,22.1127 5.2658,22.0527 C5.2288,21.9807 5.1728,21.9147 5.1148,21.8567 C4.8668,21.6057 4.6198,21.3527 4.3638,21.1087 C4.0228,20.7827 3.8388,20.3897 3.8848,19.9197 C3.9438,19.3287 4.0378,18.7407 4.1068,18.1517 C4.1968,17.3897 4.5658,16.8557 5.3008,16.5707 C5.5768,16.4637 5.8248,16.2807 6.0798,16.1207 C6.1618,16.0687 6.2218,15.9807 6.2918,15.9087 L6.2918,15.9087 Z M11.0628,11.0417 C11.1468,10.9287 11.2028,10.8727 11.2348,10.8047 C11.3088,10.6487 11.3808,10.4897 11.4368,10.3277 C11.6348,9.7627 11.9618,9.2767 12.4578,8.9547 C13.0998,8.5397 13.7658,8.1537 14.4508,7.8137 C14.9138,7.5847 15.4318,7.4877 15.9618,7.5347 C16.3188,7.5677 16.6768,7.6027 17.0328,7.6407 C17.9608,7.7397 18.8898,7.8287 19.8148,7.9477 C20.3218,8.0127 20.8198,8.1407 21.3248,8.2197 C21.4308,8.2357 21.5518,8.1617 21.6658,8.1297 C21.5778,8.0487 21.5028,7.9247 21.3998,7.8957 C20.9478,7.7657 20.4928,7.6127 20.0288,7.5597 C18.6768,7.4047 17.3188,7.2827 15.9628,7.1707 C15.2928,7.1157 14.6338,7.2157 14.0278,7.5197 C13.5138,7.7777 13.0118,8.0647 12.5178,8.3617 C12.2818,8.5047 12.0488,8.6747 11.8668,8.8797 C11.6238,9.1517 11.3978,9.4507 11.2288,9.7717 C11.0348,10.1387 10.9908,10.5517 11.0628,11.0417 L11.0628,11.0417 Z M27.9118,22.3307 C27.4958,22.3657 27.1268,22.3797 26.7628,22.4317 C26.2838,22.4997 25.8058,22.5987 25.4158,22.9067 C25.3188,22.9837 25.2258,23.1527 25.2438,23.2617 C25.2618,23.3657 25.4108,23.4687 25.5238,23.5337 C25.6168,23.5867 25.7408,23.5997 25.8518,23.6037 C26.2428,23.6167 26.6348,23.6117 27.0248,23.6257 C27.4608,23.6417 27.8968,23.6517 28.3288,23.7037 C28.4928,23.7237 28.6748,23.8207 28.7938,23.9387 C29.0588,24.2017 29.3468,24.2167 29.5068,23.8827 C29.6258,23.6367 29.6738,23.3397 29.6848,23.0627 C29.6988,22.7027 29.5478,22.5317 29.1888,22.4747 C28.7518,22.4037 28.3078,22.3737 27.9118,22.3307 L27.9118,22.3307 Z M43.5968,11.1027 C43.6188,11.0867 43.6398,11.0697 43.6628,11.0537 C43.6328,10.9667 43.6178,10.8717 43.5688,10.7967 C43.4788,10.6587 43.3778,10.5257 43.2658,10.4037 C42.1278,9.1747 40.8138,8.1737 39.2638,7.5367 C38.4968,7.2227 37.6808,6.9907 36.8638,6.8397 C35.0198,6.4977 33.1478,6.5017 31.2798,6.5267 C30.7388,6.5337 30.1988,6.6017 29.6598,6.6527 C29.5348,6.6647 29.4138,6.7207 29.2908,6.7557 C29.2938,6.7787 29.2968,6.8017 29.3008,6.8257 C29.3908,6.8427 29.4818,6.8707 29.5748,6.8757 C29.8518,6.8897 30.1318,6.9067 30.4098,6.9037 C31.3738,6.8927 32.3378,6.8417 33.3008,6.8637 C35.0158,6.9037 36.7058,7.0657 38.3528,7.6527 C39.9898,8.2357 41.3858,9.1357 42.6098,10.3407 C42.8408,10.5677 43.0968,10.7677 43.3468,10.9717 C43.4178,11.0297 43.5128,11.0597 43.5968,11.1027 L43.5968,11.1027 Z M49.6488,14.1937 C49.6498,14.2077 49.6508,14.2227 49.6518,14.2367 C50.1868,14.2827 50.7238,14.3157 51.2588,14.3767 C52.3278,14.5007 53.3948,14.6347 54.4628,14.7787 C54.6008,14.7977 54.7538,14.8767 54.8588,14.9727 C55.5708,15.6247 56.1548,16.3817 56.5558,17.2617 C56.6848,17.5437 56.7598,17.8647 56.7888,18.1757 C56.9178,19.5467 56.8268,20.9107 56.6738,22.2777 C56.5258,23.5887 55.8968,24.5057 54.6938,25.0527 C54.2288,25.2637 53.7938,25.5387 53.3478,25.7907 C53.2598,25.8417 53.1848,25.9197 53.1048,25.9847 C53.1158,26.0047 53.1278,26.0247 53.1388,26.0437 C53.2408,26.0277 53.3478,26.0297 53.4418,25.9937 C54.0098,25.7757 54.5888,25.5757 55.1388,25.3177 C56.1778,24.8287 56.7558,23.9877 56.9308,22.8537 C57.1868,21.1917 57.2078,19.5237 57.1018,17.8497 C57.0938,17.7077 57.0678,17.5647 57.0308,17.4277 C56.7578,16.4047 56.1188,15.6267 55.3518,14.9357 C54.9378,14.5607 54.4618,14.3447 53.8998,14.2707 C52.5178,14.0887 51.1338,14.1407 49.7478,14.1697 C49.7148,14.1707 49.6818,14.1857 49.6488,14.1937 L49.6488,14.1937 Z M7.9668,14.4167 L7.9668,14.4197 C8.5538,14.4197 9.1408,14.4277 9.7288,14.4147 C9.9368,14.4107 10.1478,14.3687 10.3508,14.3187 C10.4238,14.3017 10.5348,14.2027 10.5278,14.1547 C10.5168,14.0767 10.4338,13.9587 10.3658,13.9457 C10.1548,13.9077 9.9338,13.8867 9.7218,13.9037 C9.1978,13.9477 8.6768,14.0407 8.1518,14.0697 C7.4908,14.1067 6.8268,14.1017 6.1648,14.1107 C5.5678,14.1197 5.0438,14.3147 4.5898,14.7007 C4.4178,14.8467 4.2508,15.0007 4.0718,15.1387 C3.7438,15.3917 3.4338,15.6827 3.0708,15.8677 C2.7498,16.0317 2.5538,16.2687 2.3958,16.5607 C2.2468,16.8377 2.1088,17.1227 1.9788,17.4107 C1.7668,17.8837 1.6748,18.3777 1.6718,18.9017 C1.6648,19.8847 1.8798,20.8277 2.0968,21.7757 C2.2158,22.2897 2.5068,22.6687 2.9268,22.9707 C3.5318,23.4047 4.2028,23.7077 4.8948,23.9677 C5.1898,24.0777 5.4958,24.1637 5.7998,24.2487 C5.8558,24.2647 5.9298,24.2197 5.9968,24.2017 C5.9608,24.1437 5.9368,24.0667 5.8858,24.0277 C5.7968,23.9617 5.6898,23.9167 5.5888,23.8667 C4.9068,23.5317 4.2218,23.1997 3.5408,22.8617 C2.9968,22.5917 2.6438,22.1567 2.4908,21.5707 C2.3528,21.0477 2.2328,20.5197 2.1098,19.9917 C1.9398,19.2707 1.9708,18.5597 2.2108,17.8547 C2.4758,17.0747 2.8928,16.4387 3.6378,16.0087 C4.0938,15.7447 4.5008,15.3777 4.8828,15.0087 C5.2558,14.6477 5.6668,14.4267 6.1808,14.4187 C6.7758,14.4097 7.3708,14.4167 7.9668,14.4167 L7.9668,14.4167 Z M32.6768,22.4737 C32.6678,22.4727 32.6588,22.4727 32.6498,22.4717 C32.6498,22.2377 32.6638,22.0037 32.6468,21.7727 C32.6078,21.2197 32.3648,20.7607 31.8798,20.4957 C31.0108,20.0237 30.0838,19.9907 29.1458,20.2727 C28.9498,20.3307 28.7708,20.4447 28.7588,20.6917 C28.7488,20.8987 28.8928,21.1107 29.1388,21.1987 C29.3278,21.2667 29.5318,21.2947 29.7288,21.3407 C30.1318,21.4327 30.5418,21.5007 30.9338,21.6237 C31.3108,21.7417 31.4438,21.9717 31.4218,22.3657 C31.3978,22.7927 31.2098,23.1397 30.8818,23.4177 C30.4578,23.7767 30.4318,24.2617 30.7998,24.6647 C30.9218,24.7987 31.0568,24.8527 31.2188,24.7577 C31.5288,24.5757 31.8458,24.4007 32.1388,24.1937 C32.3988,24.0087 32.5528,23.7317 32.5968,23.4147 C32.6408,23.1037 32.6518,22.7867 32.6768,22.4737 L32.6768,22.4737 Z M45.3518,10.6347 C45.3788,10.6127 45.4048,10.5907 45.4318,10.5687 C45.3058,10.3907 45.1878,10.2077 45.0548,10.0357 C44.2428,8.9927 43.1938,8.2107 42.1108,7.4947 C40.5158,6.4427 38.7658,5.6797 36.8978,5.2867 C35.5248,4.9987 34.1148,4.8607 32.7148,4.7317 C31.0978,4.5827 29.4748,4.6047 27.8748,4.9227 C26.0218,5.2907 24.1538,5.5147 22.2668,5.5377 C19.8608,5.5677 17.4668,5.3637 15.0718,5.1417 C14.3558,5.0757 13.6298,5.0937 12.9088,5.1187 C12.4548,5.1337 12.0828,5.3857 11.7748,5.7137 C11.7108,5.7817 11.6938,5.8937 11.6548,5.9857 C11.7538,5.9867 11.8618,6.0137 11.9488,5.9827 C12.1018,5.9257 12.2498,5.8437 12.3888,5.7547 C12.7078,5.5507 13.0548,5.4207 13.4308,5.4247 C14.0238,5.4307 14.6188,5.4567 15.2128,5.4927 C16.9778,5.6027 18.7418,5.7627 20.5098,5.8257 C22.5968,5.8997 24.6808,5.7907 26.7508,5.4717 C27.6658,5.3307 28.5788,5.1567 29.4988,5.0677 C31.9138,4.8337 34.3038,5.0977 36.6598,5.6107 C38.5398,6.0217 40.2888,6.7827 41.8998,7.8527 C42.6628,8.3587 43.3878,8.9017 44.0318,9.5547 C44.3328,9.8597 44.6688,10.1307 44.9958,10.4077 C45.1018,10.4977 45.2328,10.5597 45.3518,10.6347 L45.3518,10.6347 Z M9.1718,39.5327 C9.1508,39.5557 9.1318,39.5777 9.1108,39.6007 C9.2218,39.7607 9.3218,39.9327 9.4488,40.0807 C10.5218,41.3447 11.9308,42.0377 13.5128,42.4097 C14.8418,42.7227 16.2018,42.7367 17.5578,42.7377 C20.5368,42.7387 23.5078,42.5447 26.4768,42.3517 C27.7408,42.2697 29.0008,42.1447 30.2258,41.7987 C32.2148,41.2367 34.1378,40.4917 36.0428,39.6967 C38.4978,38.6727 40.9108,37.5607 43.2238,36.2417 C43.3968,36.1447 43.5608,36.0297 43.7278,35.9237 C43.7198,35.9047 43.7108,35.8867 43.7008,35.8667 C43.6268,35.8897 43.5498,35.9037 43.4788,35.9347 C42.6768,36.2777 41.8608,36.5957 41.0748,36.9737 C38.3458,38.2867 35.5708,39.4937 32.7418,40.5807 C30.5688,41.4157 28.3498,41.9537 26.0168,42.0347 C23.9248,42.1087 21.8338,42.2537 19.7398,42.3267 C18.2648,42.3787 16.7848,42.4327 15.3128,42.3597 C13.4068,42.2647 11.7158,41.5437 10.2648,40.2827 C10.0048,40.0567 9.7228,39.8527 9.4438,39.6487 C9.3658,39.5917 9.2638,39.5697 9.1718,39.5327 L9.1718,39.5327 Z M11.9298,20.0657 C12.2758,20.0347 12.6148,20.0207 12.9498,19.9737 C13.4658,19.9017 13.9788,19.8147 14.4238,19.5127 C14.7108,19.3177 14.9478,19.0797 15.0348,18.7307 C15.1388,18.3137 14.8628,17.9767 14.4528,18.0687 C14.0768,18.1537 13.7028,18.2897 13.3558,18.4607 C12.8808,18.6947 12.4498,18.6877 12.0188,18.3787 C11.6828,18.1377 11.3388,17.9067 11.0018,17.6667 C10.3658,17.2137 9.6658,16.9467 8.8808,16.9257 C8.5648,16.9177 8.2478,16.9057 7.9318,16.9217 C7.2828,16.9517 6.6388,17.0277 6.0398,17.3027 C5.6468,17.4827 5.3178,17.7447 5.1258,18.1407 C5.0128,18.3717 5.0198,18.6077 5.1948,18.8187 C5.3658,19.0247 5.5818,19.0347 5.8098,18.9527 C5.9938,18.8877 6.1848,18.8257 6.3478,18.7237 C6.9958,18.3137 7.7078,18.1787 8.4598,18.1717 C9.4088,18.1627 10.1318,18.4847 10.4588,19.4527 C10.5648,19.7687 10.8158,19.9527 11.1498,19.9957 C11.4108,20.0297 11.6738,20.0437 11.9298,20.0657 L11.9298,20.0657 Z M6.4308,40.1637 C6.4168,40.1647 6.4008,40.1667 6.3868,40.1687 C6.3708,40.4437 6.3698,40.7217 6.3368,40.9937 C6.2538,41.6937 6.5238,42.2097 7.1148,42.5727 C7.8898,43.0507 8.6598,43.5397 9.4428,44.0037 C9.8998,44.2747 10.4018,44.4497 10.9328,44.5007 C11.5018,44.5547 12.0748,44.6097 12.6448,44.6027 C14.6178,44.5747 16.5928,44.5477 18.5638,44.4667 C20.0678,44.4057 21.5718,44.2937 23.0708,44.1517 C25.0818,43.9587 27.0628,43.5757 29.0428,43.1807 C31.7628,42.6367 34.4548,42.0037 37.0548,41.0137 C39.5858,40.0497 42.0138,38.8677 44.4048,37.6067 C45.2228,37.1737 46.0078,36.6787 46.8038,36.2067 C46.8898,36.1557 46.9538,36.0677 47.0288,35.9977 C47.0158,35.9817 47.0038,35.9647 46.9908,35.9467 C46.8778,35.9847 46.7608,36.0097 46.6538,36.0587 C46.0728,36.3267 45.4838,36.5787 44.9188,36.8767 C42.8648,37.9577 40.8068,39.0267 38.6748,39.9447 C36.8198,40.7437 34.9538,41.5137 32.9698,41.9427 C31.4308,42.2767 29.8928,42.6097 28.3518,42.9347 C26.1918,43.3877 24.0228,43.8087 21.8168,43.9657 C19.9698,44.0977 18.1178,44.1917 16.2668,44.2597 C14.8748,44.3107 13.4808,44.3087 12.0878,44.3027 C11.4598,44.2997 10.8228,44.2107 10.2708,43.8997 C9.2558,43.3277 8.2608,42.7197 7.2748,42.0977 C6.7808,41.7857 6.5458,41.2917 6.5058,40.7057 C6.4938,40.5247 6.4568,40.3447 6.4308,40.1637 L6.4308,40.1637 Z M49.5138,16.5947 C49.8098,16.6227 50.1798,16.6427 50.5438,16.6987 C51.2188,16.8037 51.8768,16.9567 52.3868,17.4677 C53.1068,18.1917 53.6218,19.0387 53.9318,20.0097 C54.0668,20.4287 54.0848,20.8567 53.9598,21.2787 C53.8338,21.7037 53.6798,22.1207 53.5568,22.5477 C53.4328,22.9797 53.3108,23.4147 53.2288,23.8567 C53.1798,24.1207 53.3208,24.3207 53.5318,24.4027 C53.7638,24.4927 53.9528,24.4017 54.0948,24.2277 C54.2638,24.0187 54.4418,23.8057 54.5618,23.5677 C55.7638,21.1847 55.4648,18.7417 53.6468,16.7747 C52.9108,15.9787 52.0188,15.4457 50.9148,15.3917 C50.1648,15.3557 49.4098,15.3737 48.6598,15.4127 C47.8548,15.4537 47.0978,15.6807 46.3728,16.0517 C45.3788,16.5587 44.3348,16.9527 43.2578,17.2517 C42.6338,17.4247 42.0018,17.6157 41.3468,17.5177 C39.9238,17.3007 38.6328,16.7917 37.6158,15.7187 C37.3788,15.4687 37.0878,15.3147 36.7258,15.3707 C36.3298,15.4327 36.1478,15.7667 36.3268,16.1187 C36.4068,16.2777 36.5068,16.4357 36.6258,16.5677 C37.8338,17.9027 39.2828,18.7207 41.1368,18.7627 C42.7568,18.7987 44.2928,18.4607 45.7838,17.8747 C46.4478,17.6137 47.1158,17.3437 47.7358,16.9947 C48.1268,16.7757 48.5118,16.6497 48.9448,16.6227 C49.1098,16.6127 49.2758,16.6067 49.5138,16.5947 L49.5138,16.5947 Z M35.5318,10.7077 C35.5288,10.6867 35.5268,10.6657 35.5248,10.6447 C34.7638,10.7237 33.9898,10.7457 33.2418,10.8937 C32.0438,11.1317 30.9878,11.7337 29.9828,12.4037 C29.4468,12.7617 28.9488,13.1817 28.4688,13.6127 C28.2908,13.7717 28.1468,14.0287 28.1028,14.2627 C28.0078,14.7747 28.1138,15.2647 28.5548,15.6047 C29.0858,16.0127 29.6338,16.3977 30.1698,16.7977 C30.2918,16.8887 30.3958,16.8947 30.5358,16.8247 C31.1288,16.5287 31.7278,16.2477 32.3248,15.9587 C34.5658,14.8707 36.9198,14.5107 39.3828,14.8767 C40.0528,14.9757 40.7168,15.1147 41.3868,15.2127 C41.9858,15.3007 42.5608,15.2407 43.0368,14.8017 C43.3768,14.4857 43.4438,14.2277 43.2358,13.8157 C43.1188,13.5837 42.9718,13.3567 42.8018,13.1607 C42.0008,12.2397 41.0168,11.5947 39.8408,11.2587 C38.4318,10.8577 36.9938,10.6877 35.5318,10.7077 L35.5318,10.7077 Z M12.6438,24.1747 C12.7978,24.1437 12.8878,24.1387 12.9658,24.1067 C13.1598,24.0257 13.3468,23.9267 13.5398,23.8427 C14.2088,23.5517 14.8698,23.2387 15.5528,22.9827 C16.1428,22.7607 16.2528,22.8187 16.6478,23.3027 C16.6628,23.3197 16.6778,23.3377 16.6928,23.3537 C16.8878,23.5557 17.0288,23.5737 17.2368,23.3887 C17.4208,23.2247 17.6108,23.2187 17.7938,23.3437 C18.0418,23.5137 18.2868,23.6937 18.5038,23.8987 C18.9958,24.3647 19.4798,24.8397 19.9488,25.3287 C20.5248,25.9307 21.2138,26.1387 22.0238,25.9947 C22.5198,25.9057 22.9998,25.7817 23.3538,25.3907 C23.6298,25.0857 23.6278,24.7677 23.3638,24.4827 C23.1008,24.1977 22.8608,24.1797 22.5168,24.4707 C22.1558,24.7767 21.7658,24.8307 21.3668,24.6117 C21.0398,24.4337 20.7258,24.2167 20.4448,23.9737 C19.9178,23.5177 19.4778,22.9777 19.1458,22.3617 C18.8548,21.8217 19.2148,20.8777 19.8038,20.7057 C20.2428,20.5777 20.5818,20.3237 20.9118,20.0377 C21.3928,19.6197 21.6368,19.0857 21.6608,18.4507 C21.6748,18.0827 21.7028,17.7127 21.6908,17.3447 C21.6708,16.6747 21.9648,16.2357 22.5768,15.9687 C22.8908,15.8307 23.1848,15.6387 23.4698,15.4427 C23.6298,15.3317 23.8348,15.1937 23.7828,14.9607 C23.7308,14.7307 23.4918,14.6977 23.2988,14.6487 C23.1168,14.6027 22.9278,14.5627 22.7418,14.5647 C21.9018,14.5757 21.1888,14.2677 20.5438,13.7517 C19.7818,13.1447 18.9538,12.6507 17.9868,12.4587 C16.7178,12.2067 15.4308,12.1667 14.1398,12.2307 C13.1188,12.2817 12.2538,12.6557 11.5858,13.4447 C11.2098,13.8887 11.2588,14.2457 11.7448,14.5737 C11.8608,14.6517 11.9998,14.7147 12.1368,14.7387 C12.8038,14.8537 13.4718,14.9677 14.1418,15.0557 C15.3668,15.2167 16.5958,15.3447 17.8168,15.5157 C18.5198,15.6137 19.1988,15.8157 19.8418,16.1297 C20.2228,16.3167 20.4208,16.5967 20.3958,17.0247 C20.3808,17.2947 20.3638,17.5657 20.3478,17.8357 C20.3058,18.5667 19.9948,19.1137 19.3378,19.4847 C18.3918,20.0167 17.5128,20.6487 16.7058,21.3767 C16.3048,21.7397 15.9278,22.1347 15.5028,22.4697 C15.2488,22.6687 14.9398,22.8547 14.6308,22.9127 C13.9068,23.0497 13.3298,23.4047 12.8188,23.9047 C12.7608,23.9617 12.7268,24.0447 12.6438,24.1747 L12.6438,24.1747 Z M22.3158,39.2777 C23.7168,39.2227 25.1168,39.1787 26.5158,39.1097 C28.6428,39.0027 30.7448,38.7127 32.8128,38.2037 C35.0778,37.6477 37.2558,36.8877 39.2198,35.5837 C40.6268,34.6497 41.9448,33.6037 43.2378,32.5217 C43.9858,31.8967 44.6918,31.2257 45.2848,30.4517 C46.1368,29.3397 46.9668,28.2107 47.7878,27.0767 C48.4148,26.2107 48.9658,25.2907 49.7128,24.5137 C49.8198,24.4017 49.9008,24.1617 49.8578,24.0257 C49.6988,23.5297 49.8598,23.1067 50.0638,22.6817 C50.2128,22.3737 50.4638,22.1907 50.8048,22.1547 C51.0728,22.1277 51.3468,22.1377 51.6148,22.1107 C51.9808,22.0757 52.3488,22.0427 52.7078,21.9667 C52.8288,21.9407 53.0078,21.7857 53.0088,21.6897 C53.0098,21.5537 52.8768,21.4107 52.7848,21.2827 C52.7498,21.2347 52.6698,21.2167 52.6068,21.1907 C52.1168,20.9847 51.6328,20.7647 51.1348,20.5797 C50.3918,20.3047 49.9518,19.7897 49.7738,19.0207 C49.7048,18.7157 49.5898,18.4157 49.4608,18.1297 C49.3668,17.9227 49.2448,17.6747 48.9618,17.7097 C48.6708,17.7467 48.5638,18.0027 48.4748,18.2497 C48.4678,18.2707 48.4718,18.2967 48.4618,18.3157 C48.3748,18.4797 48.3118,18.6667 48.1898,18.7977 C48.0218,18.9767 47.8238,19.1427 47.6098,19.2617 C46.5928,19.8257 45.5888,20.4237 44.5358,20.9167 C42.4268,21.9057 40.2468,22.7227 38.0188,23.4097 C35.1778,24.2877 32.3448,25.1957 29.4468,25.8847 C27.3748,26.3777 25.2728,26.6637 23.1508,26.8267 C21.1388,26.9817 19.1298,27.0407 17.1308,26.7217 C15.0538,26.3897 13.1098,25.6887 11.3378,24.5357 C10.4208,23.9407 9.8138,23.1377 9.6108,22.0497 C9.5678,21.8197 9.5368,21.5887 9.4898,21.3597 C9.3908,20.8747 9.2978,20.3887 9.1788,19.9077 C9.1368,19.7387 9.0148,19.5907 8.8128,19.5867 C8.6038,19.5837 8.4718,19.7217 8.4148,19.9017 C8.3248,20.1867 8.2868,20.4877 8.1888,20.7707 C8.0828,21.0787 7.9978,21.4337 7.7868,21.6577 C7.5078,21.9527 7.3228,22.2757 7.2428,22.6487 C7.0858,23.3757 6.9268,24.1077 6.8408,24.8457 C6.5548,27.3097 6.5758,29.7777 6.8318,32.2437 C6.9788,33.6627 7.4748,34.9647 8.2828,36.1407 C8.9958,37.1787 10.0328,37.7507 11.2018,38.1147 C12.8438,38.6277 14.5398,38.8467 16.2408,39.0167 C18.2608,39.2187 20.2868,39.2557 22.3158,39.2777 L22.3158,39.2777 Z M47.1308,9.0497 C47.0758,8.9827 47.0288,8.9077 46.9658,8.8497 C46.8328,8.7277 46.6958,8.6087 46.5528,8.4987 C44.6358,7.0187 42.6228,5.6807 40.4298,4.6487 C38.7588,3.8607 37.0108,3.2667 35.1748,2.9677 C33.8518,2.7527 32.5208,2.7337 31.1858,2.7557 C29.5698,2.7827 27.9738,3.0117 26.3718,3.1787 C23.6278,3.4647 20.8738,3.6157 18.1138,3.6197 C17.8728,3.6197 17.6328,3.5977 17.3918,3.5757 C17.2998,3.5677 17.2098,3.5287 17.1188,3.5047 C17.1128,3.4807 17.1058,3.4557 17.0998,3.4317 C17.2198,3.3737 17.3328,3.2857 17.4578,3.2617 C18.0558,3.1437 18.6528,3.0087 19.2578,2.9417 C23.3888,2.4777 27.5378,2.3457 31.6898,2.3057 C35.4118,2.2707 39.1348,2.3077 42.8568,2.3217 C43.3838,2.3237 43.9098,2.3817 44.4358,2.4127 C45.5448,2.4767 46.4658,2.9817 47.3218,3.6407 C48.6868,4.6897 49.7768,5.9777 50.5958,7.4847 C51.2228,8.6417 51.7918,9.8307 52.4018,10.9987 C52.7778,11.7187 53.1648,12.4367 53.7398,13.0287 C53.8058,13.0977 53.8298,13.2097 53.8738,13.3007 C53.7748,13.3457 53.6788,13.4247 53.5778,13.4297 C52.7718,13.4687 51.9678,13.4947 51.1618,13.5247 C51.0458,13.5287 50.9298,13.5367 50.8138,13.5437 C50.8138,13.5637 50.8138,13.5837 50.8128,13.6037 C51.2638,13.6487 51.7158,13.6777 52.1628,13.7437 C52.9888,13.8647 53.8118,14.0037 54.6358,14.1447 C55.0238,14.2107 55.3588,14.3967 55.6518,14.6567 C56.8068,15.6807 57.7698,16.8617 58.5138,18.2137 C59.0638,19.2117 59.1028,20.2877 58.8968,21.3797 C58.6028,22.9307 57.8658,24.2627 56.8288,25.4357 C56.4028,25.9167 55.8828,26.2687 55.2858,26.5147 C54.9458,26.6547 54.6208,26.8307 54.2938,27.0007 C54.2008,27.0497 54.1268,27.1357 54.0438,27.2037 C54.0558,27.2347 54.0668,27.2657 54.0788,27.2957 C54.4338,27.2217 54.7898,27.1467 55.2148,27.0577 C55.1368,27.1927 55.1018,27.2787 55.0438,27.3477 C54.7748,27.6617 54.4848,27.9597 54.2288,28.2847 C53.5238,29.1857 52.9758,30.1807 52.4968,31.2157 C52.0668,32.1437 51.5258,33.0037 50.8568,33.7767 C49.3268,35.5467 47.6088,37.1007 45.5798,38.2907 C43.8498,39.3047 42.1268,40.3377 40.2738,41.1077 C37.5238,42.2507 34.8818,43.6157 32.1868,44.8757 C31.3888,45.2487 30.5648,45.5657 29.7618,45.9257 C28.8748,46.3217 27.9148,46.4067 26.9838,46.6157 C26.2718,46.7767 25.5588,46.9347 24.8508,47.1137 C23.2048,47.5317 21.5668,47.9847 19.9158,48.3817 C18.1038,48.8187 16.2528,48.9427 14.3968,48.9687 C13.1698,48.9857 11.9398,48.9867 10.7158,48.9237 C9.0428,48.8357 7.5378,48.1807 6.1938,47.2397 C5.1018,46.4757 4.2738,45.4247 3.7268,44.1827 C3.4448,43.5417 3.4728,42.8687 3.5418,42.2017 C3.8268,39.4247 3.8838,36.6377 3.9008,33.8507 C3.9128,31.8917 3.8928,29.9317 3.8808,27.9727 C3.8718,26.7167 3.5848,25.5287 2.9918,24.4137 C2.6018,23.6837 2.2398,22.9387 1.8778,22.1937 C1.5278,21.4747 1.3358,20.7127 1.2918,19.9117 C1.2368,18.8997 1.2758,17.8947 1.4498,16.8947 C1.5568,16.2747 1.8048,15.7277 2.2428,15.2767 C2.6208,14.8877 3.0138,14.5137 3.4028,14.1377 C3.7328,13.8187 4.0778,13.5147 4.3988,13.1867 C5.2578,12.3117 5.5968,11.2217 5.6548,10.0277 C5.6988,9.1307 5.9408,8.3177 6.6088,7.6847 C6.9508,7.3607 7.3088,7.0477 7.6918,6.7757 C8.8368,5.9597 10.0758,5.3097 11.3508,4.7197 C12.6488,4.1197 14.0168,3.8717 15.4318,3.8577 C16.5388,3.8477 17.6468,3.8677 18.7538,3.9047 C21.0558,3.9817 23.3458,3.8317 25.6338,3.5927 C27.6708,3.3807 29.7118,3.1537 31.7558,3.0627 C34.1978,2.9527 36.5448,3.4847 38.7978,4.4357 C40.8008,5.2817 42.7388,6.2497 44.5618,7.4367 C45.0708,7.7677 45.5398,8.1587 46.0358,8.5107 C46.2808,8.6847 46.5418,8.8377 46.8008,8.9907 C46.8868,9.0427 46.9888,9.0687 47.0838,9.1057 L47.1308,9.0497 Z" id="Fill-4" fill="#FFFFFF"></path>
                <path d="M8.2291,25.0585 C8.5581,24.8705 8.8611,24.1985 8.7421,23.9475 C8.4471,24.1185 8.1521,24.7415 8.2291,25.0585 M8.3551,32.6925 C8.3321,32.7045 8.3081,32.7165 8.2851,32.7285 C8.5951,33.7855 9.0341,34.7895 9.5111,35.8095 C9.7001,35.6125 9.7181,35.5675 9.6331,35.2705 C9.3831,34.3975 8.9921,33.5885 8.4851,32.8365 C8.4491,32.7835 8.3991,32.7405 8.3551,32.6925 M10.0831,25.3195 C10.0531,25.3135 10.0241,25.3065 9.9941,25.2995 C9.9231,25.3825 9.8381,25.4575 9.7861,25.5505 C9.3391,26.3455 9.0751,27.2055 8.8861,28.0915 C8.8421,28.2965 8.9161,28.4795 9.0781,28.6185 C9.1801,28.7055 9.2881,28.7885 9.3981,28.8665 C9.7271,29.0955 9.8631,29.0535 9.9351,28.6625 C10.1151,27.6925 10.2291,26.7135 10.1671,25.7235 C10.1591,25.5875 10.1121,25.4545 10.0831,25.3195 M10.5891,35.9695 C10.5291,35.9695 10.4661,35.9575 10.4101,35.9715 C10.3401,35.9895 10.2771,36.0265 10.2111,36.0555 C10.2481,36.1235 10.2661,36.2185 10.3231,36.2575 C10.4971,36.3745 10.6731,36.5045 10.8691,36.5685 C11.4251,36.7495 11.9921,36.9015 12.5541,37.0625 C12.6041,37.0765 12.6591,37.0765 12.7111,37.0775 C12.8651,37.0825 12.9231,37.0145 12.8621,36.8675 C12.4291,35.8255 11.9801,34.7905 11.2511,33.9115 C11.1891,33.8365 11.0821,33.7895 10.9851,33.7545 C10.8561,33.7075 10.7721,33.7705 10.7861,33.9085 C10.8001,34.0565 10.8361,34.2035 10.8701,34.3495 C10.9491,34.7005 11.0581,35.0475 11.1071,35.4025 C11.1641,35.8155 10.9981,35.9725 10.5891,35.9695 M15.9661,37.7385 C16.2171,37.7095 16.3141,37.5795 16.2311,37.3385 C16.0311,36.7555 15.8341,36.1715 15.6211,35.5945 C15.5321,35.3565 15.4091,35.1305 15.2881,34.9065 C15.1801,34.7045 15.0281,34.5635 14.7711,34.5765 C14.6611,34.5805 14.5481,34.5445 14.4381,34.5195 C14.1671,34.4575 13.8991,34.3845 13.6261,34.3305 C13.5381,34.3135 13.4401,34.3385 13.3461,34.3445 C13.3571,34.4315 13.3491,34.5265 13.3811,34.6045 C13.4751,34.8255 13.5891,35.0375 13.6871,35.2565 C13.8691,35.6615 14.0541,36.0635 14.2161,36.4755 C14.2841,36.6465 14.3521,36.8525 14.3171,37.0205 C14.2641,37.2705 14.3821,37.3705 14.5631,37.4165 C15.0281,37.5375 15.4981,37.6325 15.9661,37.7385 M11.3311,27.8755 C11.4121,28.3175 11.4701,28.7575 11.5771,29.1855 C11.6831,29.6155 11.9671,29.8865 12.4241,29.9515 C12.5731,29.9715 12.7201,30.0065 12.8671,30.0375 C13.3071,30.1285 13.3321,30.1115 13.3841,29.6515 C13.3881,29.6205 13.3881,29.5905 13.3941,29.5615 C13.4861,29.0595 13.5671,28.5555 13.6761,28.0575 C13.7531,27.7025 13.7201,27.4815 13.4041,27.2995 C12.9561,27.0415 12.4861,26.8195 12.0121,26.6105 C11.7631,26.4995 11.6171,26.5735 11.5441,26.8345 C11.4521,27.1715 11.4021,27.5205 11.3311,27.8755 M46.7171,26.1595 C46.6071,26.1855 46.5451,26.1905 46.4941,26.2135 C45.5911,26.6275 44.6831,27.0315 43.7921,27.4665 C43.3751,27.6695 43.0441,27.9935 42.9411,28.4685 C42.8651,28.8205 42.8041,29.1805 42.7961,29.5375 C42.7921,29.7685 42.8581,30.0195 42.9611,30.2275 C43.1031,30.5145 43.3761,30.5335 43.6091,30.3135 C43.7021,30.2265 43.7921,30.1345 43.8771,30.0385 C44.8841,28.9045 45.7561,27.6675 46.5861,26.4005 C46.6261,26.3385 46.6581,26.2695 46.7171,26.1595 M18.4891,34.6215 C18.0091,34.6695 17.6481,34.6895 17.2921,34.7445 C16.9371,34.7985 16.8411,34.9475 16.9591,35.2795 C17.2511,36.1045 17.6141,36.8985 18.1401,37.6035 C18.2401,37.7375 18.4151,37.8715 18.5721,37.8955 C19.0971,37.9715 19.6281,38.0185 20.1601,38.0335 C20.4681,38.0415 20.5671,37.9145 20.5371,37.6015 C20.4501,36.7235 20.2791,35.8625 19.9621,35.0345 C19.8941,34.8535 19.7721,34.7455 19.5831,34.7255 C19.1801,34.6835 18.7771,34.6495 18.4891,34.6215 M22.8011,30.4395 L22.8011,30.4325 C23.3351,30.4325 23.8711,30.4545 24.4031,30.4255 C24.9561,30.3945 25.1191,30.2045 25.1351,29.6585 C25.1451,29.3285 25.1461,28.9965 25.1321,28.6645 C25.1131,28.1805 24.9561,27.9995 24.4791,28.0395 C23.4081,28.1315 22.3401,28.2645 21.2721,28.3875 C21.2111,28.3945 21.1181,28.4545 21.1071,28.5045 C20.9931,29.0095 20.8841,29.5165 20.7921,30.0265 C20.7601,30.2045 20.8751,30.3265 21.0481,30.3725 C21.1641,30.4045 21.2841,30.4345 21.4031,30.4365 C21.8691,30.4435 22.3351,30.4395 22.8011,30.4395 M17.9661,30.4775 C17.9681,30.4605 17.9701,30.4435 17.9721,30.4265 C18.2891,30.4265 18.6051,30.4395 18.9201,30.4225 C19.2861,30.4035 19.4321,30.2605 19.4891,29.9005 C19.5241,29.6775 19.5461,29.4525 19.5671,29.2275 C19.6191,28.6625 19.5031,28.4865 18.9541,28.3655 C18.5201,28.2705 18.0801,28.2015 17.6401,28.1415 C17.0511,28.0615 16.4601,27.9805 15.8681,27.9395 C15.3721,27.9055 15.1961,28.0515 15.0361,28.5255 C14.9591,28.7535 14.8921,28.9855 14.8281,29.2175 C14.6341,29.9055 14.6961,30.0425 15.3911,30.1535 C16.2461,30.2885 17.1081,30.3715 17.9661,30.4775 M42.9661,25.1225 C42.9691,25.1225 42.9721,25.1225 42.9761,25.1235 C42.9761,25.2295 42.9721,25.3345 42.9771,25.4395 C42.9811,25.5525 42.9891,25.6655 43.0021,25.7775 C43.0411,26.0795 43.0871,26.1205 43.3561,25.9915 C44.5891,25.3965 45.8261,24.8065 47.0451,24.1845 C48.1121,23.6415 48.6591,22.7075 48.8851,21.5645 C48.9191,21.3885 48.9361,21.2045 48.9271,21.0265 C48.9111,20.7095 48.7781,20.6035 48.4711,20.6585 C48.3291,20.6835 48.1901,20.7475 48.0581,20.8115 C46.9371,21.3465 45.8151,21.8785 44.7021,22.4275 C44.3581,22.5965 44.0331,22.8045 43.7081,23.0085 C43.2961,23.2665 43.0861,23.6515 43.0461,24.1325 C43.0191,24.4625 42.9931,24.7925 42.9661,25.1225 M24.0151,38.0215 C24.0161,38.0425 24.0171,38.0645 24.0171,38.0855 C24.6481,38.0385 25.2801,38.0015 25.9091,37.9435 C26.2361,37.9125 26.3531,37.8085 26.3991,37.4825 C26.4501,37.1185 26.4881,36.7465 26.4671,36.3805 C26.4231,35.5925 26.3521,34.8055 26.2641,34.0215 C26.2321,33.7325 26.1101,33.6925 25.8341,33.7705 C25.5411,33.8555 25.2481,33.9585 24.9471,34.0015 C24.2981,34.0945 23.6461,34.1555 22.9961,34.2275 C22.6281,34.2685 22.2591,34.2915 21.8971,34.3555 C21.6051,34.4065 21.4921,34.5695 21.4831,34.8635 C21.4801,34.9605 21.4831,35.0605 21.5001,35.1565 C21.6421,35.9115 21.7801,36.6665 21.9351,37.4175 C22.0211,37.8315 22.1941,37.9915 22.6161,38.0155 C23.0811,38.0415 23.5481,38.0215 24.0151,38.0215 M27.4841,30.4795 C28.5981,30.4585 29.6121,30.3085 30.6101,30.0785 C31.3491,29.9085 32.0821,29.6965 32.8011,29.4565 C33.2021,29.3245 33.2461,29.1605 33.1461,28.7565 C33.1271,28.6835 33.1121,28.6105 33.0921,28.5375 C32.9551,28.0215 32.8341,27.5005 32.6701,26.9935 C32.5731,26.6915 32.5041,26.6785 32.1891,26.7405 C31.0211,26.9675 29.8521,27.1885 28.6871,27.4325 C28.1591,27.5435 27.6361,27.6915 27.1171,27.8455 C26.8461,27.9255 26.6081,28.1045 26.5701,28.3955 C26.5001,28.9385 26.4671,29.4875 26.4421,30.0345 C26.4311,30.2715 26.5951,30.4055 26.8261,30.4305 C27.0721,30.4575 27.3201,30.4675 27.4841,30.4795 M41.8271,24.4575 C41.7821,23.9315 41.6421,23.8065 41.1711,23.9465 C39.1601,24.5455 37.1491,25.1525 35.1411,25.7635 C34.8691,25.8455 34.6041,25.9595 34.3461,26.0795 C34.1371,26.1775 34.0101,26.3665 34.0631,26.5955 C34.2221,27.2915 34.4021,27.9825 34.5801,28.6745 C34.6301,28.8735 34.7481,28.9265 34.9521,28.8445 C35.6921,28.5465 36.4311,28.2455 37.1821,27.9785 C37.8471,27.7425 38.5301,27.5545 39.2011,27.3345 C39.4401,27.2565 39.7001,27.1925 39.8971,27.0495 C40.6201,26.5255 41.1871,25.8535 41.6071,25.0655 C41.7071,24.8765 41.7541,24.6615 41.8271,24.4575 M41.1911,28.8695 C41.1471,28.8755 41.0911,28.8745 41.0421,28.8925 C40.8231,28.9685 40.6001,29.0385 40.3861,29.1325 C38.9481,29.7645 37.5301,30.4465 36.0001,30.8515 C35.3751,31.0175 35.1561,31.4525 35.2841,32.1105 C35.4621,33.0265 35.8201,33.8785 36.2421,34.7045 C36.5901,35.3865 36.7851,35.4475 37.4341,35.0365 C38.0481,34.6475 38.6471,34.2325 39.2471,33.8215 C39.9551,33.3365 40.6621,32.8495 41.3591,32.3495 C41.5901,32.1845 41.8071,31.9925 42.0051,31.7875 C42.2091,31.5785 42.2091,31.4055 42.0231,31.1885 C41.7581,30.8815 41.6061,30.5245 41.5461,30.1325 C41.4981,29.8145 41.4911,29.4895 41.4631,29.1675 C41.4491,29.0045 41.4001,28.8695 41.1911,28.8695 M28.6301,37.6625 C28.6661,37.6585 28.7641,37.6535 28.8621,37.6415 C30.7081,37.4235 32.5011,36.9655 34.2661,36.3905 C34.4441,36.3315 34.6181,36.2545 34.7821,36.1645 C35.0601,36.0115 35.1491,35.8435 35.0401,35.5485 C34.8751,35.0985 34.6551,34.6675 34.4771,34.2215 C34.3051,33.7915 34.1241,33.3605 34.0071,32.9135 C33.9261,32.5985 33.9521,32.2565 33.9211,31.9265 C33.8961,31.6505 33.7891,31.5695 33.5161,31.6225 C33.3761,31.6495 33.2391,31.6935 33.1041,31.7385 C32.0761,32.0795 31.0511,32.4335 30.0181,32.7625 C29.4591,32.9405 28.8861,33.0715 28.3231,33.2365 C27.9451,33.3475 27.7061,33.6035 27.7131,34.0075 C27.7341,35.0225 27.7541,36.0375 27.8201,37.0505 C27.8511,37.5295 28.0761,37.6705 28.6301,37.6625 M22.3161,39.2785 C20.2871,39.2555 18.2601,39.2185 16.2411,39.0165 C14.5401,38.8465 12.8431,38.6275 11.2021,38.1155 C10.0331,37.7505 8.9961,37.1785 8.2831,36.1405 C7.4751,34.9645 6.9791,33.6625 6.8321,32.2445 C6.5761,29.7785 6.5541,27.3095 6.8401,24.8455 C6.9261,24.1075 7.0851,23.3755 7.2431,22.6485 C7.3231,22.2755 7.5071,21.9535 7.7871,21.6585 C7.9981,21.4335 8.0831,21.0795 8.1891,20.7705 C8.2871,20.4885 8.3251,20.1865 8.4151,19.9015 C8.4711,19.7215 8.6041,19.5835 8.8131,19.5865 C9.0151,19.5905 9.1361,19.7395 9.1781,19.9085 C9.2971,20.3885 9.3911,20.8745 9.4901,21.3605 C9.5371,21.5885 9.5681,21.8205 9.6111,22.0495 C9.8141,23.1375 10.4201,23.9405 11.3371,24.5365 C13.1101,25.6885 15.0531,26.3895 17.1301,26.7215 C19.1291,27.0405 21.1391,26.9815 23.1511,26.8275 C25.2731,26.6635 27.3751,26.3775 29.4471,25.8845 C32.3441,25.1965 35.1771,24.2875 38.0191,23.4105 C40.2471,22.7225 42.4261,21.9065 44.5361,20.9165 C45.5881,20.4235 46.5921,19.8265 47.6101,19.2615 C47.8241,19.1425 48.0221,18.9765 48.1901,18.7975 C48.3121,18.6665 48.3751,18.4795 48.4611,18.3155 C48.4721,18.2965 48.4671,18.2705 48.4751,18.2495 C48.5641,18.0025 48.6701,17.7465 48.9611,17.7095 C49.2451,17.6745 49.3671,17.9225 49.4601,18.1295 C49.5891,18.4155 49.7051,18.7155 49.7741,19.0205 C49.9521,19.7895 50.3921,20.3045 51.1341,20.5795 C51.6321,20.7645 52.1171,20.9845 52.6071,21.1905 C52.6691,21.2165 52.7501,21.2355 52.7851,21.2835 C52.8761,21.4115 53.0091,21.5535 53.0081,21.6895 C53.0071,21.7865 52.8291,21.9405 52.7081,21.9665 C52.3491,22.0425 51.9811,22.0765 51.6151,22.1115 C51.3461,22.1375 51.0731,22.1275 50.8041,22.1555 C50.4631,22.1905 50.2121,22.3735 50.0641,22.6815 C49.8601,23.1065 49.6991,23.5305 49.8581,24.0255 C49.9011,24.1625 49.8201,24.4015 49.7121,24.5135 C48.9651,25.2905 48.4151,26.2105 47.7881,27.0775 C46.9661,28.2105 46.1361,29.3395 45.2851,30.4525 C44.6921,31.2255 43.9861,31.8965 43.2381,32.5215 C41.9451,33.6035 40.6261,34.6495 39.2191,35.5835 C37.2551,36.8875 35.0781,37.6475 32.8131,38.2045 C30.7451,38.7125 28.6431,39.0025 26.5161,39.1095 C25.1171,39.1785 23.7161,39.2225 22.3161,39.2785" id="Fill-6" fill="#000000"></path>
                <path d="M14.065,13.5721 C14.066,13.5931 14.068,13.6141 14.069,13.6351 L15.901,13.6351 C15.901,13.6141 15.9,13.5931 15.9,13.5711 C15.289,13.4451 14.676,13.4721 14.065,13.5721 M12.644,24.1751 C12.727,24.0451 12.76,23.9621 12.819,23.9051 C13.33,23.4051 13.907,23.0501 14.63,22.9131 C14.94,22.8541 15.249,22.6691 15.502,22.4691 C15.927,22.1351 16.304,21.7401 16.706,21.3771 C17.512,20.6481 18.392,20.0161 19.337,19.4841 C19.995,19.1141 20.306,18.5661 20.348,17.8361 C20.364,17.5651 20.38,17.2951 20.396,17.0241 C20.42,16.5961 20.223,16.3161 19.841,16.1301 C19.199,15.8151 18.52,15.6141 17.817,15.5151 C16.595,15.3441 15.367,15.2171 14.142,15.0561 C13.471,14.9681 12.803,14.8541 12.136,14.7391 C12,14.7151 11.861,14.6521 11.745,14.5741 C11.258,14.2461 11.21,13.8881 11.586,13.4451 C12.253,12.6561 13.119,12.2811 14.14,12.2311 C15.431,12.1671 16.717,12.2061 17.987,12.4591 C18.954,12.6511 19.782,13.1441 20.544,13.7521 C21.189,14.2671 21.902,14.5761 22.742,14.5651 C22.927,14.5621 23.117,14.6031 23.298,14.6491 C23.492,14.6971 23.731,14.7301 23.783,14.9611 C23.835,15.1941 23.629,15.3321 23.469,15.4431 C23.185,15.6381 22.891,15.8311 22.577,15.9681 C21.964,16.2361 21.67,16.6751 21.691,17.3441 C21.703,17.7131 21.674,18.0831 21.661,18.4511 C21.636,19.0861 21.393,19.6201 20.912,20.0381 C20.582,20.3241 20.243,20.5781 19.803,20.7061 C19.214,20.8781 18.855,21.8221 19.146,22.3621 C19.478,22.9771 19.918,23.5171 20.445,23.9731 C20.726,24.2171 21.04,24.4331 21.367,24.6121 C21.766,24.8311 22.156,24.7761 22.517,24.4701 C22.861,24.1791 23.101,24.1981 23.364,24.4821 C23.628,24.7671 23.629,25.0861 23.354,25.3901 C23,25.7821 22.52,25.9061 22.024,25.9951 C21.213,26.1381 20.525,25.9301 19.949,25.3291 C19.48,24.8401 18.996,24.3651 18.503,23.8981 C18.287,23.6931 18.042,23.5131 17.794,23.3431 C17.611,23.2181 17.42,23.2241 17.237,23.3881 C17.029,23.5741 16.887,23.5551 16.693,23.3531 C16.677,23.3381 16.663,23.3201 16.648,23.3021 C16.253,22.8191 16.143,22.7601 15.552,22.9821 C14.87,23.2391 14.209,23.5511 13.54,23.8431 C13.347,23.9261 13.16,24.0251 12.965,24.1061 C12.887,24.1381 12.797,24.1431 12.644,24.1751" id="Fill-8" fill="#000000"></path>
                <path d="M41.7496,14.0409 C41.4896,13.4469 40.8706,13.0809 40.2776,13.1519 C40.1856,13.1639 40.1006,13.2339 40.0116,13.2769 C40.0666,13.3519 40.1076,13.4479 40.1806,13.4989 C40.6416,13.8199 41.1856,13.9009 41.7496,14.0409 M30.5086,15.1479 C30.6296,15.1129 30.8446,15.0699 31.0436,14.9879 C31.4616,14.8159 31.8776,14.6389 32.2796,14.4369 C32.9836,14.0819 33.6956,13.7749 34.5016,13.7479 C34.7746,13.7379 34.8416,13.5959 34.7776,13.3309 C34.6976,12.9949 34.6246,12.6579 34.5686,12.3179 C34.5396,12.1419 34.4626,12.0599 34.2886,12.0719 C34.2056,12.0779 34.1226,12.0859 34.0426,12.1029 C32.8716,12.3479 31.7886,12.8099 30.8026,13.4819 C30.4766,13.7049 30.1856,13.9839 29.8956,14.2549 C29.7526,14.3889 29.6796,14.5719 29.7906,14.7679 C29.9266,15.0069 30.1296,15.1449 30.5086,15.1479 M35.5316,10.7079 C36.9936,10.6869 38.4326,10.8579 39.8406,11.2589 C41.0176,11.5949 42.0006,12.2399 42.8016,13.1609 C42.9726,13.3569 43.1186,13.5829 43.2356,13.8159 C43.4436,14.2279 43.3766,14.4859 43.0366,14.8019 C42.5616,15.2409 41.9856,15.3009 41.3866,15.2129 C40.7166,15.1149 40.0526,14.9759 39.3826,14.8769 C36.9196,14.5109 34.5656,14.8709 32.3246,15.9589 C31.7286,16.2479 31.1286,16.5289 30.5356,16.8249 C30.3956,16.8949 30.2916,16.8889 30.1696,16.7979 C29.6336,16.3969 29.0856,16.0129 28.5556,15.6039 C28.1136,15.2649 28.0076,14.7749 28.1036,14.2629 C28.1466,14.0289 28.2906,13.7709 28.4686,13.6129 C28.9486,13.1819 29.4466,12.7619 29.9826,12.4039 C30.9876,11.7329 32.0436,11.1319 33.2416,10.8939 C33.9896,10.7459 34.7636,10.7239 35.5246,10.6449 C35.5266,10.6659 35.5286,10.6869 35.5316,10.7079" id="Fill-10" fill="#000000"></path>
                <path d="M49.5133,16.5946 C49.2763,16.6066 49.1103,16.6136 48.9453,16.6226 C48.5113,16.6496 48.1263,16.7756 47.7363,16.9946 C47.1163,17.3436 46.4483,17.6146 45.7843,17.8746 C44.2923,18.4606 42.7563,18.7986 41.1363,18.7626 C39.2833,18.7206 37.8333,17.9036 36.6253,16.5686 C36.5063,16.4356 36.4073,16.2786 36.3263,16.1186 C36.1483,15.7666 36.3293,15.4326 36.7263,15.3706 C37.0873,15.3146 37.3783,15.4686 37.6163,15.7186 C38.6323,16.7916 39.9233,17.3006 41.3473,17.5176 C42.0013,17.6156 42.6333,17.4246 43.2573,17.2516 C44.3343,16.9526 45.3783,16.5586 46.3723,16.0516 C47.0983,15.6806 47.8553,15.4536 48.6593,15.4126 C49.4093,15.3736 50.1643,15.3556 50.9143,15.3916 C52.0193,15.4466 52.9103,15.9786 53.6473,16.7746 C55.4643,18.7416 55.7643,21.1846 54.5623,23.5676 C54.4423,23.8056 54.2643,24.0186 54.0943,24.2276 C53.9523,24.4026 53.7633,24.4926 53.5323,24.4036 C53.3213,24.3216 53.1793,24.1206 53.2293,23.8566 C53.3113,23.4146 53.4333,22.9796 53.5573,22.5476 C53.6793,22.1206 53.8333,21.7036 53.9593,21.2796 C54.0843,20.8566 54.0673,20.4286 53.9323,20.0096 C53.6213,19.0386 53.1073,18.1916 52.3863,17.4676 C51.8763,16.9566 51.2183,16.8036 50.5433,16.6986 C50.1793,16.6426 49.8103,16.6226 49.5133,16.5946" id="Fill-12" fill="#000000"></path>
                <path d="M6.4313,40.1639 C6.4563,40.3449 6.4933,40.5239 6.5053,40.7059 C6.5453,41.2919 6.7813,41.7859 7.2753,42.0979 C8.2603,42.7199 9.2553,43.3279 10.2713,43.8989 C10.8233,44.2109 11.4593,44.2999 12.0873,44.3029 C13.4813,44.3089 14.8743,44.3099 16.2673,44.2599 C18.1183,44.1909 19.9693,44.0979 21.8173,43.9659 C24.0233,43.8089 26.1923,43.3879 28.3523,42.9349 C29.8933,42.6099 31.4313,42.2759 32.9693,41.9429 C34.9533,41.5139 36.8203,40.7439 38.6743,39.9449 C40.8073,39.0259 42.8653,37.9579 44.9183,36.8769 C45.4843,36.5789 46.0733,36.3269 46.6543,36.0589 C46.7603,36.0099 46.8773,35.9839 46.9913,35.9469 C47.0033,35.9649 47.0163,35.9809 47.0293,35.9979 C46.9533,36.0679 46.8903,36.1559 46.8033,36.2069 C46.0073,36.6789 45.2233,37.1739 44.4053,37.6059 C42.0143,38.8679 39.5853,40.0499 37.0543,41.0139 C34.4543,42.0039 31.7623,42.6369 29.0423,43.1809 C27.0633,43.5759 25.0813,43.9589 23.0713,44.1509 C21.5723,44.2939 20.0683,44.4059 18.5643,44.4669 C16.5923,44.5479 14.6183,44.5749 12.6453,44.6019 C12.0753,44.6099 11.5013,44.5549 10.9333,44.5009 C10.4023,44.4499 9.9003,44.2739 9.4433,44.0039 C8.6603,43.5399 7.8903,43.0509 7.1153,42.5729 C6.5243,42.2099 6.2533,41.6939 6.3363,40.9939 C6.3693,40.7219 6.3703,40.4439 6.3863,40.1689 C6.4013,40.1669 6.4163,40.1649 6.4313,40.1639" id="Fill-14" fill="#000000"></path>
                <path d="M11.9303,20.0653 C11.6733,20.0443 11.4103,20.0303 11.1503,19.9963 C10.8163,19.9533 10.5653,19.7683 10.4583,19.4533 C10.1313,18.4843 9.4093,18.1633 8.4593,18.1713 C7.7073,18.1783 6.9953,18.3133 6.3483,18.7233 C6.1853,18.8263 5.9933,18.8873 5.8103,18.9533 C5.5813,19.0353 5.3663,19.0243 5.1953,18.8183 C5.0203,18.6073 5.0123,18.3723 5.1253,18.1403 C5.3183,17.7453 5.6473,17.4823 6.0393,17.3023 C6.6393,17.0283 7.2833,16.9523 7.9323,16.9213 C8.2473,16.9063 8.5653,16.9183 8.8803,16.9253 C9.6653,16.9473 10.3663,17.2133 11.0013,17.6673 C11.3383,17.9073 11.6833,18.1373 12.0193,18.3783 C12.4503,18.6873 12.8803,18.6953 13.3563,18.4613 C13.7023,18.2903 14.0763,18.1543 14.4523,18.0693 C14.8633,17.9763 15.1383,18.3133 15.0343,18.7303 C14.9483,19.0803 14.7103,19.3173 14.4233,19.5123 C13.9793,19.8143 13.4653,19.9013 12.9503,19.9733 C12.6153,20.0203 12.2763,20.0353 11.9303,20.0653" id="Fill-16" fill="#000000"></path>
                <path d="M9.1715,39.5331 C9.2635,39.5701 9.3655,39.5921 9.4435,39.6481 C9.7235,39.8521 10.0045,40.0561 10.2655,40.2831 C11.7155,41.5441 13.4065,42.2641 15.3135,42.3591 C16.7845,42.4321 18.2655,42.3791 19.7395,42.3271 C21.8335,42.2541 23.9245,42.1081 26.0175,42.0351 C28.3505,41.9541 30.5685,41.4161 32.7415,40.5811 C35.5705,39.4941 38.3455,38.2871 41.0745,36.9731 C41.8605,36.5951 42.6765,36.2781 43.4795,35.9341 C43.5495,35.9041 43.6265,35.8891 43.7005,35.8671 C43.7105,35.8871 43.7195,35.9051 43.7285,35.9241 C43.5615,36.0301 43.3975,36.1441 43.2245,36.2421 C40.9105,37.5601 38.4975,38.6731 36.0425,39.6971 C34.1375,40.4921 32.2145,41.2371 30.2265,41.7991 C29.0005,42.1441 27.7405,42.2691 26.4775,42.3511 C23.5075,42.5451 20.5365,42.7391 17.5585,42.7381 C16.2015,42.7371 14.8415,42.7221 13.5125,42.4101 C11.9315,42.0381 10.5225,41.3451 9.4485,40.0811 C9.3215,39.9321 9.2225,39.7611 9.1105,39.6001 C9.1315,39.5781 9.1505,39.5551 9.1715,39.5331" id="Fill-18" fill="#000000"></path>
                <path d="M45.3522,10.6346 C45.2332,10.5596 45.1022,10.4976 44.9962,10.4076 C44.6682,10.1306 44.3322,9.8596 44.0322,9.5546 C43.3872,8.9026 42.6632,8.3586 41.9002,7.8526 C40.2892,6.7826 38.5402,6.0216 36.6602,5.6116 C34.3032,5.0976 31.9142,4.8336 29.4982,5.0676 C28.5792,5.1566 27.6652,5.3306 26.7502,5.4716 C24.6812,5.7906 22.5972,5.8996 20.5092,5.8256 C18.7422,5.7626 16.9782,5.6026 15.2122,5.4926 C14.6192,5.4566 14.0242,5.4306 13.4302,5.4246 C13.0542,5.4206 12.7072,5.5506 12.3882,5.7546 C12.2492,5.8436 12.1022,5.9266 11.9492,5.9826 C11.8622,6.0136 11.7532,5.9866 11.6552,5.9856 C11.6942,5.8936 11.7102,5.7816 11.7752,5.7136 C12.0822,5.3856 12.4552,5.1346 12.9092,5.1186 C13.6292,5.0936 14.3562,5.0756 15.0722,5.1416 C17.4662,5.3636 19.8612,5.5686 22.2672,5.5376 C24.1542,5.5146 26.0222,5.2906 27.8742,4.9226 C29.4752,4.6046 31.0982,4.5826 32.7142,4.7316 C34.1152,4.8616 35.5252,4.9986 36.8982,5.2866 C38.7662,5.6796 40.5162,6.4426 42.1112,7.4946 C43.1942,8.2106 44.2432,8.9926 45.0542,10.0356 C45.1882,10.2076 45.3062,10.3906 45.4322,10.5696 C45.4052,10.5916 45.3782,10.6126 45.3522,10.6346" id="Fill-20" fill="#000000"></path>
                <path d="M32.6764,22.4735 C32.6524,22.7865 32.6414,23.1035 32.5974,23.4145 C32.5524,23.7315 32.3994,24.0085 32.1384,24.1935 C31.8454,24.4005 31.5294,24.5765 31.2184,24.7575 C31.0574,24.8525 30.9214,24.7985 30.7994,24.6645 C30.4324,24.2615 30.4574,23.7775 30.8814,23.4175 C31.2094,23.1395 31.3984,22.7925 31.4214,22.3665 C31.4444,21.9715 31.3114,21.7425 30.9344,21.6235 C30.5414,21.5005 30.1314,21.4325 29.7294,21.3405 C29.5314,21.2945 29.3274,21.2665 29.1384,21.1995 C28.8934,21.1115 28.7484,20.8985 28.7584,20.6915 C28.7714,20.4455 28.9494,20.3305 29.1464,20.2725 C30.0834,19.9915 31.0104,20.0235 31.8794,20.4955 C32.3644,20.7605 32.6084,21.2195 32.6474,21.7725 C32.6634,22.0035 32.6504,22.2385 32.6504,22.4715 C32.6584,22.4725 32.6674,22.4725 32.6764,22.4735" id="Fill-22" fill="#000000"></path>
                <path d="M7.9664,14.4164 C7.3704,14.4164 6.7764,14.4094 6.1814,14.4184 C5.6664,14.4264 5.2554,14.6474 4.8824,15.0084 C4.5004,15.3774 4.0934,15.7454 3.6374,16.0084 C2.8934,16.4384 2.4764,17.0754 2.2104,17.8544 C1.9704,18.5594 1.9404,19.2704 2.1104,19.9924 C2.2334,20.5194 2.3534,21.0474 2.4904,21.5714 C2.6444,22.1574 2.9964,22.5914 3.5404,22.8624 C4.2224,23.2004 4.9064,23.5324 5.5884,23.8674 C5.6904,23.9164 5.7964,23.9614 5.8854,24.0284 C5.9374,24.0664 5.9604,24.1434 5.9964,24.2024 C5.9304,24.2194 5.8564,24.2644 5.7994,24.2494 C5.4954,24.1644 5.1904,24.0784 4.8954,23.9674 C4.2024,23.7084 3.5314,23.4054 2.9264,22.9704 C2.5064,22.6684 2.2154,22.2904 2.0974,21.7754 C1.8794,20.8284 1.6644,19.8844 1.6714,18.9014 C1.6744,18.3774 1.7674,17.8834 1.9794,17.4114 C2.1094,17.1234 2.2464,16.8374 2.3964,16.5604 C2.5534,16.2684 2.7494,16.0324 3.0704,15.8684 C3.4344,15.6824 3.7434,15.3914 4.0714,15.1384 C4.2504,15.0004 4.4174,14.8474 4.5894,14.7004 C5.0434,14.3144 5.5684,14.1194 6.1644,14.1104 C6.8264,14.1014 7.4904,14.1064 8.1524,14.0704 C8.6764,14.0414 9.1974,13.9484 9.7214,13.9044 C9.9344,13.8864 10.1544,13.9074 10.3654,13.9454 C10.4344,13.9584 10.5174,14.0764 10.5284,14.1554 C10.5344,14.2034 10.4234,14.3014 10.3514,14.3194 C10.1484,14.3684 9.9374,14.4104 9.7294,14.4154 C9.1414,14.4274 8.5534,14.4194 7.9664,14.4194 L7.9664,14.4164 Z" id="Fill-24" fill="#000000"></path>
                <path d="M49.649,14.1937 C49.682,14.1857 49.714,14.1707 49.748,14.1697 C51.133,14.1407 52.518,14.0897 53.9,14.2707 C54.461,14.3447 54.938,14.5607 55.352,14.9357 C56.119,15.6267 56.757,16.4047 57.031,17.4277 C57.068,17.5647 57.093,17.7077 57.102,17.8497 C57.208,19.5237 57.187,21.1917 56.93,22.8537 C56.755,23.9877 56.177,24.8287 55.138,25.3177 C54.588,25.5757 54.009,25.7757 53.442,25.9937 C53.348,26.0297 53.241,26.0277 53.139,26.0437 C53.128,26.0247 53.116,26.0047 53.105,25.9857 C53.185,25.9197 53.259,25.8417 53.348,25.7907 C53.794,25.5387 54.229,25.2637 54.694,25.0527 C55.897,24.5057 56.526,23.5887 56.673,22.2777 C56.827,20.9107 56.918,19.5467 56.789,18.1757 C56.759,17.8647 56.685,17.5437 56.556,17.2617 C56.155,16.3817 55.571,15.6247 54.859,14.9727 C54.753,14.8767 54.601,14.7977 54.462,14.7787 C53.395,14.6347 52.328,14.5007 51.258,14.3767 C50.724,14.3157 50.187,14.2827 49.652,14.2367 C49.651,14.2227 49.65,14.2077 49.649,14.1937" id="Fill-26" fill="#000000"></path>
                <path d="M43.5963,11.1024 C43.5123,11.0604 43.4173,11.0304 43.3463,10.9724 C43.0963,10.7684 42.8403,10.5674 42.6103,10.3404 C41.3853,9.1354 39.9903,8.2354 38.3533,7.6524 C36.7053,7.0654 35.0163,6.9034 33.3003,6.8644 C32.3373,6.8424 31.3733,6.8924 30.4093,6.9034 C30.1313,6.9064 29.8523,6.8904 29.5753,6.8754 C29.4823,6.8704 29.3913,6.8424 29.3003,6.8254 C29.2963,6.8024 29.2933,6.7794 29.2903,6.7564 C29.4133,6.7204 29.5343,6.6654 29.6593,6.6534 C30.1993,6.6024 30.7393,6.5344 31.2803,6.5264 C33.1483,6.5014 35.0203,6.4984 36.8643,6.8394 C37.6803,6.9914 38.4963,7.2224 39.2633,7.5374 C40.8143,8.1734 42.1273,9.1754 43.2663,10.4044 C43.3773,10.5254 43.4793,10.6594 43.5693,10.7964 C43.6173,10.8714 43.6323,10.9674 43.6623,11.0534 C43.6403,11.0694 43.6183,11.0864 43.5963,11.1024" id="Fill-28" fill="#000000"></path>
                <path d="M27.9117,22.3309 C28.3077,22.3739 28.7517,22.4039 29.1887,22.4749 C29.5477,22.5319 29.6987,22.7029 29.6847,23.0619 C29.6737,23.3399 29.6257,23.6369 29.5067,23.8829 C29.3467,24.2169 29.0587,24.2019 28.7937,23.9379 C28.6747,23.8209 28.4927,23.7239 28.3287,23.7039 C27.8967,23.6519 27.4607,23.6419 27.0247,23.6259 C26.6347,23.6119 26.2427,23.6169 25.8517,23.6029 C25.7407,23.5999 25.6167,23.5869 25.5237,23.5339 C25.4107,23.4689 25.2617,23.3659 25.2437,23.2619 C25.2257,23.1529 25.3187,22.9829 25.4157,22.9069 C25.8067,22.5989 26.2837,22.4999 26.7627,22.4319 C27.1267,22.3799 27.4957,22.3659 27.9117,22.3309" id="Fill-30" fill="#000000"></path>
                <path d="M11.0631,11.0419 C10.9911,10.5519 11.0351,10.1389 11.2291,9.7719 C11.3981,9.4509 11.6241,9.1519 11.8671,8.8799 C12.0481,8.6749 12.2821,8.5039 12.5181,8.3619 C13.0111,8.0639 13.5131,7.7779 14.0281,7.5199 C14.6331,7.2159 15.2921,7.1159 15.9621,7.1709 C17.3191,7.2829 18.6761,7.4049 20.0291,7.5599 C20.4931,7.6129 20.9481,7.7659 21.4001,7.8959 C21.5021,7.9249 21.5781,8.0489 21.6661,8.1289 C21.5511,8.1619 21.4311,8.2359 21.3251,8.2199 C20.8201,8.1409 20.3221,8.0129 19.8151,7.9479 C18.8901,7.8289 17.9601,7.7399 17.0331,7.6409 C16.6761,7.6029 16.3191,7.5669 15.9611,7.5349 C15.4321,7.4879 14.9141,7.5839 14.4511,7.8139 C13.7661,8.1539 13.1001,8.5399 12.4581,8.9549 C11.9611,9.2769 11.6341,9.7629 11.4371,10.3279 C11.3801,10.4899 11.3091,10.6489 11.2351,10.8049 C11.2031,10.8729 11.1471,10.9289 11.0631,11.0419" id="Fill-32" fill="#000000"></path>
                <path d="M6.2916,15.9091 C6.2216,15.9801 6.1616,16.0691 6.0796,16.1211 C5.8246,16.2811 5.5766,16.4641 5.3006,16.5711 C4.5656,16.8551 4.1966,17.3891 4.1066,18.1521 C4.0376,18.7411 3.9436,19.3291 3.8846,19.9201 C3.8386,20.3891 4.0226,20.7831 4.3636,21.1081 C4.6196,21.3521 4.8666,21.6051 5.1146,21.8561 C5.1726,21.9151 5.2296,21.9801 5.2666,22.0531 C5.2966,22.1131 5.2976,22.1881 5.3126,22.2581 C5.2416,22.2591 5.1646,22.2801 5.1026,22.2591 C4.2176,21.9631 3.5226,20.9511 3.5566,20.0191 C3.5916,19.0541 3.7096,18.1011 3.9676,17.1681 C4.0706,16.7941 4.2636,16.5091 4.6256,16.3641 C5.0706,16.1851 5.5206,16.0161 5.9716,15.8561 C6.0596,15.8251 6.1676,15.8511 6.2676,15.8511 C6.2746,15.8711 6.2826,15.8901 6.2916,15.9091" id="Fill-34" fill="#000000"></path>
                <path d="M36.6764,21.8202 C35.7334,21.7222 34.7894,21.6292 33.8474,21.5252 C33.7144,21.5102 33.5794,21.4682 33.4574,21.4152 C33.0054,21.2132 32.8354,20.6072 33.1264,20.2082 C33.1794,20.1352 33.3214,20.0682 33.3994,20.0882 C33.5404,20.1232 33.5084,20.2552 33.4634,20.3692 C33.3124,20.7522 33.4644,21.0852 33.8804,21.1422 C34.5794,21.2402 35.2864,21.2892 35.9904,21.3452 C36.6274,21.3982 37.2664,21.4302 37.9044,21.4812 C38.0214,21.4912 38.1474,21.5272 38.2434,21.5892 C38.2974,21.6232 38.3184,21.7392 38.3134,21.8162 C38.3114,21.8472 38.2014,21.9002 38.1444,21.8962 C37.6554,21.8632 37.1684,21.8192 36.6804,21.7782 C36.6794,21.7922 36.6784,21.8062 36.6764,21.8202" id="Fill-36" fill="#000000"></path>
                <path d="M30.6871,7.1591 C30.5551,7.3861 30.4741,7.6031 30.3301,7.7611 C29.6441,8.5081 29.2801,9.3971 29.1181,10.3831 C29.0991,10.4961 29.0651,10.6061 29.0241,10.7761 C28.6841,9.3571 29.6971,7.1051 30.6871,7.1591" id="Fill-38" fill="#000000"></path>
                <path d="M44.2565,13.5604 C44.3115,13.5574 44.3665,13.5434 44.4195,13.5524 C45.1325,13.6624 45.8445,13.7704 46.5545,13.8924 C46.6525,13.9094 46.7405,13.9944 46.8325,14.0474 C46.7595,14.1434 46.7045,14.2894 46.6095,14.3274 C46.2765,14.4554 45.9335,14.5764 45.5835,14.6414 C45.3175,14.6904 45.0345,14.6504 44.7595,14.6504 C44.7555,14.6284 44.7525,14.6074 44.7485,14.5854 C45.0865,14.5064 45.4245,14.4274 45.7635,14.3484 L45.7775,14.2674 C45.3025,13.9754 44.7425,13.8534 44.2565,13.5604" id="Fill-40" fill="#000000"></path>
                <path d="M20.8483,12.5189 C20.8203,12.1309 20.8073,11.7409 20.7603,11.3559 C20.6853,10.7379 20.5293,10.1439 20.1723,9.6179 C20.1073,9.5209 20.0733,9.3989 20.0443,9.2829 C20.0313,9.2259 20.0463,9.1209 20.0823,9.1029 C20.1363,9.0759 20.2433,9.0779 20.2853,9.1159 C20.4113,9.2279 20.5703,9.3459 20.6233,9.4949 C20.7663,9.8949 20.9253,10.3079 20.9573,10.7249 C21.0033,11.3189 20.9413,11.9209 20.9243,12.5199 C20.8993,12.5189 20.8733,12.5189 20.8483,12.5189" id="Fill-42" fill="#000000"></path>
                <path d="M24.5143,40.7206 L18.4943,40.7206 L18.4943,40.6506 L24.5153,40.6506 C24.5153,40.6736 24.5143,40.6976 24.5143,40.7206" id="Fill-44" fill="#000000"></path>
                <path d="M43.9928,15.1307 C44.2928,14.9867 44.6668,15.0187 44.8328,15.1687 C44.9528,15.2767 44.9618,15.3737 44.8548,15.6717 C44.5708,15.4927 44.2968,15.3207 43.9928,15.1307" id="Fill-46" fill="#000000"></path>
                <path d="M28.6305,37.662 C28.0755,37.671 27.8515,37.529 27.8195,37.051 C27.7545,36.038 27.7345,35.022 27.7135,34.008 C27.7055,33.603 27.9445,33.348 28.3225,33.236 C28.8865,33.071 29.4595,32.94 30.0185,32.763 C31.0515,32.433 32.0755,32.08 33.1045,31.738 C33.2385,31.693 33.3765,31.649 33.5165,31.623 C33.7885,31.569 33.8965,31.65 33.9215,31.927 C33.9515,32.257 33.9265,32.599 34.0075,32.914 C34.1235,33.36 34.3055,33.792 34.4775,34.222 C34.6545,34.668 34.8745,35.099 35.0395,35.549 C35.1495,35.844 35.0605,36.012 34.7815,36.165 C34.6175,36.255 34.4435,36.332 34.2665,36.391 C32.5015,36.966 30.7085,37.424 28.8615,37.641 C28.7645,37.653 28.6665,37.658 28.6305,37.662" id="Fill-48" fill="#FFFFFF"></path>
                <path d="M41.191,28.869 C41.4,28.869 41.449,29.005 41.463,29.168 C41.491,29.489 41.498,29.814 41.546,30.133 C41.606,30.524 41.758,30.882 42.023,31.188 C42.21,31.405 42.21,31.578 42.005,31.788 C41.807,31.992 41.59,32.184 41.359,32.349 C40.662,32.849 39.955,33.337 39.247,33.821 C38.647,34.232 38.048,34.647 37.434,35.036 C36.785,35.447 36.59,35.387 36.242,34.705 C35.82,33.879 35.462,33.026 35.284,32.11 C35.156,31.452 35.376,31.017 36,30.851 C37.53,30.446 38.948,29.765 40.386,29.133 C40.6,29.039 40.823,28.969 41.043,28.892 C41.091,28.875 41.147,28.876 41.191,28.869" id="Fill-50" fill="#FFFFFF"></path>
                <path d="M41.8268,24.4579 C41.7548,24.6609 41.7068,24.8769 41.6068,25.0649 C41.1868,25.8539 40.6198,26.5249 39.8968,27.0499 C39.6998,27.1919 39.4398,27.2569 39.2008,27.3349 C38.5298,27.5549 37.8478,27.7419 37.1818,27.9789 C36.4308,28.2449 35.6918,28.5469 34.9518,28.8449 C34.7478,28.9269 34.6308,28.8739 34.5798,28.6749 C34.4018,27.9819 34.2228,27.2919 34.0628,26.5959 C34.0108,26.3659 34.1378,26.1779 34.3468,26.0799 C34.6038,25.9599 34.8688,25.8459 35.1408,25.7639 C37.1488,25.1519 39.1598,24.5459 41.1718,23.9459 C41.6418,23.8069 41.7818,23.9319 41.8268,24.4579" id="Fill-52" fill="#FFFFFF"></path>
                <path d="M27.484,30.4794 C27.32,30.4674 27.072,30.4584 26.826,30.4304 C26.595,30.4054 26.431,30.2714 26.442,30.0344 C26.467,29.4874 26.5,28.9384 26.57,28.3954 C26.608,28.1044 26.846,27.9254 27.117,27.8454 C27.636,27.6914 28.159,27.5434 28.687,27.4324 C29.852,27.1884 31.021,26.9674 32.189,26.7404 C32.505,26.6784 32.573,26.6914 32.671,26.9934 C32.835,27.5004 32.955,28.0214 33.092,28.5374 C33.112,28.6104 33.128,28.6834 33.146,28.7564 C33.246,29.1604 33.202,29.3244 32.801,29.4574 C32.082,29.6964 31.349,29.9084 30.61,30.0784 C29.612,30.3084 28.598,30.4584 27.484,30.4794" id="Fill-54" fill="#FFFFFF"></path>
                <path d="M24.0152,38.0214 C23.5482,38.0214 23.0802,38.0424 22.6162,38.0154 C22.1942,37.9914 22.0212,37.8324 21.9352,37.4174 C21.7802,36.6674 21.6422,35.9114 21.5002,35.1564 C21.4832,35.0604 21.4802,34.9604 21.4832,34.8634 C21.4922,34.5694 21.6052,34.4064 21.8972,34.3554 C22.2592,34.2924 22.6282,34.2684 22.9952,34.2274 C23.6462,34.1554 24.2982,34.0944 24.9472,34.0014 C25.2472,33.9594 25.5402,33.8554 25.8342,33.7704 C26.1102,33.6924 26.2322,33.7324 26.2642,34.0214 C26.3522,34.8054 26.4232,35.5924 26.4672,36.3804 C26.4882,36.7464 26.4502,37.1184 26.3992,37.4824 C26.3532,37.8084 26.2362,37.9124 25.9092,37.9434 C25.2802,38.0014 24.6482,38.0394 24.0172,38.0854 C24.0172,38.0644 24.0162,38.0424 24.0152,38.0214" id="Fill-56" fill="#FFFFFF"></path>
                <path d="M42.9664,25.1229 C42.9924,24.7929 43.0194,24.4629 43.0464,24.1329 C43.0864,23.6509 43.2964,23.2669 43.7074,23.0089 C44.0324,22.8049 44.3584,22.5969 44.7014,22.4279 C45.8154,21.8789 46.9374,21.3469 48.0584,20.8109 C48.1904,20.7479 48.3284,20.6839 48.4714,20.6579 C48.7784,20.6029 48.9104,20.7099 48.9274,21.0259 C48.9364,21.2049 48.9194,21.3889 48.8854,21.5639 C48.6584,22.7079 48.1124,23.6419 47.0454,24.1849 C45.8254,24.8069 44.5894,25.3959 43.3564,25.9909 C43.0874,26.1199 43.0404,26.0789 43.0024,25.7769 C42.9884,25.6659 42.9814,25.5529 42.9774,25.4389 C42.9724,25.3349 42.9764,25.2289 42.9764,25.1239 C42.9724,25.1229 42.9694,25.1229 42.9664,25.1229" id="Fill-58" fill="#FFFFFF"></path>
                <path d="M17.9664,30.4774 C17.1084,30.3724 16.2454,30.2894 15.3914,30.1534 C14.6954,30.0424 14.6344,29.9054 14.8274,29.2174 C14.8924,28.9854 14.9594,28.7534 15.0354,28.5254 C15.1954,28.0514 15.3714,27.9054 15.8674,27.9394 C16.4604,27.9804 17.0514,28.0614 17.6404,28.1414 C18.0794,28.2014 18.5204,28.2704 18.9534,28.3654 C19.5034,28.4864 19.6184,28.6634 19.5674,29.2274 C19.5464,29.4524 19.5244,29.6774 19.4884,29.9004 C19.4324,30.2604 19.2854,30.4034 18.9204,30.4224 C18.6054,30.4394 18.2884,30.4264 17.9724,30.4264 C17.9704,30.4434 17.9684,30.4604 17.9664,30.4774" id="Fill-60" fill="#FFFFFF"></path>
                <path d="M22.8014,30.4393 C22.3354,30.4393 21.8684,30.4433 21.4034,30.4363 C21.2834,30.4343 21.1634,30.4043 21.0484,30.3733 C20.8754,30.3263 20.7604,30.2053 20.7924,30.0263 C20.8844,29.5163 20.9924,29.0093 21.1074,28.5043 C21.1174,28.4543 21.2114,28.3943 21.2724,28.3873 C22.3404,28.2643 23.4074,28.1313 24.4794,28.0403 C24.9554,28.0003 25.1134,28.1803 25.1324,28.6653 C25.1464,28.9963 25.1454,29.3283 25.1354,29.6583 C25.1184,30.2053 24.9554,30.3943 24.4034,30.4253 C23.8704,30.4553 23.3354,30.4323 22.8014,30.4323 L22.8014,30.4393 Z" id="Fill-62" fill="#FFFFFF"></path>
                <path d="M18.4889,34.6219 C18.7769,34.6489 19.1799,34.6839 19.5839,34.7259 C19.7719,34.7449 19.8939,34.8529 19.9629,35.0339 C20.2789,35.8619 20.4499,36.7239 20.5369,37.6009 C20.5669,37.9149 20.4679,38.0419 20.1599,38.0329 C19.6289,38.0179 19.0969,37.9719 18.5719,37.8949 C18.4149,37.8719 18.2399,37.7369 18.1399,37.6029 C17.6139,36.8979 17.2519,36.1039 16.9599,35.2789 C16.8419,34.9469 16.9369,34.7989 17.2919,34.7439 C17.6479,34.6889 18.0099,34.6699 18.4889,34.6219" id="Fill-64" fill="#FFFFFF"></path>
                <path d="M46.7174,26.1591 C46.6574,26.2691 46.6264,26.3391 46.5864,26.4001 C45.7564,27.6681 44.8844,28.9041 43.8774,30.0391 C43.7924,30.1351 43.7014,30.2261 43.6094,30.3131 C43.3764,30.5331 43.1034,30.5141 42.9614,30.2271 C42.8584,30.0191 42.7914,29.7681 42.7964,29.5381 C42.8044,29.1801 42.8644,28.8201 42.9414,28.4691 C43.0444,27.9931 43.3754,27.6701 43.7914,27.4671 C44.6834,27.0311 45.5914,26.6281 46.4934,26.2141 C46.5454,26.1901 46.6074,26.1851 46.7174,26.1591" id="Fill-66" fill="#FFFFFF"></path>
                <path d="M11.3307,27.8759 C11.4017,27.5209 11.4517,27.1719 11.5447,26.8349 C11.6167,26.5729 11.7637,26.4999 12.0127,26.6099 C12.4857,26.8189 12.9557,27.0419 13.4037,27.2999 C13.7207,27.4809 13.7537,27.7019 13.6767,28.0579 C13.5667,28.5559 13.4857,29.0599 13.3937,29.5619 C13.3887,29.5909 13.3887,29.6209 13.3847,29.6509 C13.3317,30.1109 13.3077,30.1289 12.8667,30.0369 C12.7207,30.0069 12.5727,29.9719 12.4247,29.9509 C11.9677,29.8869 11.6837,29.6149 11.5767,29.1859 C11.4707,28.7579 11.4117,28.3169 11.3307,27.8759" id="Fill-68" fill="#FFFFFF"></path>
                <path d="M15.9664,37.7382 C15.4974,37.6332 15.0284,37.5372 14.5634,37.4172 C14.3824,37.3702 14.2644,37.2702 14.3174,37.0202 C14.3524,36.8522 14.2834,36.6462 14.2164,36.4752 C14.0544,36.0632 13.8684,35.6612 13.6874,35.2572 C13.5894,35.0382 13.4754,34.8252 13.3814,34.6042 C13.3494,34.5262 13.3574,34.4312 13.3464,34.3442 C13.4404,34.3392 13.5374,34.3132 13.6264,34.3312 C13.8994,34.3842 14.1674,34.4582 14.4384,34.5192 C14.5484,34.5452 14.6604,34.5812 14.7714,34.5762 C15.0284,34.5632 15.1804,34.7042 15.2874,34.9062 C15.4084,35.1312 15.5314,35.3562 15.6204,35.5942 C15.8344,36.1722 16.0304,36.7562 16.2314,37.3392 C16.3144,37.5792 16.2174,37.7102 15.9664,37.7382" id="Fill-70" fill="#FFFFFF"></path>
                <path d="M10.5895,35.9686 C10.9975,35.9726 11.1635,35.8156 11.1075,35.4026 C11.0585,35.0476 10.9485,34.6996 10.8695,34.3496 C10.8365,34.2026 10.8005,34.0566 10.7855,33.9076 C10.7725,33.7706 10.8565,33.7076 10.9855,33.7546 C11.0815,33.7896 11.1895,33.8366 11.2515,33.9106 C11.9805,34.7906 12.4295,35.8246 12.8615,36.8666 C12.9235,37.0146 12.8645,37.0826 12.7115,37.0766 C12.6585,37.0756 12.6045,37.0756 12.5545,37.0626 C11.9915,36.9016 11.4255,36.7496 10.8685,36.5686 C10.6735,36.5046 10.4965,36.3746 10.3225,36.2576 C10.2665,36.2186 10.2475,36.1236 10.2115,36.0556 C10.2775,36.0266 10.3405,35.9896 10.4095,35.9716 C10.4665,35.9576 10.5285,35.9696 10.5895,35.9686" id="Fill-72" fill="#FFFFFF"></path>
                <path d="M10.0836,25.3192 C10.1116,25.4542 10.1586,25.5882 10.1676,25.7232 C10.2296,26.7142 10.1146,27.6922 9.9356,28.6632 C9.8626,29.0532 9.7276,29.0952 9.3976,28.8662 C9.2876,28.7892 9.1806,28.7062 9.0776,28.6182 C8.9156,28.4792 8.8426,28.2972 8.8866,28.0912 C9.0746,27.2062 9.3396,26.3452 9.7856,25.5502 C9.8386,25.4582 9.9236,25.3822 9.9936,25.2992 C10.0236,25.3062 10.0536,25.3132 10.0836,25.3192" id="Fill-74" fill="#FFFFFF"></path>
                <path d="M8.3551,32.6923 C8.3991,32.7403 8.4491,32.7833 8.4851,32.8373 C8.9921,33.5883 9.3831,34.3973 9.6331,35.2703 C9.7181,35.5673 9.7001,35.6123 9.5111,35.8093 C9.0341,34.7903 8.5951,33.7853 8.2851,32.7283 C8.3081,32.7163 8.3321,32.7053 8.3551,32.6923" id="Fill-76" fill="#FFFFFF"></path>
                <path d="M8.2291,25.0585 C8.1521,24.7415 8.4471,24.1185 8.7421,23.9475 C8.8611,24.1985 8.5581,24.8705 8.2291,25.0585" id="Fill-78" fill="#FFFFFF"></path>
                <path d="M14.065,13.5721 C14.676,13.4721 15.289,13.4451 15.9,13.5711 C15.9,13.5931 15.901,13.6141 15.901,13.6351 L14.069,13.6351 C14.068,13.6141 14.066,13.5931 14.065,13.5721" id="Fill-80" fill="#FFFFFF"></path>
                <path d="M30.5084,15.1483 C30.1294,15.1453 29.9264,15.0073 29.7904,14.7683 C29.6794,14.5713 29.7524,14.3883 29.8954,14.2553 C30.1854,13.9843 30.4764,13.7043 30.8024,13.4813 C31.7884,12.8103 32.8714,12.3483 34.0424,12.1033 C34.1224,12.0863 34.2054,12.0773 34.2884,12.0723 C34.4624,12.0603 34.5394,12.1423 34.5694,12.3173 C34.6244,12.6573 34.6974,12.9953 34.7784,13.3303 C34.8414,13.5953 34.7754,13.7373 34.5014,13.7473 C33.6964,13.7753 32.9844,14.0823 32.2794,14.4363 C31.8774,14.6393 31.4614,14.8153 31.0434,14.9873 C30.8444,15.0693 30.6294,15.1133 30.5084,15.1483" id="Fill-82" fill="#FFFFFF"></path>
                <path d="M41.7496,14.0409 C41.1856,13.9009 40.6416,13.8199 40.1806,13.4989 C40.1076,13.4479 40.0666,13.3519 40.0116,13.2769 C40.1006,13.2339 40.1856,13.1639 40.2776,13.1519 C40.8706,13.0809 41.4896,13.4469 41.7496,14.0409" id="Fill-84" fill="#FFFFFF"></path>
            </g>
        </g>
    </g>
</svg>