<?xml version="1.0" encoding="UTF-8"?>
<svg width="100px" height="100px" viewBox="0 0 100 100" version="1.1" xmlns="http://www.w3.org/2000/svg" xmlns:xlink="http://www.w3.org/1999/xlink">
    <!-- Generator: Sketch 47 (45396) - http://www.bohemiancoding.com/sketch -->
    <title>wu</title>
    <desc>Created with Sketch.</desc>
    <defs></defs>
    <g id="Presentation" stroke="none" stroke-width="1" fill="none" fill-rule="evenodd">
        <g id="wu">
            <g id="Group" transform="translate(6.000000, 42.000000)">
                <path d="M2.55172902,2.54686418 C3.18906367,2.8728918 3.78710791,3.33806899 4.33009157,3.91748254 C5.22445525,4.87353935 5.84895634,5.92653694 6.79614425,7.88945582 C6.85766955,8.01708051 6.85766955,8.01708051 6.91925575,8.14512432 C6.97923695,8.26987779 6.97923695,8.26987779 7.03940679,8.39493425 C7.9371203,10.2597257 8.46497655,11.2044857 9.24817095,12.1857172 C9.81274346,12.8930464 10.4397084,13.4876432 11.1293417,13.9488093 C11.8916424,14.4596084 12.7302161,14.8020264 13.5873461,14.9344531 C13.8853338,14.9810329 14.1877971,15.0028011 14.4915103,14.9997121 C14.7752512,14.9968263 15.0028973,14.7675616 14.9999721,14.4876351 C14.997047,14.2077086 14.7646582,13.9831228 14.4809174,13.9860087 C14.2343862,13.988516 13.9892554,13.9708741 13.7472408,13.9330444 C13.0452327,13.8245832 12.3478421,13.539815 11.7062913,13.1099278 C11.1087767,12.7103622 10.5576787,12.1877156 10.0554898,11.5585441 C9.33416356,10.6548247 8.83360386,9.75892027 7.96761387,7.96002708 C7.90765911,7.83541763 7.90765911,7.83541763 7.84764561,7.71059702 C7.78589726,7.58221598 7.78589726,7.58221598 7.72394695,7.45370961 C6.73470749,5.40364461 6.06967265,4.28230134 5.08491545,3.229616 C4.46434202,2.56740673 3.77303507,2.02968694 3.02421588,1.64663 C2.22827606,1.24060702 1.37001703,1.01352377 0.522050527,1.00006692 C0.238331294,0.995564427 0.0046316822,1.21882238 6.78339549e-05,1.49872752 C-0.00449601429,1.77863266 0.221804138,2.0091906 0.50552337,2.01369309 C1.18911962,2.02454145 1.89276837,2.210717 2.55172902,2.54686418 Z" id="Stroke-1" stroke="#F2F2E3" fill="#F2F2E3" fill-rule="nonzero"></path>
                <path d="M31.5508362,2.5467687 C32.1881387,2.87277968 32.7862081,3.33784829 33.3303133,3.91771896 C34.2247448,4.87384888 34.8503979,5.92901473 35.7953523,7.88927707 C35.8592291,8.0216534 35.8592291,8.0216534 35.9229961,8.15411892 C35.9809033,8.27445499 35.9809033,8.27445499 36.0389839,8.39507138 C36.938819,10.262826 37.4650519,11.2047784 38.2473572,12.1855817 C38.8141906,12.8947522 39.4402384,13.4884792 40.1295482,13.9489473 C40.8901776,14.4591605 41.729597,14.8019239 42.5865724,14.9344426 C42.8844956,14.9810122 43.1876572,15.0028025 43.4915103,14.9997121 C43.7752512,14.9968262 44.0028973,14.7675616 43.9999721,14.4876351 C43.997047,14.2077086 43.7646582,13.9831228 43.4809174,13.9860087 C43.2342146,13.9885178 42.988385,13.9708483 42.7465351,13.9330444 C42.0447453,13.8245221 41.3466546,13.539468 40.7064979,13.1100662 C40.1090664,12.7109729 39.558775,12.1890913 39.054568,11.5582736 C38.3343065,10.6552563 37.8352052,9.76186939 36.9670589,7.95988994 C36.9091784,7.83968921 36.9091784,7.83968921 36.8512411,7.71929058 C36.7873075,7.5864787 36.7873075,7.5864787 36.723155,7.45353097 C35.7363319,5.4064137 35.0700135,4.28266566 34.0849155,3.22961599 C33.4631277,2.56695561 32.7719819,2.02950922 32.0235101,1.64663 C31.2285366,1.24069261 30.3701611,1.01352605 29.5220505,1.00006692 C29.2383313,0.995564427 29.0046317,1.21882238 29.0000678,1.49872752 C28.995504,1.77863266 29.2218041,2.0091906 29.5055234,2.01369309 C30.1891793,2.0245424 30.892791,2.21075117 31.5508362,2.5467687 Z" id="Stroke-3" stroke="#F2F2E3" fill="#F2F2E3" fill-rule="nonzero"></path>
                <path d="M15.414705,14.9350318 C16.2708237,14.8018998 17.1091851,14.4593922 17.8707808,13.9492943 C18.560397,13.4878892 19.1872291,12.893569 19.7520938,12.1866203 C20.5352283,11.2048782 21.0631795,10.2598515 21.9602329,8.39636755 C22.0207469,8.27059062 22.0207469,8.27059062 22.0810698,8.14512013 C22.142653,8.0170765 22.142653,8.0170765 22.2041754,7.88945192 C23.1477758,5.93190766 23.7750504,4.87418436 24.6698242,3.91703454 C25.2139843,3.33707962 25.8112384,2.87249542 26.4487311,2.54668971 C27.1056479,2.21123282 27.80949,2.02515786 28.4949514,2.01368529 C28.7786532,2.00893697 29.0047374,1.77818318 28.9999246,1.49828227 C28.9951118,1.21838135 28.7612245,0.995326106 28.4775227,1.00007442 C27.6282012,1.01428953 26.7698398,1.24121477 25.976261,1.64645871 C25.2275215,2.02911968 24.5371278,2.56615403 23.9151467,3.22905043 C22.9297921,4.28309437 22.2618098,5.40945971 21.2763302,7.45388472 C21.214469,7.58221232 21.214469,7.58221232 21.1527234,7.71059367 C21.092368,7.83613161 21.092368,7.83613161 21.0320715,7.96145629 C20.1666926,9.75914178 19.6660236,10.6553337 18.9448982,11.5593409 C18.4425495,12.1880485 17.8913954,12.7106157 17.2938578,13.1104134 C16.6529253,13.5396941 15.9553437,13.8246869 15.2545193,13.9336697 C15.0138463,13.9711939 14.7681014,13.9885343 14.5190582,13.9860012 C14.2353307,13.9831154 14.0029529,14.207701 14.0000279,14.4876273 C13.9971029,14.7675536 14.2247382,14.9968182 14.5084657,14.999704 C14.8141433,15.0028131 15.1170622,14.9814384 15.414705,14.9350318 Z" id="Stroke-5" stroke="#F2F2E3" fill="#F2F2E3" fill-rule="nonzero"></path>
                <path d="M44.414269,14.935 C45.2704516,14.8018645 46.1096013,14.4592114 46.8709629,13.9492943 C47.5601264,13.4882137 48.1861825,12.894301 48.7516587,12.1866202 C49.5348281,11.2055665 50.060232,10.265155 50.9603635,8.39647272 C51.0171779,8.27846838 51.0171779,8.27846838 51.0738264,8.16073262 C51.1391827,8.02494681 51.1391827,8.02494681 51.2044752,7.88963055 C52.149602,5.92901197 52.7752551,4.87384675 53.6702154,3.91715298 C54.212892,3.33806776 54.8109362,2.87289085 55.4487926,2.54659688 C56.1062031,2.21124106 56.8101138,2.02515673 57.4949354,2.01368516 C57.7786505,2.0089326 58.0047418,1.77817542 57.9999244,1.49827459 C57.9951071,1.21837375 57.7612054,0.995321997 57.4774904,1.00007456 C56.6288711,1.01428993 55.7705986,1.24118101 54.9763058,1.64636323 C54.2269648,2.02968648 53.5356579,2.56740595 52.9153915,3.22928685 C51.9299864,4.28266388 51.2636681,5.40641125 50.2766725,7.4538847 C50.2110846,7.58981331 50.2110846,7.58981331 50.1455577,7.72595365 C50.0888809,7.84374817 50.0888809,7.84374817 50.0322599,7.96135107 C49.1638885,9.76409887 48.665658,10.6558732 47.9445331,11.5592056 C47.4414193,12.1888412 46.8909919,12.7110082 46.2940128,13.1104134 C45.6533603,13.5394863 44.9550215,13.8246415 44.2538726,13.9336696 C44.014069,13.9711535 43.76771,13.9885364 43.5190963,13.9860013 C43.2353555,13.983108 43.0029607,14.2076876 43.000028,14.4876138 C42.9970953,14.76754 43.2247352,14.9968106 43.508476,14.9997038 C43.813812,15.0028173 44.1174889,14.9813902 44.414269,14.935 Z" id="Stroke-7" stroke="#F2F2E3" fill="#F2F2E3" fill-rule="nonzero"></path>
                <path d="M87,3 C86.4486971,3 86,2.55193483 86,1.99959267 C86,1.44806517 86.4486971,1 87,1 C87.5513029,1 88,1.44806517 88,1.99959267 C88,2.55193483 87.5513029,3 87,3" id="Fill-9" fill="#2C253B"></path>
                <path d="M86,0 C85.4482759,0 85,0.449043587 85,1.00031358 C85,1.55158357 85.4482759,2 86,2 C86.5510972,2 87,1.55158357 87,1.00031358 C87,0.449043587 86.5510972,0 86,0" id="Fill-11" fill="#FF1C5C"></path>
                <path d="M59.0665971,3.2044203 C59.619891,3.48845546 60.1498082,3.90169002 60.634656,4.42104594 C61.4688091,5.31443745 62.0696388,6.32988186 62.9974913,8.25762283 C63.0597133,8.38702117 63.0597133,8.38702117 63.1222202,8.51730963 C63.1832045,8.64447228 63.1832045,8.64447228 63.2445905,8.77238087 C64.1846217,10.7300457 64.7446882,11.7350059 65.5937884,12.8015146 C66.2218683,13.5904116 66.9232345,14.257461 67.7034801,14.7800015 C68.5786196,15.3685207 69.5522749,15.7671087 70.5562484,15.9227535 C70.9073114,15.9776269 71.2633975,16.003303 71.6206122,15.9996606 C72.3903204,15.9918122 73.0078595,15.3683001 72.9999244,14.6070072 C72.9919892,13.8457144 72.3615848,13.234927 71.5918765,13.2427754 C71.3895492,13.2448384 71.18862,13.2303502 70.9896304,13.1992475 C70.4071824,13.1089501 69.8169117,12.8673094 69.2685804,12.4985661 C68.7379237,12.1431754 68.2425595,11.6720486 67.7838147,11.0958442 C67.1025452,10.2401386 66.6165265,9.36804665 65.7625522,7.58959992 C65.7017496,7.46290699 65.7017496,7.46290699 65.6406777,7.33556177 C65.577731,7.20435615 65.577731,7.20435615 65.514356,7.07256 C64.472311,4.90756842 63.7613834,3.70605093 62.6825797,2.5506346 C61.9878879,1.80649942 61.2046578,1.195729 60.3488127,0.756381059 C59.4221359,0.28246276 58.4180576,0.0161218837 57.4161745,0.00018200235 C56.646525,-0.0120630615 56.0125644,0.595113087 56.000184,1.35634789 C55.9878036,2.11758269 56.6016915,2.74461201 57.371341,2.75685707 C57.9273344,2.76570288 58.511999,2.92079047 59.0665971,3.2044203 Z" id="Stroke-13" stroke="#FF1C5C" fill="#FF1C5C" fill-rule="nonzero"></path>
                <path d="M73.446034,15.9230996 C74.4482861,15.7669909 75.420525,15.3688899 76.2979062,14.7797742 C77.0763744,14.2576199 77.776963,13.5915104 78.4058806,12.8035337 C79.2558826,11.7353075 79.8160597,10.7300928 80.755422,8.77384612 C80.8171631,8.64519836 80.8171631,8.64519836 80.8784978,8.51730477 C80.9410044,8.3870169 80.9410044,8.3870169 81.0032263,8.25761876 C81.9276513,6.3350661 82.5312209,5.3147733 83.3651577,4.42047395 C83.8509302,3.90079287 84.3800376,3.48830361 84.9350434,3.20394652 C85.487217,2.92127306 86.0721892,2.76620177 86.6299036,2.75683562 C87.3995418,2.74391048 88.012863,2.11633929 87.999795,1.35511615 C87.986727,0.593893003 87.3522182,-0.0127223785 86.5825801,0.000202768731 C85.5803,0.0170348577 84.5761732,0.283220535 83.653306,0.755662799 C82.7964188,1.19468869 82.0140053,1.80465398 81.3172348,2.55006349 C80.2381678,3.70723479 79.5241648,4.91420767 78.4861279,7.07304268 C78.4229867,7.20435278 78.4229867,7.20435278 78.3600396,7.33555913 C78.2986169,7.46363613 78.2986169,7.46363613 78.2374661,7.59105398 C77.3840314,9.36835405 76.8978665,10.2407569 76.2166724,11.0968384 C75.7574777,11.6721654 75.2615523,12.1436841 74.7328048,12.4983394 C74.1828781,12.8675862 73.5926914,13.109249 73.0111094,13.1998353 C72.8149578,13.2305735 72.6129583,13.2448626 72.4081605,13.242769 C71.6384526,13.2349003 71.0080317,13.8456708 71.000076,14.606963 C70.9921204,15.3682552 71.6096427,15.9917833 72.3793506,15.9996519 C72.7380199,16.0033186 73.0955064,15.9780305 73.446034,15.9230996 Z" id="Stroke-15" stroke="#FF1C5C" fill="#FF1C5C" fill-rule="nonzero"></path>
            </g>
        </g>
    </g>
</svg>